SplineFontDB: 1.0
FontName: ArundinaSansMono
FullName: Arundina Sans Mono
FamilyName: Arundina Sans Mono
Weight: Book
Copyright: Copyright (c) 2003 by Bitstream, Inc. All Rights Reserved.\nCopyright (c) 2007 by Software Industry Promotion Agency (Public Organization). All Rights Reserved.
Version: 1.20
ItalicAngle: 0
UnderlinePosition: -75
UnderlineWidth: 50
Ascent: 800
Descent: 200
Order2: 1
XUID: [1021 375 425136265 5877357]
FSType: 4
OS2Version: 2
OS2_WeightWidthSlopeOnly: 0
OS2_UseTypoMetrics: 1
CreationTime: 1131303360
ModificationTime: 1171885118
PfmFamily: 49
TTFWeight: 400
TTFWidth: 5
LineGap: 12
VLineGap: 0
Panose: 2 11 3 0 2 2 2 2 2 4
OS2TypoAscent: 0
OS2TypoAOffset: 1
OS2TypoDescent: -200
OS2TypoDOffset: 1
OS2TypoLinegap: 0
OS2WinAscent: -185
OS2WinAOffset: 1
OS2WinDescent: 47
OS2WinDOffset: 1
HheadAscent: -185
HheadAOffset: 1
HheadDescent: -47
HheadDOffset: 1
OS2SubXSize: 700
OS2SubYSize: 650
OS2SubXOff: 0
OS2SubYOff: 140
OS2SupXSize: 700
OS2SupYSize: 650
OS2SupXOff: 0
OS2SupYOff: 477
OS2StrikeYSize: 40
OS2StrikeYPos: 250
OS2FamilyClass: 1285
OS2Vendor: 'BLWK'
ScriptLang: 2
 1 latn 1 dflt 
 0 
ChainSub: coverage 0 0 'liga' 0 0 0 1
 1 1 0
  Coverage: 7 uni0E47
  BCoverage: 12 uni0E2C.alt1
 1
  SeqLookup: 0 'L019'
EndFPST
ChainSub: coverage 0 0 'liga' 0 0 0 1
 1 0 1
  Coverage: 7 uni0E2C
  FCoverage: 39 uni0E34 uni0E35 uni0E36 uni0E37 uni0E47
 1
  SeqLookup: 0 'L019'
EndFPST
ChainSub: coverage 0 0 'liga' 0 0 0 1
 1 0 1
  Coverage: 15 uni0E0E uni0E0F
  FCoverage: 38 uni0E38.alt1 uni0E39.alt1 uni0E3A.alt1
 1
  SeqLookup: 0 'L019'
EndFPST
ChainSub: coverage 0 0 'liga' 0 0 0 1
 1 1 0
  Coverage: 5 a b c
  BCoverage: 23 uni0E1B uni0E1D uni0E1F
 1
  SeqLookup: 0 'L019'
EndFPST
ChainSub: coverage 0 0 'liga' 0 0 0 1
 1 0 1
  Coverage: 5 a b c
  FCoverage: 64 uni0E48.alt1 uni0E49.alt1 uni0E4A.alt1 uni0E4B.alt1 uni0E4C.alt1
 1
  SeqLookup: 0 'L019'
EndFPST
ChainSub: coverage 0 0 'liga' 0 0 0 1
 1 1 0

StartChar: .notdef
Encoding: 65536 -1 0
Width: 364
Flags: W
Fore
31 426 m 1,0,-1
 333 426 l 1,1,-1
 333 -107 l 1,2,-1
 31 -107 l 1,3,-1
 31 426 l 1,0,-1
299 -73 m 1,4,-1
 299 392 l 1,5,-1
 65 392 l 1,6,-1
 65 -73 l 1,7,-1
 299 -73 l 1,4,-1
EndSplineSet
EndChar
StartChar: exclam
Encoding: 33 33 4
Width: 364
Flags: W
Fore
212 440 m 1,0,-1
 212 247 l 1,1,-1
 206 142 l 1,2,-1
 158 142 l 1,3,-1
 152 247 l 1,4,-1
 152 440 l 1,5,-1
 212 440 l 1,0,-1
212 75 m 1,6,-1
 212 0 l 1,7,-1
 152 0 l 1,8,-1
 152 75 l 1,9,-1
 212 75 l 1,6,-1
EndSplineSet
EndChar
StartChar: quotedbl
Encoding: 34 34 5
Width: 364
Flags: W
Fore
264 277 m 1,0,-1
 213 277 l 1,1,-1
 213 440 l 1,2,-1
 264 440 l 1,3,-1
 264 277 l 1,0,-1
151 277 m 1,4,-1
 100 277 l 1,5,-1
 100 440 l 1,6,-1
 151 440 l 1,7,-1
 151 277 l 1,4,-1
EndSplineSet
EndChar
StartChar: numbersign
Encoding: 35 35 6
Width: 364
Flags: W
Fore
171 311 m 1,0,-1
 243 311 l 1,1,-1
 274 434 l 1,2,-1
 322 434 l 1,3,-1
 291 311 l 1,4,-1
 363 311 l 1,5,-1
 363 266 l 1,6,-1
 280 266 l 1,7,-1
 255 167 l 1,8,-1
 329 167 l 1,9,-1
 329 122 l 1,10,-1
 243 122 l 1,11,-1
 213 0 l 1,12,-1
 165 0 l 1,13,-1
 196 122 l 1,14,-1
 124 122 l 1,15,-1
 93 0 l 1,16,-1
 46 0 l 1,17,-1
 77 122 l 1,18,-1
 1 122 l 1,19,-1
 1 167 l 1,20,-1
 88 167 l 1,21,-1
 113 266 l 1,22,-1
 35 266 l 1,23,-1
 35 311 l 1,24,-1
 124 311 l 1,25,-1
 155 434 l 1,26,-1
 202 434 l 1,27,-1
 171 311 l 1,0,-1
160 266 m 1,28,-1
 135 167 l 1,29,-1
 208 167 l 1,30,-1
 232 266 l 1,31,-1
 160 266 l 1,28,-1
EndSplineSet
EndChar
StartChar: dollar
Encoding: 36 36 7
Width: 364
Flags: W
Fore
204 43 m 1,0,1
 237 44 237 44 255 61 c 128,-1,2
 273 78 273 78 273 108 c 0,3,4
 273 135 273 135 256.5 150.5 c 128,-1,5
 240 166 240 166 204 171 c 1,6,-1
 204 43 l 1,0,1
175 349 m 1,7,8
 144 348 144 348 126.5 331.5 c 128,-1,9
 109 315 109 315 109 287 c 0,10,11
 109 238 109 238 175 227 c 1,12,-1
 175 349 l 1,7,8
175 -89 m 1,13,-1
 174 0 l 1,14,15
 115 3 115 3 56 27 c 1,16,-1
 56 80 l 1,17,18
 115 44 115 44 175 42 c 1,19,-1
 175 177 l 1,20,21
 56 195 56 195 56 284 c 0,22,23
 56 331 56 331 87 358 c 0,24,25
 119 386 119 386 175 390 c 1,26,-1
 175 459 l 1,27,-1
 204 459 l 1,28,-1
 204 390 l 1,29,30
 251 387 251 387 300 372 c 1,31,-1
 300 321 l 1,32,33
 275 333 275 333 251.5 340 c 128,-1,34
 228 347 228 347 204 348 c 1,35,-1
 204 221 l 1,36,37
 265 212 265 212 297 183.5 c 128,-1,38
 329 155 329 155 329 109 c 0,39,40
 329 64 329 64 294 34 c 0,41,42
 260 3 260 3 204 1 c 1,43,-1
 204 -89 l 1,44,-1
 175 -89 l 1,13,-1
EndSplineSet
EndChar
StartChar: percent
Encoding: 37 37 8
Width: 364
Flags: W
Fore
205 94 m 0,0,1
 205 71 205 71 221 55 c 0,2,3
 236 40 236 40 259 40 c 256,4,5
 282 40 282 40 298 55 c 0,6,7
 314 73 314 73 314 94 c 256,8,9
 314 115 314 115 298 133 c 0,10,11
 280 149 280 149 259 149 c 0,12,13
 237 149 237 149 221 133 c 0,14,15
 205 118 205 118 205 94 c 0,0,1
165 94 m 0,16,17
 165 133 165 133 193 161 c 256,18,19
 221 189 221 189 259 189 c 0,20,21
 298 189 298 189 326 161 c 0,22,23
 354 131 354 131 354 94 c 0,24,25
 354 56 354 56 327 27 c 0,26,27
 299 0 299 0 259 0 c 256,28,29
 219 0 219 0 192 27 c 256,30,31
 165 54 165 54 165 94 c 0,16,17
25 165 m 1,32,-1
 333 289 l 1,33,-1
 345 260 l 1,34,-1
 36 137 l 1,35,-1
 25 165 l 1,32,-1
50 328 m 0,36,37
 50 304 50 304 65 289 c 256,38,39
 80 274 80 274 104 274 c 0,40,41
 127 274 127 274 142 289 c 0,42,43
 158 305 158 305 158 328 c 256,44,45
 158 351 158 351 142 366 c 0,46,47
 127 382 127 382 104 382 c 0,48,49
 82 382 82 382 65 367 c 0,50,51
 50 351 50 351 50 328 c 0,36,37
10 328 m 256,52,53
 10 368 10 368 37 395 c 256,54,55
 64 422 64 422 104 422 c 256,56,57
 144 422 144 422 171 395 c 0,58,59
 198 366 198 366 198 328 c 0,60,61
 198 288 198 288 171 261 c 256,62,63
 144 234 144 234 104 234 c 256,64,65
 64 234 64 234 37 261 c 256,66,67
 10 288 10 288 10 328 c 256,52,53
EndSplineSet
EndChar
StartChar: ampersand
Encoding: 38 38 9
Width: 364
Flags: W
Fore
284 103 m 1,0,1
 307 132 307 132 307 192 c 0,2,3
 307 197 307 197 307 204 c 128,-1,4
 307 211 307 211 306 222 c 2,5,-1
 306 224 l 1,6,-1
 354 224 l 1,7,-1
 354 213 l 2,8,9
 354 118 354 118 310 68 c 1,10,-1
 360 0 l 1,11,-1
 297 0 l 1,12,-1
 274 32 l 1,13,14
 225 -9 225 -9 164 -9 c 0,15,16
 101 -9 101 -9 58 31 c 0,17,18
 17 72 17 72 17 131 c 0,19,20
 17 212 17 212 99 270 c 1,21,22
 70 311 70 311 70 353 c 0,23,24
 70 398 70 398 99 423 c 256,25,26
 128 448 128 448 179 448 c 0,27,28
 218 448 218 448 258 435 c 1,29,-1
 258 381 l 1,30,31
 224 403 224 403 183 403 c 0,32,33
 154 403 154 403 138 389.5 c 128,-1,34
 122 376 122 376 122 353 c 0,35,36
 122 334 122 334 130 317 c 0,37,38
 139 297 139 297 161 268 c 2,39,-1
 284 103 l 1,0,1
123 237 m 1,40,41
 69 195 69 195 69 140 c 0,42,43
 69 95 69 95 98 66 c 0,44,45
 129 37 129 37 173 37 c 0,46,47
 200 37 200 37 226 51 c 0,48,49
 240 59 240 59 249 66 c 1,50,-1
 123 237 l 1,51,-1
 123 237 l 1,40,41
EndSplineSet
EndChar
StartChar: quotesingle
Encoding: 39 39 10
Width: 364
Flags: W
Fore
207 277 m 1,0,-1
 156 277 l 1,1,-1
 156 440 l 1,2,-1
 207 440 l 1,3,-1
 207 277 l 1,0,-1
EndSplineSet
EndChar
StartChar: parenleft
Encoding: 40 40 11
Width: 364
Flags: W
Fore
261 458 m 1,0,1
 183 325 183 325 183 190 c 0,2,3
 183 57 183 57 261 -80 c 1,4,-1
 214 -80 l 1,5,6
 169 -9 169 -9 147.5 57 c 128,-1,7
 126 123 126 123 126 190 c 0,8,9
 126 321 126 321 214 458 c 1,10,-1
 261 458 l 1,11,-1
 261 458 l 1,0,1
EndSplineSet
EndChar
StartChar: parenright
Encoding: 41 41 12
Width: 364
Flags: W
Fore
150 458 m 1,0,1
 238 321 238 321 238 190 c 256,2,3
 238 59 238 59 150 -80 c 1,4,-1
 103 -80 l 1,5,6
 142 -11 142 -11 161.5 55.5 c 128,-1,7
 181 122 181 122 181 190 c 0,8,9
 181 323 181 323 103 458 c 1,10,-1
 150 458 l 1,0,1
EndSplineSet
EndChar
StartChar: asterisk
Encoding: 42 42 13
Width: 364
Flags: W
Fore
209 311 m 1,0,-1
 315 253 l 1,1,-1
 298 224 l 1,2,-1
 199 284 l 1,3,-1
 199 173 l 1,4,-1
 165 173 l 1,5,-1
 165 284 l 1,6,-1
 66 224 l 1,7,-1
 49 253 l 1,8,-1
 155 311 l 1,9,-1
 49 368 l 1,10,-1
 66 397 l 1,11,-1
 165 337 l 1,12,-1
 165 448 l 1,13,-1
 199 448 l 1,14,-1
 199 337 l 1,15,-1
 298 397 l 1,16,-1
 315 368 l 1,17,-1
 209 311 l 1,0,-1
EndSplineSet
EndChar
StartChar: plus
Encoding: 43 43 14
Width: 364
Flags: W
Fore
207 214 m 1,0,-1
 338 214 l 1,1,-1
 338 164 l 1,2,-1
 207 164 l 1,3,-1
 207 33 l 1,4,-1
 157 33 l 1,5,-1
 157 164 l 1,6,-1
 26 164 l 1,7,-1
 26 214 l 1,8,-1
 157 214 l 1,9,-1
 157 345 l 1,10,-1
 207 345 l 1,11,-1
 207 214 l 1,0,-1
EndSplineSet
EndChar
StartChar: comma
Encoding: 44 44 15
Width: 364
Flags: W
Fore
222 89 m 1,0,-1
 222 28 l 1,1,-1
 164 -85 l 1,2,-1
 119 -85 l 1,3,-1
 148 28 l 1,4,-1
 148 89 l 1,5,-1
 222 89 l 1,0,-1
EndSplineSet
EndChar
StartChar: hyphen
Encoding: 45 45 16
Width: 364
Flags: W
Fore
259 190 m 1,0,-1
 259 141 l 1,1,-1
 105 141 l 1,2,-1
 105 190 l 1,3,-1
 259 190 l 1,0,-1
EndSplineSet
EndChar
StartChar: period
Encoding: 46 46 17
Width: 364
Flags: W
Fore
219 90 m 1,0,-1
 219 0 l 1,1,-1
 144 0 l 1,2,-1
 144 90 l 1,3,-1
 219 90 l 1,0,-1
EndSplineSet
EndChar
StartChar: slash
Encoding: 47 47 18
Width: 364
Flags: W
Fore
318 440 m 1,0,-1
 86 -56 l 1,1,-1
 30 -56 l 1,2,-1
 262 440 l 1,3,-1
 318 440 l 1,0,-1
EndSplineSet
EndChar
StartChar: zero
Encoding: 48 48 19
Width: 364
Flags: W
Fore
142 221 m 0,0,1
 142 237 142 237 154 249 c 0,2,3
 165 261 165 261 181 261 c 256,4,5
 197 261 197 261 209 249 c 256,6,7
 221 237 221 237 221 221 c 256,8,9
 221 205 221 205 209 193 c 0,10,11
 198 182 198 182 181 182 c 0,12,13
 166 182 166 182 153 193 c 0,14,15
 142 204 142 204 142 221 c 0,0,1
182 401 m 256,16,17
 99 401 99 401 99 220 c 256,18,19
 99 39 99 39 182 39 c 256,20,21
 265 39 265 39 265 220 c 256,22,23
 265 401 265 401 182 401 c 256,16,17
182 448 m 256,24,25
 325 448 325 448 325 220 c 0,26,27
 325 107 325 107 289 49 c 128,-1,28
 253 -9 253 -9 182 -9 c 256,29,30
 111 -9 111 -9 75 49 c 128,-1,31
 39 107 39 107 39 220 c 0,32,33
 39 448 39 448 182 448 c 256,24,25
EndSplineSet
EndChar
StartChar: one
Encoding: 49 49 20
Width: 364
Flags: W
Fore
172 50 m 1,0,-1
 172 387 l 1,1,-1
 73 364 l 1,2,-1
 73 419 l 1,3,-1
 172 440 l 1,4,-1
 231 440 l 1,5,-1
 231 50 l 1,6,-1
 323 50 l 1,7,-1
 323 0 l 1,8,-1
 80 0 l 1,9,-1
 80 50 l 1,10,-1
 172 50 l 1,0,-1
EndSplineSet
EndChar
StartChar: two
Encoding: 50 50 21
Width: 364
Flags: W
Fore
312 50 m 1,0,-1
 312 0 l 1,1,-1
 45 0 l 1,2,-1
 45 50 l 1,3,4
 73 79 73 79 97 104.5 c 128,-1,5
 121 130 121 130 141 153 c 0,6,7
 183 198 183 198 198 216 c 0,8,9
 227 251 227 251 238 274 c 0,10,11
 248 295 248 295 248 319 c 0,12,13
 248 357 248 357 226.5 377.5 c 128,-1,14
 205 398 205 398 167 398 c 0,15,16
 114 398 114 398 48 359 c 1,17,-1
 48 419 l 1,18,19
 111 448 111 448 166 448 c 0,20,21
 232 448 232 448 270 414 c 0,22,23
 309 380 309 380 309 324 c 0,24,25
 309 295 309 295 296 267 c 128,-1,26
 283 239 283 239 254 205 c 0,27,28
 246 195 246 195 234 182 c 128,-1,29
 222 169 222 169 206 152 c 0,30,31
 175 118 175 118 110 50 c 1,32,-1
 312 50 l 1,0,-1
EndSplineSet
EndChar
StartChar: three
Encoding: 51 51 22
Width: 364
Flags: W
Fore
229 236 m 1,0,1
 318 211 318 211 318 122 c 0,2,3
 318 60 318 60 277 26 c 0,4,5
 236 -9 236 -9 164 -9 c 0,6,7
 104 -9 104 -9 40 13 c 1,8,-1
 40 73 l 1,9,10
 101 42 101 42 158 42 c 0,11,12
 207 42 207 42 233 63.5 c 128,-1,13
 259 85 259 85 259 127 c 0,14,15
 259 165 259 165 233 188 c 256,16,17
 207 211 207 211 162 211 c 2,18,-1
 117 211 l 1,19,-1
 117 260 l 1,20,-1
 162 260 l 2,21,22
 204 260 204 260 226.5 278 c 128,-1,23
 249 296 249 296 249 328 c 0,24,25
 249 362 249 362 227.5 380 c 128,-1,26
 206 398 206 398 167 398 c 0,27,28
 117 398 117 398 54 375 c 1,29,-1
 54 430 l 1,30,31
 125 448 125 448 167 448 c 0,32,33
 231 448 231 448 269 416 c 0,34,35
 308 383 308 383 308 330 c 0,36,37
 308 256 308 256 229 236 c 1,0,1
EndSplineSet
EndChar
StartChar: four
Encoding: 52 52 23
Width: 364
Flags: W
Fore
78 153 m 1,0,-1
 217 153 l 1,1,-1
 217 386 l 1,2,-1
 78 153 l 1,0,-1
276 440 m 1,3,-1
 276 153 l 1,4,-1
 335 153 l 1,5,-1
 335 105 l 1,6,-1
 276 105 l 1,7,-1
 276 0 l 1,8,-1
 217 0 l 1,9,-1
 217 105 l 1,10,-1
 30 105 l 1,11,-1
 30 161 l 1,12,-1
 207 440 l 1,13,-1
 276 440 l 1,3,-1
EndSplineSet
EndChar
StartChar: five
Encoding: 53 53 24
Width: 364
Flags: W
Fore
284 440 m 1,0,-1
 284 390 l 1,1,-1
 115 390 l 1,2,-1
 115 282 l 1,3,4
 141 291 141 291 167 291 c 0,5,6
 235 291 235 291 275 251 c 256,7,8
 315 211 315 211 315 141 c 256,9,10
 315 71 315 71 273 32 c 0,11,12
 230 -9 230 -9 158 -9 c 0,13,14
 91 -9 91 -9 42 10 c 1,15,-1
 42 71 l 1,16,17
 94 42 94 42 153 42 c 0,18,19
 203 42 203 42 229 67.5 c 128,-1,20
 255 93 255 93 255 141 c 0,21,22
 255 188 255 188 228 215 c 0,23,24
 199 241 199 241 151 241 c 0,25,26
 102 241 102 241 61 219 c 1,27,-1
 61 440 l 1,28,-1
 284 440 l 1,0,-1
EndSplineSet
EndChar
StartChar: six
Encoding: 54 54 25
Width: 364
Flags: W
Fore
292 376 m 1,0,1
 254 398 254 398 209 398 c 0,2,3
 94 398 94 398 94 230 c 1,4,5
 108 259 108 259 133.5 275 c 128,-1,6
 159 291 159 291 191 291 c 0,7,8
 255 291 255 291 289 252 c 0,9,10
 325 213 325 213 325 141 c 0,11,12
 325 72 325 72 289 31 c 0,13,14
 253 -9 253 -9 187 -9 c 0,15,16
 112 -9 112 -9 75 46 c 0,17,18
 39 102 39 102 39 220 c 0,19,20
 39 332 39 332 82 390 c 128,-1,21
 125 448 125 448 207 448 c 0,22,23
 250 448 250 448 292 431 c 1,24,-1
 292 376 l 1,0,1
186 245 m 0,25,26
 149 245 149 245 126 217 c 0,27,28
 104 189 104 189 104 141 c 0,29,30
 104 95 104 95 126 65 c 0,31,32
 149 38 149 38 186 38 c 0,33,34
 266 38 266 38 266 141 c 0,35,36
 266 245 266 245 186 245 c 0,25,26
EndSplineSet
EndChar
StartChar: seven
Encoding: 55 55 26
Width: 364
Flags: W
Fore
318 440 m 1,0,-1
 318 415 l 1,1,-1
 161 0 l 1,2,-1
 99 0 l 1,3,-1
 252 390 l 1,4,-1
 41 390 l 1,5,-1
 41 440 l 1,6,-1
 318 440 l 1,0,-1
EndSplineSet
EndChar
StartChar: eight
Encoding: 56 56 27
Width: 364
Flags: W
Fore
182 209 m 256,0,1
 142 209 142 209 120.5 187 c 128,-1,2
 99 165 99 165 99 124 c 256,3,4
 99 83 99 83 121 60.5 c 128,-1,5
 143 38 143 38 182 38 c 0,6,7
 222 38 222 38 243.5 60 c 128,-1,8
 265 82 265 82 265 124 c 0,9,10
 265 165 265 165 243.5 187 c 128,-1,11
 222 209 222 209 182 209 c 256,0,1
130 234 m 1,12,13
 92 244 92 244 70.5 270 c 128,-1,14
 49 296 49 296 49 334 c 0,15,16
 49 387 49 387 85 417 c 0,17,18
 120 448 120 448 182 448 c 256,19,20
 244 448 244 448 279 417 c 0,21,22
 315 387 315 387 315 334 c 0,23,24
 315 296 315 296 293.5 270 c 128,-1,25
 272 244 272 244 234 234 c 1,26,27
 325 214 325 214 325 118 c 0,28,29
 325 58 325 58 287 25 c 0,30,31
 248 -9 248 -9 182 -9 c 256,32,33
 116 -9 116 -9 76 25 c 0,34,35
 39 58 39 58 39 118 c 0,36,37
 39 214 39 214 130 234 c 1,12,13
108 329 m 256,38,39
 108 256 108 256 182 256 c 0,40,41
 255 256 255 256 255 329 c 256,42,43
 255 402 255 402 182 402 c 0,44,45
 108 402 108 402 108 329 c 256,38,39
EndSplineSet
EndChar
StartChar: nine
Encoding: 57 57 28
Width: 364
Flags: W
Fore
176 195 m 0,0,1
 214 195 214 195 235 223 c 0,2,3
 257 249 257 249 257 299 c 0,4,5
 257 348 257 348 235 374 c 0,6,7
 214 402 214 402 176 402 c 0,8,9
 96 402 96 402 96 299 c 0,10,11
 96 195 96 195 176 195 c 0,0,1
70 64 m 1,12,13
 108 42 108 42 153 42 c 0,14,15
 268 42 268 42 268 210 c 1,16,17
 254 181 254 181 228.5 165 c 128,-1,18
 203 149 203 149 171 149 c 0,19,20
 108 149 108 149 72 188 c 0,21,22
 37 228 37 228 37 299 c 256,23,24
 37 370 37 370 73 409 c 256,25,26
 109 448 109 448 175 448 c 0,27,28
 251 448 251 448 287 393 c 256,29,30
 323 338 323 338 323 220 c 0,31,32
 323 108 323 108 280 49.5 c 128,-1,33
 237 -9 237 -9 155 -9 c 0,34,35
 134 -9 134 -9 112 -4 c 128,-1,36
 90 1 90 1 70 9 c 1,37,-1
 70 64 l 1,12,13
EndSplineSet
EndChar
StartChar: colon
Encoding: 58 58 29
Width: 364
Flags: W
Fore
219 314 m 1,0,-1
 219 224 l 1,1,-1
 144 224 l 1,2,-1
 144 314 l 1,3,-1
 219 314 l 1,0,-1
219 90 m 1,4,-1
 219 0 l 1,5,-1
 144 0 l 1,6,-1
 144 90 l 1,7,-1
 219 90 l 1,4,-1
EndSplineSet
EndChar
StartChar: semicolon
Encoding: 59 59 30
Width: 364
Flags: W
Fore
222 89 m 1,0,-1
 222 28 l 1,1,-1
 164 -85 l 1,2,-1
 119 -85 l 1,3,-1
 148 28 l 1,4,-1
 148 89 l 1,5,-1
 222 89 l 1,0,-1
219 314 m 1,6,-1
 219 224 l 1,7,-1
 144 224 l 1,8,-1
 144 314 l 1,9,-1
 219 314 l 1,6,-1
EndSplineSet
EndChar
StartChar: less
Encoding: 60 60 31
Width: 364
Flags: W
Fore
87 189 m 1,0,-1
 338 96 l 1,1,-1
 338 42 l 1,2,-1
 26 165 l 1,3,-1
 26 214 l 1,4,-1
 338 337 l 1,5,-1
 338 283 l 1,6,-1
 87 189 l 1,0,-1
EndSplineSet
EndChar
StartChar: equal
Encoding: 61 61 32
Width: 364
Flags: W
Fore
338 155 m 1,0,-1
 338 104 l 1,1,-1
 26 104 l 1,2,-1
 26 155 l 1,3,-1
 338 155 l 1,0,-1
338 274 m 1,4,-1
 338 224 l 1,5,-1
 26 224 l 1,6,-1
 26 274 l 1,7,-1
 338 274 l 1,4,-1
EndSplineSet
EndChar
StartChar: greater
Encoding: 62 62 33
Width: 364
Flags: W
Fore
26 337 m 1,0,-1
 338 214 l 1,1,-1
 338 165 l 1,2,-1
 26 42 l 1,3,-1
 26 96 l 1,4,-1
 277 189 l 1,5,-1
 26 283 l 1,6,-1
 26 337 l 1,0,-1
EndSplineSet
EndChar
StartChar: question
Encoding: 63 63 34
Width: 364
Flags: W
Fore
146 118 m 1,0,-1
 146 164 l 2,1,2
 146 192 146 192 155 213 c 0,3,4
 165 234 165 234 189 257 c 2,5,-1
 215 283 l 2,6,7
 235 303 235 303 240 314 c 0,8,9
 247 325 247 325 247 341 c 0,10,11
 247 368 247 368 228 384 c 256,12,13
 209 400 209 400 176 400 c 0,14,15
 132 400 132 400 72 360 c 1,16,-1
 72 415 l 1,17,18
 128 448 128 448 187 448 c 0,19,20
 243 448 243 448 274 420 c 0,21,22
 307 392 307 392 307 344 c 0,23,24
 307 321 307 321 297 302 c 0,25,26
 292 293 292 293 282.5 281.5 c 128,-1,27
 273 270 273 270 259 256 c 2,28,-1
 233 231 l 2,29,30
 213 211 213 211 207 199 c 0,31,32
 202 186 202 186 202 168 c 2,33,-1
 202 155 l 1,34,-1
 202 118 l 1,35,-1
 146 118 l 1,0,-1
204 75 m 1,36,-1
 204 0 l 1,37,-1
 144 0 l 1,38,-1
 144 75 l 1,39,-1
 204 75 l 1,36,-1
EndSplineSet
EndChar
StartChar: at
Encoding: 64 64 35
Width: 364
Flags: W
Fore
306 161 m 256,0,1
 306 200 306 200 287 222 c 0,2,3
 269 245 269 245 237 245 c 0,4,5
 206 245 206 245 186 222 c 0,6,7
 167 200 167 200 167 161 c 256,8,9
 167 122 167 122 186 99 c 0,10,11
 205 77 205 77 237 77 c 256,12,13
 269 77 269 77 287 99 c 0,14,15
 306 122 306 122 306 161 c 256,0,1
305 40 m 1,16,-1
 305 73 l 1,17,18
 294 54 294 54 274.5 44 c 128,-1,19
 255 34 255 34 231 34 c 0,20,21
 183 34 183 34 153 70 c 0,22,23
 122 105 122 105 122 161 c 256,24,25
 122 217 122 217 153 252 c 0,26,27
 183 288 183 288 231 288 c 0,28,29
 255 288 255 288 274.5 277.5 c 128,-1,30
 294 267 294 267 305 249 c 1,31,-1
 305 268 l 2,32,33
 305 313 305 313 279 342 c 0,34,35
 253 370 253 370 210 370 c 0,36,37
 137 370 137 370 95 313 c 0,38,39
 52 258 52 258 52 160 c 256,40,41
 52 62 52 62 101 6 c 0,42,43
 149 -52 149 -52 230 -52 c 0,44,45
 261 -52 261 -52 295 -40 c 1,46,-1
 309 -80 l 1,47,48
 270 -94 270 -94 237 -94 c 0,49,50
 132 -94 132 -94 70 -25 c 0,51,52
 8 43 8 43 8 160 c 0,53,54
 8 274 8 274 63 343 c 0,55,56
 119 412 119 412 212 412 c 0,57,58
 274 412 274 412 311 372 c 256,59,60
 348 332 348 332 348 267 c 2,61,-1
 348 40 l 1,62,-1
 305 40 l 1,16,-1
EndSplineSet
EndChar
StartChar: A
Encoding: 65 65 36
Width: 364
Flags: W
Fore
119 163 m 1,0,-1
 245 163 l 1,1,-1
 182 388 l 1,2,-1
 119 163 l 1,0,-1
218 440 m 1,3,-1
 353 0 l 1,4,-1
 291 0 l 1,5,-1
 259 115 l 1,6,-1
 104 115 l 1,7,-1
 73 0 l 1,8,-1
 11 0 l 1,9,-1
 146 440 l 1,10,-1
 218 440 l 1,3,-1
EndSplineSet
KernsSLIFO: 57 -50 0 0
EndChar
StartChar: B
Encoding: 66 66 37
Width: 364
Flags: W
Fore
109 49 m 1,0,-1
 179 49 l 2,1,2
 232 49 232 49 253 67 c 0,3,4
 276 85 276 85 276 127 c 0,5,6
 276 210 276 210 179 210 c 2,7,-1
 109 210 l 1,8,-1
 109 49 l 1,0,-1
109 259 m 1,9,-1
 178 259 l 2,10,11
 222 259 222 259 241 275 c 128,-1,12
 260 291 260 291 260 329 c 0,13,14
 260 362 260 362 241 376.5 c 128,-1,15
 222 391 222 391 178 391 c 2,16,-1
 109 391 l 1,17,-1
 109 259 l 1,9,-1
179 440 m 2,18,19
 247 440 247 440 283.5 411.5 c 128,-1,20
 320 383 320 383 320 329 c 0,21,22
 320 248 320 248 243 236 c 1,23,24
 286 229 286 229 311 199 c 0,25,26
 335 168 335 168 335 121 c 0,27,28
 335 0 335 0 179 0 c 2,29,-1
 49 0 l 1,30,-1
 49 440 l 1,31,-1
 179 440 l 2,18,19
EndSplineSet
EndChar
StartChar: C
Encoding: 67 67 38
Width: 364
Flags: W
Fore
317 16 m 1,0,1
 271 -9 271 -9 219 -9 c 0,2,3
 136 -9 136 -9 88 51 c 0,4,5
 41 112 41 112 41 220 c 0,6,7
 41 327 41 327 88 388 c 0,8,9
 135 448 135 448 219 448 c 0,10,11
 271 448 271 448 317 424 c 1,12,-1
 317 363 l 1,13,14
 271 400 271 400 219 400 c 0,15,16
 103 400 103 400 103 220 c 256,17,18
 103 40 103 40 219 40 c 0,19,20
 272 40 272 40 317 77 c 1,21,-1
 317 16 l 1,22,-1
 317 16 l 1,0,1
EndSplineSet
EndChar
StartChar: D
Encoding: 68 68 39
Width: 364
Flags: W
Fore
129 49 m 1,0,1
 204 49 204 49 234 86 c 0,2,3
 263 124 263 124 263 220 c 0,4,5
 263 317 263 317 234 354 c 0,6,7
 204 391 204 391 129 391 c 2,8,-1
 100 391 l 1,9,-1
 100 49 l 1,10,-1
 129 49 l 1,11,-1
 129 49 l 1,0,1
130 440 m 1,12,13
 231 440 231 440 278.5 387 c 128,-1,14
 326 334 326 334 326 220 c 0,15,16
 326 107 326 107 278 53 c 0,17,18
 231 0 231 0 130 0 c 2,19,-1
 40 0 l 1,20,-1
 40 440 l 1,21,-1
 130 440 l 1,22,-1
 130 440 l 1,12,13
EndSplineSet
EndChar
StartChar: E
Encoding: 69 69 40
Width: 364
Flags: W
Fore
319 440 m 1,0,-1
 319 390 l 1,1,-1
 118 390 l 1,2,-1
 118 260 l 1,3,-1
 311 260 l 1,4,-1
 311 210 l 1,5,-1
 118 210 l 1,6,-1
 118 50 l 1,7,-1
 325 50 l 1,8,-1
 325 0 l 1,9,-1
 58 0 l 1,10,-1
 58 440 l 1,11,-1
 319 440 l 1,0,-1
EndSplineSet
EndChar
StartChar: F
Encoding: 70 70 41
Width: 364
Flags: W
Fore
328 440 m 1,0,-1
 328 390 l 1,1,-1
 129 390 l 1,2,-1
 129 260 l 1,3,-1
 309 260 l 1,4,-1
 309 210 l 1,5,-1
 129 210 l 1,6,-1
 129 0 l 1,7,-1
 69 0 l 1,8,-1
 69 440 l 1,9,-1
 328 440 l 1,0,-1
EndSplineSet
EndChar
StartChar: G
Encoding: 71 71 42
Width: 364
Flags: W
Fore
326 36 m 1,0,1
 276 -9 276 -9 207 -9 c 0,2,3
 125 -9 125 -9 77 51 c 0,4,5
 30 112 30 112 30 220 c 0,6,7
 30 327 30 327 77 388 c 0,8,9
 125 448 125 448 209 448 c 0,10,11
 264 448 264 448 311 417 c 1,12,-1
 311 356 l 1,13,14
 264 400 264 400 209 400 c 0,15,16
 92 400 92 400 92 220 c 0,17,18
 92 127 92 127 120 83.5 c 128,-1,19
 148 40 148 40 207 40 c 0,20,21
 246 40 246 40 269 59 c 1,22,-1
 269 177 l 1,23,-1
 205 177 l 1,24,-1
 205 226 l 1,25,-1
 326 226 l 1,26,-1
 326 36 l 1,27,-1
 326 36 l 1,0,1
EndSplineSet
EndChar
StartChar: H
Encoding: 72 72 43
Width: 364
Flags: W
Fore
100 440 m 1,0,-1
 100 260 l 1,1,-1
 263 260 l 1,2,-1
 263 440 l 1,3,-1
 323 440 l 1,4,-1
 323 0 l 1,5,-1
 263 0 l 1,6,-1
 263 210 l 1,7,-1
 100 210 l 1,8,-1
 100 0 l 1,9,-1
 40 0 l 1,10,-1
 40 440 l 1,11,-1
 100 440 l 1,0,-1
EndSplineSet
EndChar
StartChar: I
Encoding: 73 73 44
Width: 364
Flags: W
Fore
304 440 m 1,0,-1
 304 390 l 1,1,-1
 212 390 l 1,2,-1
 212 50 l 1,3,-1
 304 50 l 1,4,-1
 304 0 l 1,5,-1
 59 0 l 1,6,-1
 59 50 l 1,7,-1
 152 50 l 1,8,-1
 152 390 l 1,9,-1
 59 390 l 1,10,-1
 59 440 l 1,11,-1
 304 440 l 1,0,-1
EndSplineSet
EndChar
StartChar: J
Encoding: 74 74 45
Width: 364
Flags: W
Fore
32 88 m 1,0,1
 86 40 86 40 147 40 c 0,2,3
 190 40 190 40 206 62 c 0,4,5
 222 82 222 82 222 144 c 2,6,-1
 222 390 l 1,7,-1
 110 390 l 1,8,-1
 110 440 l 1,9,-1
 282 440 l 1,10,-1
 282 144 l 2,11,12
 282 60 282 60 251 26 c 0,13,14
 219 -9 219 -9 147 -9 c 0,15,16
 118 -9 118 -9 90.5 -2.5 c 128,-1,17
 63 4 63 4 32 18 c 1,18,-1
 32 88 l 1,0,1
EndSplineSet
EndChar
StartChar: K
Encoding: 75 75 46
Width: 364
Flags: W
Fore
100 440 m 1,0,-1
 100 245 l 1,1,-1
 286 440 l 1,2,-1
 356 440 l 1,3,-1
 185 260 l 1,4,-1
 361 0 l 1,5,-1
 289 0 l 1,6,-1
 146 221 l 1,7,-1
 100 172 l 1,8,-1
 100 0 l 1,9,-1
 40 0 l 1,10,-1
 40 440 l 1,11,-1
 100 440 l 1,0,-1
EndSplineSet
EndChar
StartChar: L
Encoding: 76 76 47
Width: 364
Flags: W
Fore
123 440 m 1,0,-1
 123 50 l 1,1,-1
 336 50 l 1,2,-1
 336 0 l 1,3,-1
 63 0 l 1,4,-1
 63 440 l 1,5,-1
 123 440 l 1,0,-1
EndSplineSet
EndChar
StartChar: M
Encoding: 77 77 48
Width: 364
Flags: W
Fore
105 440 m 1,0,-1
 181 216 l 1,1,-1
 258 440 l 1,2,-1
 338 440 l 1,3,-1
 338 0 l 1,4,-1
 283 0 l 1,5,-1
 283 389 l 1,6,-1
 204 157 l 1,7,-1
 159 157 l 1,8,-1
 80 389 l 1,9,-1
 80 0 l 1,10,-1
 25 0 l 1,11,-1
 25 440 l 1,12,-1
 105 440 l 1,0,-1
EndSplineSet
EndChar
StartChar: N
Encoding: 78 78 49
Width: 364
Flags: W
Fore
117 440 m 1,0,-1
 265 78 l 1,1,-1
 265 440 l 1,2,-1
 323 440 l 1,3,-1
 323 0 l 1,4,-1
 247 0 l 1,5,-1
 99 363 l 1,6,-1
 99 0 l 1,7,-1
 41 0 l 1,8,-1
 41 440 l 1,9,-1
 117 440 l 1,0,-1
EndSplineSet
EndChar
StartChar: O
Encoding: 79 79 50
Width: 364
Flags: W
Fore
267 220 m 256,0,1
 267 316 267 316 247 358 c 0,2,3
 228 400 228 400 182 400 c 0,4,5
 137 400 137 400 117 358 c 0,6,7
 106 338 106 338 101.5 303 c 128,-1,8
 97 268 97 268 97 220 c 0,9,10
 97 121 97 121 117 81 c 0,11,12
 137 40 137 40 182 40 c 256,13,14
 227 40 227 40 247 81 c 0,15,16
 267 124 267 124 267 220 c 256,0,1
329 220 m 0,17,18
 329 -9 329 -9 182 -9 c 0,19,20
 107 -9 107 -9 71 47 c 128,-1,21
 35 103 35 103 35 220 c 0,22,23
 35 448 35 448 182 448 c 256,24,25
 329 448 329 448 329 220 c 0,17,18
EndSplineSet
EndChar
StartChar: P
Encoding: 80 80 51
Width: 364
Flags: W
Fore
118 226 m 1,0,-1
 187 226 l 2,1,2
 229 226 229 226 251.5 248 c 128,-1,3
 274 270 274 270 274 309 c 256,4,5
 274 348 274 348 251.5 369.5 c 128,-1,6
 229 391 229 391 187 391 c 2,7,-1
 118 391 l 1,8,-1
 118 226 l 1,0,-1
187 440 m 2,9,10
 261 440 261 440 299 407 c 128,-1,11
 337 374 337 374 337 309 c 0,12,13
 337 177 337 177 187 177 c 2,14,-1
 118 177 l 1,15,-1
 118 0 l 1,16,-1
 58 0 l 1,17,-1
 58 440 l 1,18,-1
 187 440 l 2,9,10
EndSplineSet
EndChar
StartChar: Q
Encoding: 81 81 52
Width: 364
Flags: W
Fore
193 -8 m 1,0,1
 191 -8 191 -8 187 -8.5 c 128,-1,2
 183 -9 183 -9 181 -9 c 0,3,4
 35 -9 35 -9 35 220 c 0,5,6
 35 448 35 448 182 448 c 256,7,8
 329 448 329 448 329 220 c 0,9,10
 329 48 329 48 248 6 c 1,11,-1
 307 -50 l 1,12,-1
 262 -80 l 1,13,-1
 193 -8 l 1,14,-1
 193 -8 l 1,0,1
267 220 m 256,15,16
 267 316 267 316 247 358 c 0,17,18
 228 400 228 400 182 400 c 0,19,20
 137 400 137 400 117 358 c 0,21,22
 106 338 106 338 101.5 303 c 128,-1,23
 97 268 97 268 97 220 c 0,24,25
 97 121 97 121 117 81 c 0,26,27
 137 40 137 40 182 40 c 256,28,29
 227 40 227 40 247 81 c 0,30,31
 267 124 267 124 267 220 c 256,15,16
EndSplineSet
EndChar
StartChar: R
Encoding: 82 82 53
Width: 364
Flags: W
Fore
224 208 m 1,0,1
 247 202 247 202 263 186 c 0,2,3
 280 169 280 169 304 120 c 2,4,-1
 364 0 l 1,5,-1
 300 0 l 1,6,-1
 247 111 l 2,7,8
 225 158 225 158 206 172 c 256,9,10
 187 186 187 186 159 186 c 2,11,-1
 102 186 l 1,12,-1
 102 0 l 1,13,-1
 42 0 l 1,14,-1
 42 440 l 1,15,-1
 165 440 l 2,16,17
 238 440 238 440 276.5 408 c 128,-1,18
 315 376 315 376 315 313 c 0,19,20
 315 269 315 269 291.5 241.5 c 128,-1,21
 268 214 268 214 224 208 c 1,0,1
102 235 m 1,22,-1
 167 235 l 2,23,24
 252 235 252 235 252 313 c 256,25,26
 252 391 252 391 165 391 c 2,27,-1
 102 391 l 1,28,-1
 102 235 l 1,22,-1
EndSplineSet
EndChar
StartChar: S
Encoding: 83 83 54
Width: 364
Flags: W
Fore
299 365 m 1,0,1
 243 400 243 400 189 400 c 0,2,3
 146 400 146 400 122 380 c 0,4,5
 98 361 98 361 98 327 c 0,6,7
 98 298 98 298 114 283 c 0,8,9
 131 267 131 267 174 257 c 2,10,-1
 205 250 l 2,11,12
 268 236 268 236 296 205 c 128,-1,13
 324 174 324 174 324 120 c 0,14,15
 324 57 324 57 285.5 24 c 128,-1,16
 247 -9 247 -9 172 -9 c 0,17,18
 110 -9 110 -9 47 18 c 1,19,-1
 47 81 l 1,20,21
 113 40 113 40 172 40 c 0,22,23
 217 40 217 40 242 60 c 128,-1,24
 267 80 267 80 267 117 c 0,25,26
 267 148 267 148 250 167 c 0,27,28
 230 185 230 185 190 194 c 2,29,-1
 158 201 l 2,30,31
 96 215 96 215 69 243 c 0,32,33
 41 271 41 271 41 318 c 0,34,35
 41 377 41 377 81 413 c 0,36,37
 119 448 119 448 186 448 c 0,38,39
 212 448 212 448 239.5 442.5 c 128,-1,40
 267 437 267 437 299 425 c 1,41,-1
 299 365 l 1,0,1
EndSplineSet
EndChar
StartChar: T
Encoding: 84 84 55
Width: 364
Flags: W
Fore
350 440 m 1,0,-1
 350 390 l 1,1,-1
 212 390 l 1,2,-1
 212 0 l 1,3,-1
 152 0 l 1,4,-1
 152 390 l 1,5,-1
 14 390 l 1,6,-1
 14 440 l 1,7,-1
 350 440 l 1,0,-1
EndSplineSet
EndChar
StartChar: U
Encoding: 85 85 56
Width: 364
Flags: W
Fore
43 440 m 1,0,-1
 103 440 l 1,1,-1
 103 142 l 2,2,3
 103 125 103 125 103.5 114 c 128,-1,4
 104 103 104 103 105 96 c 0,5,6
 107 83 107 83 111 75 c 0,7,8
 131 40 131 40 182 40 c 256,9,10
 233 40 233 40 253 75 c 0,11,12
 255 79 255 79 256.5 84 c 128,-1,13
 258 89 258 89 259 96 c 256,14,15
 260 103 260 103 260 114 c 128,-1,16
 260 125 260 125 260 141 c 2,17,-1
 260 169 l 1,18,-1
 260 440 l 1,19,-1
 320 440 l 1,20,-1
 320 169 l 2,21,22
 320 103 320 103 312 73 c 0,23,24
 303 44 303 44 283 26 c 0,25,26
 243 -9 243 -9 182 -9 c 256,27,28
 121 -9 121 -9 81 26 c 0,29,30
 62 43 62 43 52 73 c 0,31,32
 43 103 43 103 43 169 c 2,33,-1
 43 440 l 1,0,-1
EndSplineSet
EndChar
StartChar: V
Encoding: 86 86 57
Width: 364
Flags: W
Fore
285 440 m 1,0,-1
 347 440 l 1,1,-1
 218 0 l 1,2,-1
 146 0 l 1,3,-1
 17 440 l 1,4,-1
 78 440 l 1,5,-1
 182 50 l 1,6,-1
 285 440 l 1,0,-1
EndSplineSet
KernsSLIFO: 36 -50 0 0
EndChar
StartChar: W
Encoding: 87 87 58
Width: 364
Flags: W
Fore
58 440 m 1,0,-1
 100 83 l 1,1,-1
 150 319 l 1,2,-1
 213 319 l 1,3,-1
 263 82 l 1,4,-1
 306 440 l 1,5,-1
 364 440 l 1,6,-1
 298 0 l 1,7,-1
 242 0 l 1,8,-1
 182 262 l 1,9,-1
 122 0 l 1,10,-1
 66 0 l 1,11,-1
 0 440 l 1,12,-1
 58 440 l 1,0,-1
EndSplineSet
EndChar
StartChar: X
Encoding: 88 88 59
Width: 364
Flags: W
Fore
89 440 m 1,0,-1
 186 274 l 1,1,-1
 285 440 l 1,2,-1
 349 440 l 1,3,-1
 217 233 l 1,4,-1
 358 0 l 1,5,-1
 294 0 l 1,6,-1
 186 190 l 1,7,-1
 70 0 l 1,8,-1
 5 0 l 1,9,-1
 153 233 l 1,10,-1
 25 440 l 1,11,-1
 89 440 l 1,0,-1
EndSplineSet
EndChar
StartChar: Y
Encoding: 89 89 60
Width: 364
Flags: W
Fore
74 440 m 1,0,-1
 182 246 l 1,1,-1
 289 440 l 1,2,-1
 353 440 l 1,3,-1
 212 198 l 1,4,-1
 212 0 l 1,5,-1
 152 0 l 1,6,-1
 152 198 l 1,7,-1
 11 440 l 1,8,-1
 74 440 l 1,0,-1
EndSplineSet
EndChar
StartChar: Z
Encoding: 90 90 61
Width: 364
Flags: W
Fore
338 440 m 1,0,-1
 338 395 l 1,1,-1
 108 50 l 1,2,-1
 345 50 l 1,3,-1
 345 0 l 1,4,-1
 46 0 l 1,5,-1
 46 45 l 1,6,-1
 270 390 l 1,7,-1
 53 390 l 1,8,-1
 53 440 l 1,9,-1
 338 440 l 1,0,-1
EndSplineSet
EndChar
StartChar: bracketleft
Encoding: 91 91 62
Width: 364
Flags: W
Fore
262 459 m 1,0,-1
 262 417 l 1,1,-1
 191 417 l 1,2,-1
 191 -37 l 1,3,-1
 262 -37 l 1,4,-1
 262 -80 l 1,5,-1
 137 -80 l 1,6,-1
 137 459 l 1,7,-1
 262 459 l 1,0,-1
EndSplineSet
EndChar
StartChar: backslash
Encoding: 92 92 63
Width: 364
Flags: W
Fore
318 -56 m 1,0,-1
 262 -56 l 1,1,-1
 30 440 l 1,2,-1
 86 440 l 1,3,-1
 318 -56 l 1,0,-1
EndSplineSet
EndChar
StartChar: bracketright
Encoding: 93 93 64
Width: 364
Flags: W
Fore
227 -80 m 1,0,-1
 102 -80 l 1,1,-1
 102 -37 l 1,2,-1
 173 -37 l 1,3,-1
 173 417 l 1,4,-1
 102 417 l 1,5,-1
 102 459 l 1,6,-1
 227 459 l 1,7,-1
 227 -80 l 1,0,-1
EndSplineSet
EndChar
StartChar: asciicircum
Encoding: 94 94 65
Width: 364
Flags: W
Fore
342 276 m 1,0,-1
 290 276 l 1,1,-1
 182 393 l 1,2,-1
 74 276 l 1,3,-1
 21 276 l 1,4,-1
 156 440 l 1,5,-1
 208 440 l 1,6,-1
 342 276 l 1,0,-1
EndSplineSet
EndChar
StartChar: underscore
Encoding: 95 95 66
Width: 364
Flags: W
Fore
302 -142 m 1,0,-1
 0 -142 l 1,1,-1
 0 -119 l 1,2,-1
 302 -119 l 1,3,-1
 302 -142 l 1,0,-1
EndSplineSet
EndChar
StartChar: grave
Encoding: 96 96 67
Width: 364
Flags: W
Fore
224 372 m 1,0,-1
 178 372 l 1,1,-1
 82 483 l 1,2,-1
 141 483 l 1,3,-1
 224 372 l 1,0,-1
EndSplineSet
EndChar
StartChar: a
Encoding: 97 97 68
Width: 364
Flags: W
Fore
189 166 m 2,0,1
 94 166 94 166 94 100 c 0,2,3
 94 70 94 70 111.5 53.5 c 128,-1,4
 129 37 129 37 161 37 c 0,5,6
 207 37 207 37 232 68 c 0,7,8
 258 100 258 100 258 154 c 2,9,-1
 258 166 l 1,10,-1
 207 166 l 1,11,-1
 189 166 l 2,0,1
312 0 m 1,12,-1
 258 0 l 1,13,-1
 258 49 l 1,14,15
 224 -9 224 -9 150 -9 c 0,16,17
 100 -9 100 -9 69 20 c 0,18,19
 39 49 39 49 39 96 c 0,20,21
 39 209 39 209 185 209 c 2,22,-1
 258 209 l 1,23,-1
 258 217 l 2,24,25
 258 257 258 257 238 274.5 c 128,-1,26
 218 292 218 292 175 292 c 0,27,28
 119 292 119 292 63 261 c 1,29,-1
 63 315 l 1,30,31
 122 338 122 338 175 338 c 0,32,33
 256 338 256 338 292 290 c 0,34,35
 302 276 302 276 308 253 c 0,36,37
 310 242 310 242 311 226 c 128,-1,38
 312 210 312 210 312 189 c 2,39,-1
 312 0 l 1,12,-1
EndSplineSet
Substitution: 0 65534 'L019' uni0E38
Substitution: 0 65534 'L019' uni0E38
EndChar
StartChar: b
Encoding: 98 98 69
Width: 364
Flags: W
Fore
271 165 m 0,0,1
 271 292 271 292 191 292 c 256,2,3
 111 292 111 292 111 165 c 0,4,5
 111 37 111 37 191 37 c 256,6,7
 271 37 271 37 271 165 c 0,0,1
111 288 m 1,8,9
 139 338 139 338 200 338 c 0,10,11
 260 338 260 338 294 292 c 0,12,13
 328 248 328 248 328 166 c 256,14,15
 328 84 328 84 294 38 c 0,16,17
 259 -9 259 -9 199 -9 c 256,18,19
 139 -9 139 -9 111 42 c 1,20,-1
 111 0 l 1,21,-1
 57 0 l 1,22,-1
 57 459 l 1,23,-1
 111 459 l 1,24,-1
 111 288 l 1,25,-1
 111 288 l 1,8,9
EndSplineSet
Substitution: 0 65534 'L019' uni0E39
Substitution: 0 65534 'L019' uni0E39
EndChar
StartChar: c
Encoding: 99 99 70
Width: 364
Flags: W
Fore
313 17 m 1,0,1
 269 -9 269 -9 221 -9 c 0,2,3
 145 -9 145 -9 101 37 c 0,4,5
 58 83 58 83 58 165 c 0,6,7
 58 248 58 248 101 292 c 0,8,9
 144 338 144 338 221 338 c 0,10,11
 267 338 267 338 313 313 c 1,12,-1
 313 256 l 1,13,14
 291 276 291 276 269.5 284 c 128,-1,15
 248 292 248 292 221 292 c 0,16,17
 170 292 170 292 142.5 259.5 c 128,-1,18
 115 227 115 227 115 165 c 256,19,20
 115 103 115 103 142.5 70 c 128,-1,21
 170 37 170 37 221 37 c 0,22,23
 274 37 274 37 313 73 c 1,24,-1
 313 17 l 1,25,-1
 313 17 l 1,0,1
EndSplineSet
Substitution: 0 65534 'L019' uni0E3A
Substitution: 0 65534 'L019' uni0E3A
EndChar
StartChar: d
Encoding: 100 100 71
Width: 364
Flags: W
Fore
253 459 m 1,0,-1
 307 459 l 1,1,-1
 307 0 l 1,2,-1
 253 0 l 1,3,-1
 253 42 l 1,4,5
 225 -9 225 -9 165 -9 c 0,6,7
 106 -9 106 -9 71 38 c 256,8,9
 36 85 36 85 36 166 c 0,10,11
 36 246 36 246 71 292 c 0,12,13
 105 338 105 338 165 338 c 0,14,15
 227 338 227 338 253 288 c 1,16,-1
 253 459 l 1,0,-1
94 165 m 0,17,18
 94 37 94 37 173 37 c 0,19,20
 253 37 253 37 253 165 c 0,21,22
 253 292 253 292 173 292 c 0,23,24
 94 292 94 292 94 165 c 0,17,18
EndSplineSet
EndChar
StartChar: e
Encoding: 101 101 72
Width: 364
Flags: W
Fore
328 152 m 1,0,-1
 93 152 l 1,1,-1
 93 150 l 2,2,3
 93 96 93 96 121 66.5 c 128,-1,4
 149 37 149 37 201 37 c 256,5,6
 253 37 253 37 315 71 c 1,7,-1
 315 17 l 1,8,9
 252 -9 252 -9 200 -9 c 0,10,11
 124 -9 124 -9 80 37 c 0,12,13
 36 84 36 84 36 165 c 0,14,15
 36 245 36 245 79 291 c 0,16,17
 120 338 120 338 192 338 c 0,18,19
 255 338 255 338 291 296 c 0,20,21
 328 253 328 253 328 179 c 2,22,-1
 328 152 l 1,0,-1
274 195 m 1,23,24
 271 292 271 292 190 292 c 0,25,26
 150 292 150 292 125 266 c 0,27,28
 100 241 100 241 95 194 c 1,29,-1
 274 195 l 1,30,-1
 274 195 l 1,23,24
EndSplineSet
EndChar
StartChar: f
Encoding: 102 102 73
Width: 364
Flags: W
Fore
314 414 m 1,0,-1
 252 414 l 2,1,2
 223 414 223 414 211 402 c 0,3,4
 200 389 200 389 200 360 c 2,5,-1
 200 330 l 1,6,-1
 314 330 l 1,7,-1
 314 288 l 1,8,-1
 200 288 l 1,9,-1
 200 0 l 1,10,-1
 146 0 l 1,11,-1
 146 288 l 1,12,-1
 58 288 l 1,13,-1
 58 330 l 1,14,-1
 146 330 l 1,15,-1
 146 353 l 2,16,17
 146 408 146 408 170.5 433.5 c 128,-1,18
 195 459 195 459 248 459 c 2,19,-1
 314 459 l 1,20,-1
 314 414 l 1,0,-1
EndSplineSet
EndChar
StartChar: g
Encoding: 103 103 74
Width: 364
Flags: W
Fore
253 168 m 0,0,1
 253 292 253 292 175 292 c 0,2,3
 94 292 94 292 94 168 c 0,4,5
 94 43 94 43 176 43 c 0,6,7
 214 43 214 43 233.5 75 c 128,-1,8
 253 107 253 107 253 168 c 0,0,1
307 21 m 1,9,10
 307 -130 307 -130 169 -130 c 0,11,12
 146 -130 146 -130 122 -126 c 128,-1,13
 98 -122 98 -122 73 -114 c 1,14,-1
 73 -60 l 1,15,16
 129 -86 129 -86 169 -86 c 0,17,18
 214 -86 214 -86 233.5 -62.5 c 128,-1,19
 253 -39 253 -39 253 13 c 2,20,-1
 253 16 l 1,21,-1
 253 53 l 1,22,23
 228 -2 228 -2 163 -2 c 0,24,25
 105 -2 105 -2 71 44 c 0,26,27
 36 91 36 91 36 168 c 256,28,29
 36 245 36 245 71 292 c 0,30,31
 105 338 105 338 163 338 c 0,32,33
 227 338 227 338 253 286 c 1,34,-1
 253 329 l 1,35,-1
 307 329 l 1,36,-1
 307 21 l 1,37,-1
 307 21 l 1,9,10
EndSplineSet
EndChar
StartChar: h
Encoding: 104 104 75
Width: 364
Flags: W
Fore
310 0 m 1,0,-1
 255 0 l 1,1,-1
 255 205 l 2,2,3
 255 291 255 291 191 291 c 0,4,5
 153 291 153 291 132.5 264.5 c 128,-1,6
 112 238 112 238 112 187 c 2,7,-1
 112 0 l 1,8,-1
 58 0 l 1,9,-1
 58 459 l 1,10,-1
 112 459 l 1,11,-1
 112 281 l 1,12,13
 141 338 141 338 210 338 c 0,14,15
 310 338 310 338 310 205 c 2,16,-1
 310 0 l 1,0,-1
EndSplineSet
EndChar
StartChar: i
Encoding: 105 105 76
Width: 364
Flags: W
Fore
214 330 m 1,0,-1
 214 42 l 1,1,-1
 322 42 l 1,2,-1
 322 0 l 1,3,-1
 53 0 l 1,4,-1
 53 42 l 1,5,-1
 160 42 l 1,6,-1
 160 288 l 1,7,-1
 76 288 l 1,8,-1
 76 330 l 1,9,-1
 214 330 l 1,0,-1
214 459 m 1,10,-1
 214 390 l 1,11,-1
 160 390 l 1,12,-1
 160 459 l 1,13,-1
 214 459 l 1,10,-1
EndSplineSet
EndChar
StartChar: j
Encoding: 106 106 77
Width: 364
Flags: W
Fore
177 288 m 1,0,-1
 83 288 l 1,1,-1
 83 330 l 1,2,-1
 231 330 l 1,3,-1
 231 -6 l 2,4,5
 231 -64 231 -64 205 -95 c 128,-1,6
 179 -126 179 -126 130 -126 c 2,7,-1
 55 -126 l 1,8,-1
 55 -80 l 1,9,-1
 124 -80 l 2,10,11
 177 -80 177 -80 177 -6 c 2,12,-1
 177 288 l 1,0,-1
231 459 m 1,13,-1
 231 390 l 1,14,-1
 177 390 l 1,15,-1
 177 459 l 1,16,-1
 231 459 l 1,13,-1
EndSplineSet
EndChar
StartChar: k
Encoding: 107 107 78
Width: 364
Flags: W
Fore
126 459 m 1,0,-1
 126 193 l 1,1,-1
 268 330 l 1,2,-1
 334 330 l 1,3,-1
 204 206 l 1,4,-1
 355 0 l 1,5,-1
 288 0 l 1,6,-1
 166 171 l 1,7,-1
 126 132 l 1,8,-1
 126 0 l 1,9,-1
 70 0 l 1,10,-1
 70 459 l 1,11,-1
 126 459 l 1,0,-1
EndSplineSet
EndChar
StartChar: l
Encoding: 108 108 79
Width: 364
Flags: W
Fore
189 120 m 1,0,1
 189 46 189 46 242 46 c 2,2,-1
 305 46 l 1,3,-1
 305 0 l 1,4,-1
 236 0 l 2,5,6
 187 0 187 0 160.5 31 c 128,-1,7
 134 62 134 62 134 120 c 2,8,-1
 134 420 l 1,9,-1
 47 420 l 1,10,-1
 47 462 l 1,11,-1
 189 462 l 1,12,-1
 189 120 l 1,13,-1
 189 120 l 1,0,1
EndSplineSet
EndChar
StartChar: m
Encoding: 109 109 80
Width: 364
Flags: W
Fore
199 297 m 1,0,1
 220 338 220 338 262 338 c 0,2,3
 302 338 302 338 318 307 c 0,4,5
 335 276 335 276 335 191 c 2,6,-1
 335 0 l 1,7,-1
 285 0 l 1,8,-1
 285 189 l 2,9,10
 285 261 285 261 277 276 c 0,11,12
 269 293 269 293 249 293 c 0,13,14
 225 293 225 293 217 275 c 0,15,16
 208 257 208 257 208 189 c 2,17,-1
 208 0 l 1,18,-1
 158 0 l 1,19,-1
 158 189 l 2,20,21
 158 260 158 260 150 276 c 0,22,23
 141 293 141 293 120 293 c 0,24,25
 98 293 98 293 90 275 c 0,26,27
 81 257 81 257 81 189 c 2,28,-1
 81 0 l 1,29,-1
 32 0 l 1,30,-1
 32 330 l 1,31,-1
 81 330 l 1,32,-1
 81 302 l 1,33,34
 101 338 101 338 139 338 c 0,35,36
 184 338 184 338 199 297 c 1,0,1
EndSplineSet
EndChar
StartChar: n
Encoding: 110 110 81
Width: 364
Flags: W
Fore
310 0 m 1,0,-1
 255 0 l 1,1,-1
 255 205 l 2,2,3
 255 291 255 291 191 291 c 0,4,5
 153 291 153 291 132.5 264.5 c 128,-1,6
 112 238 112 238 112 187 c 2,7,-1
 112 0 l 1,8,-1
 58 0 l 1,9,-1
 58 330 l 1,10,-1
 112 330 l 1,11,-1
 112 281 l 1,12,13
 141 338 141 338 210 338 c 0,14,15
 310 338 310 338 310 205 c 2,16,-1
 310 0 l 1,0,-1
EndSplineSet
EndChar
StartChar: o
Encoding: 111 111 82
Width: 364
Flags: W
Fore
182 292 m 256,0,1
 98 292 98 292 98 165 c 0,2,3
 98 37 98 37 182 37 c 256,4,5
 266 37 266 37 266 165 c 0,6,7
 266 292 266 292 182 292 c 256,0,1
182 338 m 256,8,9
 251 338 251 338 287 294 c 128,-1,10
 323 250 323 250 323 165 c 256,11,12
 323 80 323 80 287 35.5 c 128,-1,13
 251 -9 251 -9 182 -9 c 256,14,15
 113 -9 113 -9 76.5 35.5 c 128,-1,16
 40 80 40 80 40 165 c 256,17,18
 40 250 40 250 76.5 294 c 128,-1,19
 113 338 113 338 182 338 c 256,8,9
EndSplineSet
EndChar
StartChar: p
Encoding: 112 112 83
Width: 364
Flags: W
Fore
111 -126 m 1,0,-1
 56 -126 l 1,1,-1
 56 330 l 1,2,-1
 111 330 l 1,3,-1
 111 288 l 1,4,5
 138 338 138 338 199 338 c 0,6,7
 259 338 259 338 293 292 c 0,8,9
 327 244 327 244 327 164 c 0,10,11
 327 85 327 85 293 37 c 0,12,13
 258 -9 258 -9 199 -9 c 0,14,15
 137 -9 137 -9 111 42 c 1,16,-1
 111 -126 l 1,0,-1
270 165 m 0,17,18
 270 292 270 292 191 292 c 0,19,20
 111 292 111 292 111 165 c 0,21,22
 111 37 111 37 191 37 c 0,23,24
 270 37 270 37 270 165 c 0,17,18
EndSplineSet
EndChar
StartChar: q
Encoding: 113 113 84
Width: 364
Flags: W
Fore
98 164 m 0,0,1
 98 36 98 36 177 36 c 0,2,3
 257 36 257 36 257 164 c 0,4,5
 257 291 257 291 177 291 c 0,6,7
 98 291 98 291 98 164 c 0,0,1
257 41 m 1,8,9
 229 -10 229 -10 168 -10 c 0,10,11
 110 -10 110 -10 75 36 c 0,12,13
 40 83 40 83 40 163 c 0,14,15
 40 244 40 244 75 291 c 0,16,17
 108 337 108 337 168 337 c 0,18,19
 230 337 230 337 257 287 c 1,20,-1
 257 329 l 1,21,-1
 311 329 l 1,22,-1
 311 -127 l 1,23,-1
 257 -127 l 1,24,-1
 257 41 l 1,25,-1
 257 41 l 1,8,9
EndSplineSet
EndChar
StartChar: r
Encoding: 114 114 85
Width: 364
Flags: W
Fore
341 262 m 1,0,1
 306 288 306 288 266 288 c 0,2,3
 215 288 215 288 188 256.5 c 128,-1,4
 161 225 161 225 161 164 c 2,5,-1
 161 0 l 1,6,-1
 107 0 l 1,7,-1
 107 330 l 1,8,-1
 161 330 l 1,9,-1
 161 266 l 1,10,11
 175 301 175 301 203 319.5 c 128,-1,12
 231 338 231 338 270 338 c 0,13,14
 310 338 310 338 341 318 c 1,15,-1
 341 262 l 1,16,-1
 341 262 l 1,0,1
EndSplineSet
EndChar
StartChar: s
Encoding: 115 115 86
Width: 364
Flags: W
Fore
287 266 m 1,0,1
 241 293 241 293 192 293 c 0,2,3
 119 293 119 293 119 245 c 0,4,5
 119 222 119 222 132 212 c 0,6,7
 146 200 146 200 200 190 c 2,8,-1
 222 186 l 2,9,10
 304 171 304 171 304 96 c 0,11,12
 304 46 304 46 269 19 c 0,13,14
 233 -9 233 -9 172 -9 c 0,15,16
 125 -9 125 -9 63 12 c 1,17,-1
 63 68 l 1,18,19
 122 37 122 37 173 37 c 0,20,21
 249 37 249 37 249 92 c 0,22,23
 249 130 249 130 177 145 c 1,24,-1
 174 145 l 1,25,-1
 154 149 l 2,26,27
 106 158 106 158 85 179.5 c 128,-1,28
 64 201 64 201 64 239 c 0,29,30
 64 287 64 287 96 312.5 c 128,-1,31
 128 338 128 338 188 338 c 0,32,33
 240 338 240 338 287 319 c 1,34,-1
 287 266 l 1,0,1
EndSplineSet
EndChar
StartChar: t
Encoding: 116 116 87
Width: 364
Flags: W
Fore
181 330 m 1,0,-1
 304 330 l 1,1,-1
 304 288 l 1,2,-1
 181 288 l 1,3,-1
 181 109 l 2,4,5
 181 74 181 74 195 58 c 0,6,7
 209 43 209 43 243 43 c 2,8,-1
 304 43 l 1,9,-1
 304 0 l 1,10,-1
 238 0 l 2,11,12
 178 0 178 0 152 24 c 0,13,14
 127 49 127 49 127 109 c 2,15,-1
 127 288 l 1,16,-1
 39 288 l 1,17,-1
 39 330 l 1,18,-1
 127 330 l 1,19,-1
 127 424 l 1,20,-1
 181 424 l 1,21,-1
 181 330 l 1,0,-1
EndSplineSet
EndChar
StartChar: u
Encoding: 117 117 88
Width: 364
Flags: W
Fore
58 330 m 1,0,-1
 112 330 l 1,1,-1
 112 125 l 2,2,3
 112 39 112 39 176 39 c 0,4,5
 214 39 214 39 234.5 65.5 c 128,-1,6
 255 92 255 92 255 143 c 2,7,-1
 255 330 l 1,8,-1
 310 330 l 1,9,-1
 310 0 l 1,10,-1
 255 0 l 1,11,-1
 255 50 l 1,12,13
 226 -9 226 -9 158 -9 c 0,14,15
 58 -9 58 -9 58 125 c 2,16,-1
 58 330 l 1,0,-1
EndSplineSet
EndChar
StartChar: v
Encoding: 118 118 89
Width: 364
Flags: W
Fore
86 330 m 1,0,-1
 182 53 l 1,1,-1
 278 330 l 1,2,-1
 334 330 l 1,3,-1
 217 0 l 1,4,-1
 147 0 l 1,5,-1
 30 330 l 1,6,-1
 86 330 l 1,0,-1
EndSplineSet
EndChar
StartChar: w
Encoding: 119 119 90
Width: 364
Flags: W
Fore
54 330 m 1,0,-1
 111 63 l 1,1,-1
 158 234 l 1,2,-1
 205 234 l 1,3,-1
 253 63 l 1,4,-1
 310 330 l 1,5,-1
 364 330 l 1,6,-1
 286 0 l 1,7,-1
 235 0 l 1,8,-1
 182 181 l 1,9,-1
 129 0 l 1,10,-1
 77 0 l 1,11,-1
 0 330 l 1,12,-1
 54 330 l 1,0,-1
EndSplineSet
EndChar
StartChar: x
Encoding: 120 120 91
Width: 364
Flags: W
Fore
212 172 m 1,0,-1
 341 0 l 1,1,-1
 278 0 l 1,2,-1
 182 132 l 1,3,-1
 85 0 l 1,4,-1
 22 0 l 1,5,-1
 152 172 l 1,6,-1
 34 330 l 1,7,-1
 94 330 l 1,8,-1
 182 211 l 1,9,-1
 269 330 l 1,10,-1
 330 330 l 1,11,-1
 212 172 l 1,0,-1
EndSplineSet
EndChar
StartChar: y
Encoding: 121 121 92
Width: 364
Flags: W
Fore
253 106 m 1,0,1
 246 89 246 89 237.5 66.5 c 128,-1,2
 229 44 229 44 219 15 c 0,3,4
 189 -63 189 -63 179 -80 c 0,5,6
 151 -126 151 -126 98 -126 c 2,7,-1
 54 -126 l 1,8,-1
 54 -80 l 1,9,-1
 86 -80 l 2,10,11
 111 -80 111 -80 124 -66 c 0,12,13
 139 -51 139 -51 158 5 c 1,14,-1
 31 330 l 1,15,-1
 88 330 l 1,16,-1
 186 72 l 1,17,-1
 283 330 l 1,18,-1
 340 330 l 1,19,-1
 253 106 l 1,20,-1
 253 106 l 1,0,1
EndSplineSet
EndChar
StartChar: z
Encoding: 122 122 93
Width: 364
Flags: W
Fore
307 331 m 1,0,-1
 307 281 l 1,1,-1
 117 44 l 1,2,-1
 307 44 l 1,3,-1
 307 0 l 1,4,-1
 60 0 l 1,5,-1
 60 50 l 1,6,-1
 250 288 l 1,7,-1
 67 288 l 1,8,-1
 67 331 l 1,9,-1
 307 331 l 1,0,-1
EndSplineSet
EndChar
StartChar: braceleft
Encoding: 123 123 94
Width: 364
Flags: W
Fore
299 -99 m 1,0,-1
 280 -99 l 2,1,2
 208 -99 208 -99 181 -77 c 0,3,4
 156 -54 156 -54 156 10 c 2,5,-1
 156 81 l 2,6,7
 156 126 156 126 140 142 c 0,8,9
 125 160 125 160 83 160 c 2,10,-1
 65 160 l 1,11,-1
 65 202 l 1,12,-1
 83 202 l 2,13,14
 125 202 125 202 141 219 c 0,15,16
 156 236 156 236 156 280 c 2,17,-1
 156 350 l 2,18,19
 156 415 156 415 181 437 c 256,20,21
 206 459 206 459 280 459 c 2,22,-1
 299 459 l 1,23,-1
 299 417 l 1,24,-1
 278 417 l 2,25,26
 237 417 237 417 224 404 c 0,27,28
 212 391 212 391 212 349 c 2,29,-1
 212 276 l 2,30,31
 212 231 212 231 198 209 c 0,32,33
 185 188 185 188 152 181 c 1,34,35
 184 172 184 172 198 152 c 0,36,37
 212 130 212 130 212 85 c 2,38,-1
 212 12 l 2,39,40
 212 -31 212 -31 224 -43 c 0,41,42
 236 -56 236 -56 278 -56 c 2,43,-1
 299 -56 l 1,44,-1
 299 -99 l 1,0,-1
EndSplineSet
EndChar
StartChar: bar
Encoding: 124 124 95
Width: 364
Flags: W
Fore
207 -142 m 1,0,-1
 156 -142 l 1,1,-1
 156 462 l 1,2,-1
 207 462 l 1,3,-1
 207 -142 l 1,0,-1
EndSplineSet
EndChar
StartChar: braceright
Encoding: 125 125 96
Width: 364
Flags: W
Fore
85 -56 m 2,0,1
 127 -56 127 -56 140 -43 c 0,2,3
 152 -31 152 -31 152 12 c 2,4,-1
 152 85 l 2,5,6
 152 129 152 129 165 152 c 0,7,8
 179 172 179 172 212 181 c 1,9,10
 180 188 180 188 165 209 c 0,11,12
 152 232 152 232 152 276 c 2,13,-1
 152 349 l 2,14,15
 152 391 152 391 140 404 c 0,16,17
 125 417 125 417 85 417 c 2,18,-1
 65 417 l 1,19,-1
 65 459 l 1,20,-1
 83 459 l 2,21,22
 157 459 157 459 182 437 c 256,23,24
 207 415 207 415 207 350 c 2,25,-1
 207 280 l 2,26,27
 207 236 207 236 222 219 c 0,28,29
 238 202 238 202 280 202 c 2,30,-1
 299 202 l 1,31,-1
 299 160 l 1,32,-1
 280 160 l 2,33,34
 239 160 239 160 222 142 c 0,35,36
 207 126 207 126 207 81 c 2,37,-1
 207 10 l 2,38,39
 207 -54 207 -54 182 -77 c 0,40,41
 155 -99 155 -99 83 -99 c 2,42,-1
 65 -99 l 1,43,-1
 65 -56 l 1,44,-1
 85 -56 l 2,0,1
EndSplineSet
EndChar
StartChar: asciitilde
Encoding: 126 126 97
Width: 364
Flags: W
Fore
338 179 m 1,0,1
 315 161 315 161 294 153 c 128,-1,2
 273 145 273 145 250 145 c 0,3,4
 223 145 223 145 190 160 c 0,5,6
 187 162 187 162 185 162.5 c 128,-1,7
 183 163 183 163 181 164 c 0,8,9
 169 169 169 169 159.5 172.5 c 128,-1,10
 150 176 150 176 142 178 c 0,11,12
 127 181 127 181 112 181 c 0,13,14
 68 181 68 181 26 145 c 1,15,-1
 26 196 l 1,16,17
 49 214 49 214 70.5 222 c 128,-1,18
 92 230 92 230 117 230 c 0,19,20
 132 230 132 230 147 227 c 0,21,22
 164 224 164 224 183 214 c 1,23,24
 185 214 185 214 193 210 c 0,25,26
 226 194 226 194 255 194 c 0,27,28
 295 194 295 194 338 230 c 1,29,-1
 338 179 l 1,0,1
EndSplineSet
EndChar
StartChar: Aring
Encoding: 197 197 99
Width: 364
Flags: W
Fore
227 480 m 0,0,1
 227 499 227 499 213 511 c 1,2,3
 201 525 201 525 182 525 c 256,4,5
 163 525 163 525 150 512 c 256,6,7
 137 499 137 499 137 480 c 0,8,9
 137 463 137 463 150 448 c 1,10,11
 165 435 165 435 182 435 c 0,12,13
 200 435 200 435 213 448 c 0,14,15
 227 462 227 462 227 480 c 0,0,1
119 163 m 1,16,-1
 245 163 l 1,17,-1
 182 387 l 1,18,-1
 119 163 l 1,16,-1
137 413 m 1,19,20
 120 423 120 423 110.5 440.5 c 128,-1,21
 101 458 101 458 101 480 c 0,22,23
 101 512 101 512 124 537 c 0,24,25
 148 561 148 561 182 561 c 0,26,27
 215 561 215 561 239 537 c 256,28,29
 263 513 263 513 263 480 c 0,30,31
 263 435 263 435 227 413 c 1,32,-1
 353 0 l 1,33,-1
 291 0 l 1,34,-1
 259 115 l 1,35,-1
 104 115 l 1,36,-1
 73 0 l 1,37,-1
 11 0 l 1,38,-1
 137 413 l 1,39,-1
 137 413 l 1,19,20
EndSplineSet
EndChar
StartChar: dagger
Encoding: 8224 8224 130
Width: 364
Flags: W
Fore
208 440 m 1,0,-1
 208 317 l 1,1,-1
 316 317 l 1,2,-1
 316 271 l 1,3,-1
 208 271 l 1,4,-1
 208 -58 l 1,5,-1
 156 -58 l 1,6,-1
 156 271 l 1,7,-1
 48 271 l 1,8,-1
 48 317 l 1,9,-1
 156 317 l 1,10,-1
 156 440 l 1,11,-1
 208 440 l 1,0,-1
EndSplineSet
EndChar
StartChar: degree
Encoding: 176 176 131
Width: 364
Flags: W
Fore
182 448 m 256,0,1
 222 448 222 448 248 420 c 0,2,3
 276 394 276 394 276 354 c 0,4,5
 276 316 276 316 248 288 c 0,6,7
 221 261 221 261 181 261 c 256,8,9
 141 261 141 261 115 288 c 0,10,11
 88 314 88 314 88 354 c 256,12,13
 88 394 88 394 115 421 c 256,14,15
 142 448 142 448 182 448 c 256,0,1
182 410 m 256,16,17
 158 410 158 410 142 394 c 256,18,19
 126 378 126 378 126 354 c 256,20,21
 126 330 126 330 142 314 c 0,22,23
 159 299 159 299 181 299 c 0,24,25
 205 299 205 299 221 315 c 0,26,27
 238 332 238 332 238 354 c 256,28,29
 238 376 238 376 222 394 c 0,30,31
 206 410 206 410 182 410 c 256,16,17
EndSplineSet
EndChar
StartChar: cent
Encoding: 162 162 132
Width: 364
Flags: W
Fore
313 267 m 1,0,1
 276 290 276 290 236 293 c 1,2,-1
 236 36 l 1,3,4
 274 39 274 39 313 63 c 1,5,-1
 313 12 l 1,6,7
 268 -7 268 -7 236 -8 c 1,8,-1
 236 -92 l 1,9,-1
 206 -92 l 1,10,-1
 206 -8 l 1,11,12
 140 -2 140 -2 101 45 c 0,13,14
 63 92 63 92 63 165 c 256,15,16
 63 238 63 238 101 285 c 256,17,18
 139 332 139 332 206 338 c 1,19,-1
 206 422 l 1,20,-1
 236 422 l 1,21,-1
 236 338 l 1,22,23
 268 337 268 337 313 318 c 1,24,-1
 313 267 l 1,0,1
206 292 m 1,25,26
 167 289 167 289 143 254 c 0,27,28
 120 219 120 219 120 165 c 256,29,30
 120 111 120 111 143 76 c 0,31,32
 167 42 167 42 206 37 c 1,33,-1
 206 292 l 1,25,26
EndSplineSet
EndChar
StartChar: sterling
Encoding: 163 163 133
Width: 364
Flags: W
Fore
322 377 m 1,0,1
 285 403 285 403 247 403 c 0,2,3
 207 403 207 403 188.5 377 c 128,-1,4
 170 351 170 351 170 294 c 2,5,-1
 170 230 l 1,6,-1
 279 230 l 1,7,-1
 279 187 l 1,8,-1
 170 187 l 1,9,-1
 170 50 l 1,10,-1
 328 50 l 1,11,-1
 328 0 l 1,12,-1
 41 0 l 1,13,-1
 41 50 l 1,14,-1
 111 50 l 1,15,-1
 111 187 l 1,16,-1
 52 187 l 1,17,-1
 52 230 l 1,18,-1
 111 230 l 1,19,-1
 111 300 l 2,20,21
 111 448 111 448 241 448 c 0,22,23
 282 448 282 448 322 431 c 1,24,-1
 322 377 l 1,0,1
EndSplineSet
EndChar
StartChar: section
Encoding: 167 167 134
Width: 364
Flags: W
Fore
276 383 m 1,0,1
 225 406 225 406 193 406 c 0,2,3
 164 406 164 406 148 394 c 128,-1,4
 132 382 132 382 132 361 c 0,5,6
 132 336 132 336 193 301 c 0,7,8
 197 299 197 299 200 297.5 c 128,-1,9
 203 296 203 296 205 294 c 2,10,11
 268 259 268 259 286 236 c 0,12,13
 306 213 306 213 306 184 c 0,14,15
 306 131 306 131 251 100 c 1,16,17
 286 71 286 71 286 34 c 0,18,19
 286 -8 286 -8 256 -33 c 0,20,21
 225 -58 225 -58 175 -58 c 0,22,23
 135 -58 135 -58 82 -40 c 1,24,-1
 82 8 l 1,25,26
 136 -15 136 -15 168 -15 c 0,27,28
 232 -15 232 -15 232 32 c 0,29,30
 232 61 232 61 167 99 c 2,31,-1
 160 103 l 2,32,33
 96 137 96 137 78 160 c 0,34,35
 59 183 59 183 59 213 c 0,36,37
 59 269 59 269 113 297 c 1,38,39
 78 322 78 322 78 363 c 0,40,41
 78 401 78 401 107 425 c 0,42,43
 138 448 138 448 186 448 c 0,44,45
 207 448 207 448 230 444 c 128,-1,46
 253 440 253 440 276 431 c 1,47,-1
 276 383 l 1,0,1
143 276 m 1,48,49
 107 249 107 249 107 222 c 0,50,51
 107 200 107 200 127 180 c 0,52,53
 148 161 148 161 221 121 c 1,54,55
 257 147 257 147 257 175 c 0,56,57
 257 198 257 198 236 217 c 0,58,59
 214 238 214 238 143 276 c 1,48,49
EndSplineSet
EndChar
StartChar: bullet
Encoding: 8226 8226 135
Width: 364
Flags: W
Fore
94 225 m 0,0,1
 94 261 94 261 119 286 c 0,2,3
 145 312 145 312 182 312 c 0,4,5
 218 312 218 312 244 286 c 0,6,7
 269 262 269 262 269 225 c 256,8,9
 269 188 269 188 244 163 c 0,10,11
 218 137 218 137 181 137 c 256,12,13
 144 137 144 137 119 162 c 256,14,15
 94 187 94 187 94 225 c 0,0,1
EndSplineSet
EndChar
StartChar: paragraph
Encoding: 182 182 136
Width: 364
Flags: W
Fore
304 440 m 1,0,-1
 304 -58 l 1,1,-1
 262 -58 l 1,2,-1
 262 404 l 1,3,-1
 206 404 l 1,4,-1
 206 -58 l 1,5,-1
 164 -58 l 1,6,-1
 164 191 l 1,7,8
 99 197 99 197 66 229 c 0,9,10
 31 262 31 262 31 316 c 0,11,12
 31 373 31 373 70 406 c 0,13,14
 107 440 107 440 172 440 c 2,15,-1
 304 440 l 1,0,-1
EndSplineSet
EndChar
StartChar: germandbls
Encoding: 223 223 137
Width: 364
Flags: W
Fore
55 335 m 1,0,1
 55 459 55 459 181 459 c 0,2,3
 302 459 302 459 304 330 c 1,4,5
 258 326 258 326 233.5 307.5 c 128,-1,6
 209 289 209 289 209 260 c 0,7,8
 209 246 209 246 217 234.5 c 128,-1,9
 225 223 225 223 245 210 c 2,10,-1
 262 199 l 2,11,12
 284 185 284 185 299 172.5 c 128,-1,13
 314 160 314 160 322 148 c 0,14,15
 339 123 339 123 339 89 c 0,16,17
 339 44 339 44 306 18 c 0,18,19
 273 -9 273 -9 215 -9 c 0,20,21
 174 -9 174 -9 135 6 c 1,22,-1
 135 54 l 1,23,24
 180 36 180 36 214 36 c 0,25,26
 246 36 246 36 265 50.5 c 128,-1,27
 284 65 284 65 284 89 c 0,28,29
 284 110 284 110 274 124 c 0,30,31
 265 137 265 137 230 160 c 2,32,-1
 210 171 l 2,33,34
 156 203 156 203 156 250 c 0,35,36
 156 328 156 328 250 349 c 1,37,38
 248 414 248 414 180 414 c 0,39,40
 144 414 144 414 127.5 395 c 128,-1,41
 111 376 111 376 111 334 c 2,42,-1
 111 0 l 1,43,-1
 55 0 l 1,44,-1
 55 335 l 1,45,-1
 55 335 l 1,0,1
EndSplineSet
EndChar
StartChar: registered
Encoding: 174 174 138
Width: 364
Flags: W
Fore
177 325 m 1,0,1
 263 325 263 325 263 266 c 0,2,3
 263 222 263 222 213 213 c 1,4,5
 224 210 224 210 247 175 c 2,6,-1
 281 120 l 1,7,-1
 239 120 l 1,8,-1
 207 171 l 2,9,10
 191 196 191 196 183 201 c 1,11,12
 176 207 176 207 161 207 c 2,13,-1
 145 207 l 1,14,-1
 145 120 l 1,15,-1
 107 120 l 1,16,-1
 107 325 l 1,17,-1
 177 325 l 1,18,-1
 177 325 l 1,0,1
145 300 m 1,19,-1
 145 231 l 1,20,-1
 175 231 l 2,21,22
 202 231 202 231 213 239 c 128,-1,23
 224 247 224 247 224 266 c 0,24,25
 224 284 224 284 213 292 c 128,-1,26
 202 300 202 300 175 300 c 2,27,-1
 145 300 l 1,19,-1
182 401 m 256,28,29
 257 401 257 401 310 348 c 0,30,31
 364 292 364 292 364 219 c 0,32,33
 364 144 364 144 310 91 c 0,34,35
 256 37 256 37 182 37 c 0,36,37
 107 37 107 37 54 91 c 0,38,39
 0 144 0 144 0 219 c 256,40,41
 0 294 0 294 54 348 c 0,42,43
 107 401 107 401 182 401 c 256,28,29
182 370 m 0,44,45
 118 370 118 370 75 326 c 0,46,47
 30 283 30 283 30 219 c 0,48,49
 30 156 30 156 75 112 c 0,50,51
 120 67 120 67 182 67 c 256,52,53
 244 67 244 67 289 112 c 0,54,55
 333 156 333 156 333 219 c 256,56,57
 333 282 333 282 289 326 c 256,58,59
 245 370 245 370 182 370 c 0,44,45
EndSplineSet
EndChar
StartChar: copyright
Encoding: 169 169 139
Width: 364
Flags: W
Fore
255 284 m 1,0,1
 222 300 222 300 188 300 c 256,2,3
 154 300 154 300 133 278 c 0,4,5
 114 258 114 258 114 219 c 256,6,7
 114 180 114 180 134.5 159 c 128,-1,8
 155 138 155 138 193 138 c 0,9,10
 210 138 210 138 225 141.5 c 128,-1,11
 240 145 240 145 255 153 c 1,12,-1
 255 122 l 1,13,14
 226 109 226 109 188 109 c 0,15,16
 135 109 135 109 104 138 c 0,17,18
 74 168 74 168 74 219 c 0,19,20
 74 271 74 271 104 299 c 0,21,22
 136 329 136 329 188 329 c 0,23,24
 226 329 226 329 255 316 c 1,25,-1
 255 284 l 1,0,1
182 370 m 0,26,27
 118 370 118 370 75 326 c 0,28,29
 30 283 30 283 30 219 c 0,30,31
 30 156 30 156 75 112 c 0,32,33
 120 67 120 67 182 67 c 256,34,35
 244 67 244 67 289 112 c 0,36,37
 333 156 333 156 333 219 c 256,38,39
 333 282 333 282 289 326 c 256,40,41
 245 370 245 370 182 370 c 0,26,27
182 401 m 256,42,43
 257 401 257 401 310 348 c 0,44,45
 364 292 364 292 364 219 c 0,46,47
 364 144 364 144 310 91 c 0,48,49
 256 37 256 37 182 37 c 0,50,51
 107 37 107 37 54 91 c 0,52,53
 0 144 0 144 0 219 c 256,54,55
 0 294 0 294 54 348 c 0,56,57
 107 401 107 401 182 401 c 256,42,43
EndSplineSet
EndChar
StartChar: trademark
Encoding: 8482 8482 140
Width: 364
Flags: W
Fore
129 413 m 1,0,-1
 81 413 l 1,1,-1
 81 270 l 1,2,-1
 48 270 l 1,3,-1
 48 413 l 1,4,-1
 0 413 l 1,5,-1
 0 440 l 1,6,-1
 129 440 l 1,7,-1
 129 413 l 1,0,-1
245 365 m 1,8,-1
 281 440 l 1,9,-1
 332 440 l 1,10,-1
 332 270 l 1,11,-1
 299 270 l 1,12,-1
 299 412 l 1,13,-1
 253 323 l 1,14,-1
 236 323 l 1,15,-1
 187 412 l 1,16,-1
 187 270 l 1,17,-1
 154 270 l 1,18,-1
 154 440 l 1,19,-1
 204 440 l 1,20,-1
 245 365 l 1,8,-1
EndSplineSet
EndChar
StartChar: acute
Encoding: 180 180 141
Width: 364
Flags: W
Fore
281 483 m 1,0,-1
 186 372 l 1,1,-1
 140 372 l 1,2,-1
 223 483 l 1,3,-1
 281 483 l 1,0,-1
EndSplineSet
EndChar
StartChar: dieresis
Encoding: 168 168 142
Width: 364
Flags: W
Fore
154 458 m 1,0,-1
 154 398 l 1,1,-1
 94 398 l 1,2,-1
 94 458 l 1,3,-1
 154 458 l 1,0,-1
269 458 m 1,4,-1
 269 398 l 1,5,-1
 210 398 l 1,6,-1
 210 458 l 1,7,-1
 269 458 l 1,4,-1
EndSplineSet
EndChar
StartChar: notequal
Encoding: 8800 8800 143
Width: 364
Flags: W
Fore
217 274 m 1,0,-1
 289 367 l 1,1,-1
 326 337 l 1,2,-1
 278 274 l 1,3,-1
 338 274 l 1,4,-1
 338 224 l 1,5,-1
 239 224 l 1,6,-1
 185 155 l 1,7,-1
 338 155 l 1,8,-1
 338 104 l 1,9,-1
 147 104 l 1,10,-1
 74 11 l 1,11,-1
 37 42 l 1,12,-1
 85 104 l 1,13,-1
 26 104 l 1,14,-1
 26 155 l 1,15,-1
 123 155 l 1,16,-1
 178 224 l 1,17,-1
 26 224 l 1,18,-1
 26 274 l 1,19,-1
 217 274 l 1,0,-1
EndSplineSet
EndChar
StartChar: AE
Encoding: 198 198 144
Width: 364
Flags: W
Fore
342 390 m 1,0,-1
 243 390 l 1,1,-1
 243 260 l 1,2,-1
 333 260 l 1,3,-1
 333 210 l 1,4,-1
 243 210 l 1,5,-1
 243 50 l 1,6,-1
 348 50 l 1,7,-1
 348 0 l 1,8,-1
 188 0 l 1,9,-1
 188 113 l 1,10,-1
 84 113 l 1,11,-1
 54 0 l 1,12,-1
 0 0 l 1,13,-1
 121 440 l 1,14,-1
 342 440 l 1,15,-1
 342 390 l 1,0,-1
97 163 m 1,16,-1
 188 163 l 1,17,-1
 188 390 l 1,18,-1
 156 390 l 1,19,-1
 97 163 l 1,16,-1
EndSplineSet
EndChar
StartChar: Oslash
Encoding: 216 216 145
Width: 364
Flags: W
Fore
109 89 m 1,0,1
 118 66 118 66 137.5 53 c 128,-1,2
 157 40 157 40 182 40 c 0,3,4
 227 40 227 40 247 81 c 0,5,6
 267 124 267 124 267 220 c 0,7,8
 267 252 267 252 265.5 272 c 128,-1,9
 264 292 264 292 261 306 c 1,10,-1
 109 89 l 1,11,-1
 109 89 l 1,0,1
248 351 m 1,12,13
 234 400 234 400 182 400 c 0,14,15
 135 400 135 400 116 357 c 0,16,17
 97 315 97 315 97 202 c 0,18,19
 97 179 97 179 97.5 164 c 128,-1,20
 98 149 98 149 100 139 c 1,21,-1
 248 351 l 1,12,13
304 368 m 1,22,23
 317 344 317 344 323 306 c 128,-1,24
 329 268 329 268 329 220 c 0,25,26
 329 -9 329 -9 182 -9 c 0,27,28
 111 -9 111 -9 75 39 c 1,29,-1
 33 -21 l 1,30,-1
 2 0 l 1,31,-1
 55 74 l 1,32,33
 46 97 46 97 40 135 c 0,34,35
 37 154 37 154 36 175.5 c 128,-1,36
 35 197 35 197 35 220 c 0,37,38
 35 448 35 448 182 448 c 0,39,40
 250 448 250 448 283 401 c 1,41,-1
 325 460 l 1,42,-1
 354 438 l 1,43,-1
 304 368 l 1,44,-1
 304 368 l 1,22,23
EndSplineSet
EndChar
StartChar: infinity
Encoding: 8734 8734 146
Width: 364
Flags: W
Fore
205 185 m 1,0,1
 221 145 221 145 235 130 c 256,2,3
 249 115 249 115 266 115 c 0,4,5
 287 115 287 115 301 135 c 0,6,7
 314 154 314 154 314 187 c 0,8,9
 314 218 314 218 302 237 c 256,10,11
 290 256 290 256 269 256 c 0,12,13
 231 256 231 256 205 185 c 1,0,1
158 187 m 1,14,15
 150 207 150 207 142.5 220.5 c 128,-1,16
 135 234 135 234 128 241 c 0,17,18
 115 256 115 256 97 256 c 0,19,20
 75 256 75 256 62 236 c 0,21,22
 49 217 49 217 49 186 c 0,23,24
 49 154 49 154 61 134 c 0,25,26
 74 115 74 115 94 115 c 0,27,28
 132 115 132 115 158 187 c 1,14,15
182 225 m 1,29,30
 196 260 196 260 217.5 278.5 c 128,-1,31
 239 297 239 297 266 297 c 0,32,33
 300 297 300 297 326 265 c 0,34,35
 352 231 352 231 352 186 c 0,36,37
 352 136 352 136 327 105 c 0,38,39
 305 74 305 74 266 74 c 0,40,41
 243 74 243 74 223 89 c 0,42,43
 204 102 204 102 181 142 c 1,44,45
 161 105 161 105 142 89.5 c 128,-1,46
 123 74 123 74 98 74 c 0,47,48
 61 74 61 74 37 105 c 0,49,50
 12 136 12 136 12 186 c 256,51,52
 12 236 12 236 35 267 c 0,53,54
 59 297 59 297 97 297 c 0,55,56
 125 297 125 297 145 280 c 128,-1,57
 165 263 165 263 182 225 c 1,29,30
EndSplineSet
EndChar
StartChar: plusminus
Encoding: 177 177 147
Width: 364
Flags: W
Fore
338 50 m 1,0,-1
 338 0 l 1,1,-1
 26 0 l 1,2,-1
 26 50 l 1,3,-1
 338 50 l 1,0,-1
207 248 m 1,4,-1
 338 248 l 1,5,-1
 338 198 l 1,6,-1
 207 198 l 1,7,-1
 207 100 l 1,8,-1
 157 100 l 1,9,-1
 157 198 l 1,10,-1
 26 198 l 1,11,-1
 26 248 l 1,12,-1
 157 248 l 1,13,-1
 157 345 l 1,14,-1
 207 345 l 1,15,-1
 207 248 l 1,4,-1
EndSplineSet
EndChar
StartChar: lessequal
Encoding: 8804 8804 148
Width: 364
Flags: W
Fore
337 76 m 1,0,-1
 25 173 l 1,1,-1
 25 223 l 1,2,-1
 337 321 l 1,3,-1
 337 266 l 1,4,-1
 101 198 l 1,5,-1
 337 129 l 1,6,-1
 337 76 l 1,0,-1
337 0 m 1,7,-1
 25 0 l 1,8,-1
 25 50 l 1,9,-1
 337 50 l 1,10,-1
 337 0 l 1,7,-1
EndSplineSet
EndChar
StartChar: greaterequal
Encoding: 8805 8805 149
Width: 364
Flags: W
Fore
263 198 m 1,0,-1
 26 266 l 1,1,-1
 26 321 l 1,2,-1
 338 223 l 1,3,-1
 338 173 l 1,4,-1
 26 76 l 1,5,-1
 26 129 l 1,6,-1
 263 198 l 1,0,-1
338 50 m 1,7,-1
 338 0 l 1,8,-1
 26 0 l 1,9,-1
 26 50 l 1,10,-1
 338 50 l 1,7,-1
EndSplineSet
EndChar
StartChar: yen
Encoding: 165 165 150
Width: 364
Flags: W
Fore
74 440 m 1,0,-1
 182 246 l 1,1,-1
 289 440 l 1,2,-1
 353 440 l 1,3,-1
 255 275 l 1,4,-1
 330 275 l 1,5,-1
 330 242 l 1,6,-1
 237 242 l 1,7,-1
 212 198 l 1,8,-1
 212 187 l 1,9,-1
 330 187 l 1,10,-1
 330 155 l 1,11,-1
 212 155 l 1,12,-1
 212 0 l 1,13,-1
 152 0 l 1,14,-1
 152 155 l 1,15,-1
 34 155 l 1,16,-1
 34 187 l 1,17,-1
 152 187 l 1,18,-1
 152 198 l 1,19,-1
 125 242 l 1,20,-1
 34 242 l 1,21,-1
 34 275 l 1,22,-1
 106 275 l 1,23,-1
 11 440 l 1,24,-1
 74 440 l 1,0,-1
EndSplineSet
EndChar
StartChar: mu
Encoding: 181 181 151
Width: 364
Flags: W
Fore
58 330 m 1,0,-1
 112 330 l 1,1,-1
 112 125 l 2,2,3
 112 39 112 39 180 39 c 0,4,5
 255 39 255 39 255 138 c 2,6,-1
 255 330 l 1,7,-1
 310 330 l 1,8,-1
 310 76 l 2,9,10
 310 42 310 42 329 42 c 0,11,12
 332 42 332 42 336.5 43 c 128,-1,13
 341 44 341 44 349 48 c 1,14,-1
 349 5 l 1,15,16
 326 -9 326 -9 307 -9 c 0,17,18
 271 -9 271 -9 263 38 c 1,19,20
 237 -9 237 -9 184 -9 c 0,21,22
 132 -9 132 -9 107 37 c 1,23,-1
 107 -126 l 1,24,-1
 58 -126 l 1,25,-1
 58 330 l 1,0,-1
EndSplineSet
EndChar
StartChar: partialdiff
Encoding: 8706 8706 152
Width: 364
Flags: W
Fore
248 183 m 1,0,1
 257 234 257 234 257 279 c 0,2,3
 257 356 257 356 214 356 c 0,4,5
 199 356 199 356 177 339 c 0,6,7
 157 322 157 322 145 322 c 0,8,9
 134 322 134 322 127 328.5 c 128,-1,10
 120 335 120 335 120 344 c 0,11,12
 120 363 120 363 142 376 c 0,13,14
 163 391 163 391 193 391 c 0,15,16
 246 391 246 391 277 345 c 0,17,18
 309 299 309 299 309 222 c 0,19,20
 309 122 309 122 266 58 c 0,21,22
 225 -7 225 -7 161 -7 c 0,23,24
 116 -7 116 -7 86 24 c 0,25,26
 56 57 56 57 56 104 c 0,27,28
 56 164 56 164 89 201 c 0,29,30
 121 239 121 239 169 239 c 0,31,32
 199 239 199 239 218 225.5 c 128,-1,33
 237 212 237 212 248 183 c 1,0,1
234 146 m 0,34,35
 234 180 234 180 221 198.5 c 128,-1,36
 208 217 208 217 185 217 c 0,37,38
 153 217 153 217 132 179 c 0,39,40
 111 140 111 140 111 80 c 0,41,42
 111 9 111 9 160 9 c 0,43,44
 192 9 192 9 213 47 c 0,45,46
 234 86 234 86 234 146 c 0,34,35
EndSplineSet
EndChar
StartChar: summation
Encoding: 8721 8721 153
Width: 364
Flags: W
Fore
320 -88 m 1,0,-1
 320 -129 l 1,1,-1
 42 -129 l 1,2,-1
 42 -101 l 1,3,-1
 204 170 l 1,4,-1
 42 420 l 1,5,-1
 42 448 l 1,6,-1
 314 448 l 1,7,-1
 314 407 l 1,8,-1
 98 407 l 1,9,-1
 252 170 l 1,10,-1
 98 -88 l 1,11,-1
 320 -88 l 1,0,-1
EndSplineSet
EndChar
StartChar: product
Encoding: 8719 8719 154
Width: 364
Flags: W
Fore
45 448 m 1,0,-1
 319 448 l 1,1,-1
 319 -129 l 1,2,-1
 273 -129 l 1,3,-1
 273 409 l 1,4,-1
 91 409 l 1,5,-1
 91 -129 l 1,6,-1
 45 -129 l 1,7,-1
 45 448 l 1,0,-1
EndSplineSet
EndChar
StartChar: pi
Encoding: 960 960 155
Width: 364
Flags: W
Fore
340 325 m 1,0,-1
 340 281 l 1,1,-1
 299 281 l 1,2,-1
 299 73 l 2,3,4
 299 33 299 33 329 33 c 0,5,6
 334 33 334 33 340.5 34 c 128,-1,7
 347 35 347 35 349 35 c 1,8,-1
 349 -4 l 1,9,10
 327 -12 327 -12 306 -12 c 0,11,12
 273 -12 273 -12 259 8 c 256,13,14
 245 28 245 28 245 79 c 2,15,-1
 245 281 l 1,16,-1
 119 281 l 1,17,-1
 119 0 l 1,18,-1
 66 0 l 1,19,-1
 66 281 l 1,20,-1
 24 281 l 1,21,-1
 24 325 l 1,22,-1
 340 325 l 1,0,-1
EndSplineSet
EndChar
StartChar: integral
Encoding: 8747 8747 156
Width: 364
Flags: W
Fore
116 -77 m 0,0,1
 148 -77 148 -77 151 126 c 0,2,3
 152 142 152 142 152 154 c 128,-1,4
 152 166 152 166 152 174 c 0,5,6
 157 328 157 328 184 392 c 0,7,8
 211 457 211 457 271 457 c 0,9,10
 295 457 295 457 310 445 c 0,11,12
 325 432 325 432 325 413 c 0,13,14
 325 397 325 397 315.5 388 c 128,-1,15
 306 379 306 379 289 379 c 0,16,17
 263 379 263 379 257 400 c 0,18,19
 256 405 256 405 254 415 c 0,20,21
 252 426 252 426 248 426 c 0,22,23
 217 426 217 426 212 243 c 0,24,25
 211 214 211 214 211 192.5 c 128,-1,26
 211 171 211 171 210 154 c 0,27,28
 208 83 208 83 199.5 32.5 c 128,-1,29
 191 -18 191 -18 177 -48 c 0,30,31
 149 -109 149 -109 91 -109 c 0,32,33
 68 -109 68 -109 53 -97 c 256,34,35
 38 -85 38 -85 38 -66 c 0,36,37
 38 -31 38 -31 76 -31 c 0,38,39
 96 -31 96 -31 104 -47 c 0,40,41
 108 -54 108 -54 109 -65 c 0,42,43
 111 -77 111 -77 116 -77 c 0,0,1
EndSplineSet
EndChar
StartChar: ordfeminine
Encoding: 170 170 157
Width: 364
Flags: W
Fore
202 326 m 1,0,1
 159 326 159 326 141 316 c 128,-1,2
 123 306 123 306 123 283 c 0,3,4
 123 264 123 264 135.5 252.5 c 128,-1,5
 148 241 148 241 170 241 c 0,6,7
 201 241 201 241 220 262 c 0,8,9
 239 282 239 282 239 317 c 2,10,-1
 239 326 l 1,11,-1
 202 326 l 1,12,-1
 202 326 l 1,0,1
281 212 m 1,13,-1
 239 212 l 1,14,-1
 239 245 l 1,15,16
 211 206 211 206 162 206 c 0,17,18
 125 206 125 206 102 226 c 0,19,20
 80 245 80 245 80 280 c 0,21,22
 80 318 80 318 107.5 339 c 128,-1,23
 135 360 135 360 186 360 c 2,24,-1
 239 360 l 1,25,-1
 239 361 l 2,26,27
 239 414 239 414 170 414 c 0,28,29
 138 414 138 414 98 394 c 1,30,-1
 98 432 l 1,31,32
 118 440 118 440 138 444 c 128,-1,33
 158 448 158 448 176 448 c 0,34,35
 231 448 231 448 256 423 c 128,-1,36
 281 398 281 398 281 344 c 2,37,-1
 281 212 l 1,13,-1
283 175 m 1,38,-1
 283 138 l 1,39,-1
 86 138 l 1,40,-1
 86 175 l 1,41,-1
 283 175 l 1,38,-1
EndSplineSet
EndChar
StartChar: ordmasculine
Encoding: 186 186 158
Width: 364
Flags: W
Fore
182 414 m 256,0,1
 152 414 152 414 135 391 c 128,-1,2
 118 368 118 368 118 327 c 0,3,4
 118 285 118 285 135 262.5 c 128,-1,5
 152 240 152 240 182 240 c 0,6,7
 211 240 211 240 229 263 c 0,8,9
 246 288 246 288 246 327 c 0,10,11
 246 368 246 368 229 391 c 128,-1,12
 212 414 212 414 182 414 c 256,0,1
182 448 m 256,13,14
 232 448 232 448 262 415 c 256,15,16
 292 382 292 382 292 327 c 256,17,18
 292 272 292 272 262 239 c 256,19,20
 232 206 232 206 182 206 c 256,21,22
 132 206 132 206 102 239 c 256,23,24
 72 272 72 272 72 327 c 256,25,26
 72 382 72 382 102 415 c 256,27,28
 132 448 132 448 182 448 c 256,13,14
281 175 m 1,29,-1
 281 138 l 1,30,-1
 81 138 l 1,31,-1
 81 175 l 1,32,-1
 281 175 l 1,29,-1
EndSplineSet
EndChar
StartChar: Omega
Encoding: 937 937 159
Width: 364
Flags: W
Fore
22 51 m 1,0,-1
 94 51 l 1,1,2
 59 89 59 89 42 133 c 0,3,4
 25 176 25 176 25 231 c 0,5,6
 25 321 25 321 68 376 c 0,7,8
 110 431 110 431 181 431 c 0,9,10
 253 431 253 431 295 377 c 0,11,12
 338 324 338 324 338 231 c 0,13,14
 338 177 338 177 321 132 c 0,15,16
 304 89 304 89 269 51 c 1,17,-1
 342 51 l 1,18,-1
 342 0 l 1,19,-1
 205 0 l 1,20,-1
 205 51 l 1,21,22
 241 73 241 73 260 122 c 0,23,24
 280 168 280 168 280 236 c 256,25,26
 280 304 280 304 254 342 c 0,27,28
 227 382 227 382 182 382 c 0,29,30
 135 382 135 382 110 342 c 0,31,32
 83 305 83 305 83 236 c 0,33,34
 83 171 83 171 103 122 c 0,35,36
 124 73 124 73 158 51 c 1,37,-1
 158 0 l 1,38,-1
 22 0 l 1,39,-1
 22 51 l 1,0,-1
EndSplineSet
EndChar
StartChar: ae
Encoding: 230 230 160
Width: 364
Flags: W
Fore
160 152 m 1,0,-1
 146 152 l 2,1,2
 97 152 97 152 78 138 c 0,3,4
 60 126 60 126 60 92 c 0,5,6
 60 37 60 37 111 37 c 0,7,8
 139 37 139 37 149 56 c 0,9,10
 160 75 160 75 160 130 c 2,11,-1
 160 152 l 1,0,-1
306 209 m 2,12,13
 306 254 306 254 294.5 273.5 c 128,-1,14
 283 293 283 293 257 293 c 256,15,16
 231 293 231 293 220 273 c 128,-1,17
 209 253 209 253 209 207 c 2,18,-1
 209 194 l 1,19,-1
 306 194 l 1,20,-1
 306 209 l 2,12,13
209 152 m 1,21,-1
 209 127 l 2,22,23
 209 79 209 79 223.5 58 c 128,-1,24
 238 37 238 37 271 37 c 0,25,26
 318 37 318 37 348 67 c 1,27,-1
 348 16 l 1,28,29
 314 -9 314 -9 271 -9 c 0,30,31
 205 -9 205 -9 186 39 c 1,32,33
 162 -9 162 -9 106 -9 c 0,34,35
 12 -9 12 -9 12 91 c 0,36,37
 12 194 12 194 127 194 c 2,38,-1
 162 194 l 1,39,-1
 162 220 l 2,40,41
 162 293 162 293 105 293 c 0,42,43
 88 293 88 293 69 286.5 c 128,-1,44
 50 280 50 280 31 269 c 1,45,-1
 31 318 l 1,46,47
 75 338 75 338 111 338 c 0,48,49
 164 338 164 338 185 301 c 1,50,51
 205 338 205 338 260 338 c 0,52,53
 312 338 312 338 332 303 c 0,54,55
 354 269 354 269 354 178 c 2,56,-1
 354 152 l 1,57,-1
 209 152 l 1,21,-1
EndSplineSet
EndChar
StartChar: oslash
Encoding: 248 248 161
Width: 364
Flags: W
Fore
122 65 m 1,0,1
 144 37 144 37 182 37 c 0,2,3
 266 37 266 37 266 165 c 0,4,5
 266 180 266 180 264 196.5 c 128,-1,6
 262 213 262 213 259 230 c 1,7,-1
 122 65 l 1,0,1
241 265 m 1,8,9
 220 292 220 292 182 292 c 0,10,11
 140 292 140 292 118.5 261 c 128,-1,12
 97 230 97 230 97 170 c 0,13,14
 97 156 97 156 98.5 138.5 c 128,-1,15
 100 121 100 121 105 100 c 1,16,-1
 241 265 l 1,17,-1
 241 265 l 1,8,9
64 53 m 1,18,19
 53 74 53 74 46.5 102.5 c 128,-1,20
 40 131 40 131 40 165 c 0,21,22
 40 250 40 250 76.5 294 c 128,-1,23
 113 338 113 338 182 338 c 0,24,25
 241 338 241 338 276 306 c 1,26,-1
 319 358 l 1,27,-1
 346 335 l 1,28,-1
 298 277 l 1,29,30
 323 236 323 236 323 165 c 0,31,32
 323 80 323 80 287 35.5 c 128,-1,33
 251 -9 251 -9 182 -9 c 0,34,35
 123 -9 123 -9 88 27 c 1,36,-1
 41 -28 l 1,37,-1
 14 -6 l 1,38,-1
 64 53 l 1,39,-1
 64 53 l 1,18,19
EndSplineSet
EndChar
StartChar: questiondown
Encoding: 191 191 162
Width: 364
Flags: W
Fore
218 322 m 1,0,-1
 218 277 l 2,1,2
 218 248 218 248 209 227 c 0,3,4
 199 206 199 206 175 183 c 2,5,-1
 149 157 l 2,6,7
 130 138 130 138 123 127 c 0,8,9
 117 114 117 114 117 99 c 0,10,11
 117 73 117 73 136 57 c 0,12,13
 156 40 156 40 187 40 c 0,14,15
 233 40 233 40 292 81 c 1,16,-1
 292 25 l 1,17,18
 237 -8 237 -8 177 -8 c 0,19,20
 121 -8 121 -8 89 20 c 0,21,22
 57 49 57 49 57 96 c 0,23,24
 57 119 57 119 67 138 c 0,25,26
 72 148 72 148 81 159 c 128,-1,27
 90 170 90 170 104 184 c 2,28,-1
 130 210 l 2,29,30
 141 219 141 219 147 227 c 128,-1,31
 153 235 153 235 156 241 c 256,32,33
 159 247 159 247 160 255 c 128,-1,34
 161 263 161 263 161 272 c 2,35,-1
 161 273 l 1,36,37
 162 278 162 278 162 286 c 2,38,-1
 162 322 l 1,39,-1
 218 322 l 1,0,-1
160 366 m 1,40,-1
 160 440 l 1,41,-1
 220 440 l 1,42,-1
 220 366 l 1,43,-1
 160 366 l 1,40,-1
EndSplineSet
EndChar
StartChar: exclamdown
Encoding: 161 161 163
Width: 364
Flags: W
Fore
152 440 m 1,0,-1
 212 440 l 1,1,-1
 212 366 l 1,2,-1
 152 366 l 1,3,-1
 152 440 l 1,0,-1
152 193 m 1,4,-1
 158 299 l 1,5,-1
 206 299 l 1,6,-1
 212 193 l 1,7,-1
 212 0 l 1,8,-1
 152 0 l 1,9,-1
 152 193 l 1,4,-1
EndSplineSet
EndChar
StartChar: logicalnot
Encoding: 172 172 164
Width: 364
Flags: W
Fore
338 254 m 1,0,-1
 338 109 l 1,1,-1
 288 109 l 1,2,-1
 288 204 l 1,3,-1
 26 204 l 1,4,-1
 26 254 l 1,5,-1
 338 254 l 1,0,-1
EndSplineSet
EndChar
StartChar: radical
Encoding: 8730 8730 165
Width: 364
Flags: W
Fore
17 253 m 1,0,-1
 103 282 l 1,1,-1
 168 66 l 1,2,-1
 306 500 l 1,3,-1
 349 500 l 1,4,-1
 349 462 l 1,5,-1
 335 462 l 1,6,-1
 186 -12 l 1,7,-1
 149 -12 l 1,8,-1
 76 232 l 1,9,-1
 30 216 l 1,10,-1
 17 253 l 1,0,-1
EndSplineSet
EndChar
StartChar: florin
Encoding: 402 402 166
Width: 364
Flags: W
Fore
354 400 m 1,0,1
 332 417 332 417 306 417 c 0,2,3
 247 417 247 417 237 342 c 2,4,-1
 224 250 l 1,5,-1
 313 250 l 1,6,-1
 313 208 l 1,7,-1
 216 208 l 1,8,-1
 187 21 l 2,9,10
 174 -57 174 -57 145 -92 c 0,11,12
 114 -126 114 -126 60 -126 c 0,13,14
 26 -126 26 -126 0 -113 c 1,15,-1
 0 -65 l 1,16,17
 29 -83 29 -83 58 -83 c 0,18,19
 114 -83 114 -83 130 5 c 2,20,-1
 164 208 l 1,21,-1
 90 208 l 1,22,-1
 90 250 l 1,23,-1
 171 250 l 1,24,-1
 186 348 l 2,25,26
 194 399 194 399 222 429 c 0,27,28
 252 459 252 459 295 459 c 0,29,30
 323 459 323 459 354 448 c 1,31,-1
 354 400 l 1,0,1
EndSplineSet
EndChar
StartChar: approxequal
Encoding: 8776 8776 167
Width: 364
Flags: W
Fore
338 232 m 1,0,1
 295 199 295 199 250 199 c 0,2,3
 223 199 223 199 190 214 c 0,4,5
 187 216 187 216 185 216.5 c 128,-1,6
 183 217 183 217 181 218 c 0,7,8
 169 223 169 223 159.5 226.5 c 128,-1,9
 150 230 150 230 142 232 c 0,10,11
 127 235 127 235 112 235 c 0,12,13
 68 235 68 235 26 199 c 1,14,-1
 26 250 l 1,15,16
 49 268 49 268 70.5 276 c 128,-1,17
 92 284 92 284 117 284 c 0,18,19
 132 284 132 284 147 281 c 0,20,21
 155 279 155 279 164 276 c 128,-1,22
 173 273 173 273 184 268 c 0,23,24
 186 267 186 267 188 266.5 c 128,-1,25
 190 266 190 266 193 264 c 0,26,27
 226 248 226 248 255 248 c 0,28,29
 296 248 296 248 338 284 c 1,30,-1
 338 232 l 1,0,1
338 124 m 1,31,32
 294 90 294 90 250 90 c 0,33,34
 223 90 223 90 190 105 c 0,35,36
 182 109 182 109 181 109 c 1,37,38
 168 115 168 115 158.5 118 c 128,-1,39
 149 121 149 121 141 123 c 0,40,41
 129 127 129 127 112 127 c 0,42,43
 89 127 89 127 68.5 118.5 c 128,-1,44
 48 110 48 110 26 90 c 1,45,-1
 26 141 l 1,46,47
 49 160 49 160 70.5 168 c 128,-1,48
 92 176 92 176 117 176 c 0,49,50
 131 176 131 176 147.5 172 c 128,-1,51
 164 168 164 168 183 160 c 0,52,53
 185 159 185 159 187.5 158 c 128,-1,54
 190 157 190 157 193 155 c 0,55,56
 226 139 226 139 255 139 c 0,57,58
 294 139 294 139 338 176 c 1,59,-1
 338 124 l 1,31,32
EndSplineSet
EndChar
StartChar: Delta
Encoding: 8710 8710 168
Width: 364
Flags: W
Fore
151 420 m 1,0,-1
 213 420 l 1,1,-1
 366 0 l 1,2,-1
 -2 0 l 1,3,-1
 151 420 l 1,0,-1
73 51 m 1,4,-1
 291 51 l 1,5,-1
 182 360 l 1,6,-1
 73 51 l 1,4,-1
EndSplineSet
EndChar
StartChar: guillemotleft
Encoding: 171 171 169
Width: 364
Flags: W
Fore
173 256 m 1,0,-1
 85 177 l 1,1,-1
 173 98 l 1,2,-1
 173 42 l 1,3,-1
 35 165 l 1,4,-1
 35 189 l 1,5,-1
 173 312 l 1,6,-1
 173 256 l 1,0,-1
307 256 m 1,7,-1
 219 177 l 1,8,-1
 307 98 l 1,9,-1
 307 42 l 1,10,-1
 169 165 l 1,11,-1
 169 189 l 1,12,-1
 307 312 l 1,13,-1
 307 256 l 1,7,-1
EndSplineSet
EndChar
StartChar: guillemotright
Encoding: 187 187 170
Width: 364
Flags: W
Fore
329 189 m 1,0,-1
 329 165 l 1,1,-1
 191 42 l 1,2,-1
 191 98 l 1,3,-1
 280 177 l 1,4,-1
 191 256 l 1,5,-1
 191 312 l 1,6,-1
 329 189 l 1,0,-1
195 189 m 1,7,-1
 195 165 l 1,8,-1
 57 42 l 1,9,-1
 57 98 l 1,10,-1
 146 177 l 1,11,-1
 57 256 l 1,12,-1
 57 312 l 1,13,-1
 195 189 l 1,7,-1
EndSplineSet
EndChar
StartChar: ellipsis
Encoding: 8230 8230 171
Width: 364
Flags: W
Fore
98 90 m 1,0,-1
 98 0 l 1,1,-1
 24 0 l 1,2,-1
 24 90 l 1,3,-1
 98 90 l 1,0,-1
340 90 m 1,4,-1
 340 0 l 1,5,-1
 265 0 l 1,6,-1
 265 90 l 1,7,-1
 340 90 l 1,4,-1
219 90 m 1,8,-1
 219 0 l 1,9,-1
 144 0 l 1,10,-1
 144 90 l 1,11,-1
 219 90 l 1,8,-1
EndSplineSet
EndChar
StartChar: OE
Encoding: 338 338 176
Width: 364
Flags: W
Fore
359 0 m 1,0,-1
 181 0 l 2,1,2
 93 0 93 0 57 49 c 0,3,4
 21 99 21 99 21 220 c 0,5,6
 21 343 21 343 57 391 c 0,7,8
 93 440 93 440 181 440 c 2,9,-1
 356 440 l 1,10,-1
 356 390 l 1,11,-1
 250 390 l 1,12,-1
 250 260 l 1,13,-1
 347 260 l 1,14,-1
 347 210 l 1,15,-1
 250 210 l 1,16,-1
 250 50 l 1,17,-1
 359 50 l 1,18,-1
 359 0 l 1,0,-1
174 390 m 1,19,20
 122 390 122 390 101 356 c 0,21,22
 81 322 81 322 81 220 c 256,23,24
 81 118 81 118 101 84 c 0,25,26
 122 50 122 50 174 50 c 2,27,-1
 192 50 l 1,28,-1
 192 390 l 1,29,-1
 174 390 l 1,30,-1
 174 390 l 1,19,20
EndSplineSet
EndChar
StartChar: oe
Encoding: 339 339 177
Width: 364
Flags: W
Fore
309 211 m 2,0,1
 309 294 309 294 260 294 c 0,2,3
 234 294 234 294 223 274 c 128,-1,4
 212 254 212 254 212 207 c 2,5,-1
 212 194 l 1,6,-1
 309 194 l 1,7,-1
 309 211 l 2,0,1
110 36 m 0,8,9
 140 36 140 36 152 61 c 0,10,11
 164 87 164 87 164 156 c 0,12,13
 164 241 164 241 153 268 c 0,14,15
 141 294 141 294 110 294 c 0,16,17
 81 294 81 294 68 269 c 0,18,19
 56 245 56 245 56 165 c 256,20,21
 56 85 56 85 68 61 c 0,22,23
 81 36 81 36 110 36 c 0,8,9
212 152 m 1,24,-1
 212 127 l 2,25,26
 212 79 212 79 226.5 57.5 c 128,-1,27
 241 36 241 36 274 36 c 0,28,29
 322 36 322 36 350 67 c 1,30,-1
 350 16 l 1,31,32
 333 3 333 3 315 -3 c 128,-1,33
 297 -9 297 -9 274 -9 c 0,34,35
 217 -9 217 -9 188 31 c 1,36,37
 158 -9 158 -9 110 -9 c 0,38,39
 55 -9 55 -9 29 32 c 0,40,41
 4 72 4 72 4 165 c 256,42,43
 4 258 4 258 29 298 c 256,44,45
 54 338 54 338 110 338 c 0,46,47
 161 338 161 338 188 301 c 1,48,49
 210 338 210 338 263 338 c 256,50,51
 316 338 316 338 336 303 c 0,52,53
 357 269 357 269 357 178 c 2,54,-1
 357 152 l 1,55,-1
 212 152 l 1,24,-1
EndSplineSet
EndChar
StartChar: endash
Encoding: 8211 8211 178
Width: 364
Flags: W
Fore
364 187 m 1,0,-1
 364 145 l 1,1,-1
 0 145 l 1,2,-1
 0 187 l 1,3,-1
 364 187 l 1,0,-1
EndSplineSet
EndChar
StartChar: emdash
Encoding: 8212 8212 179
Width: 364
Flags: W
Fore
364 187 m 1,0,-1
 364 145 l 1,1,-1
 0 145 l 1,2,-1
 0 187 l 1,3,-1
 364 187 l 1,0,-1
EndSplineSet
EndChar
StartChar: quotedblleft
Encoding: 8220 8220 180
Width: 364
Flags: W
Fore
198 285 m 1,0,-1
 198 346 l 1,1,-1
 256 459 l 1,2,-1
 301 459 l 1,3,-1
 273 346 l 1,4,-1
 273 285 l 1,5,-1
 198 285 l 1,0,-1
62 285 m 1,6,-1
 62 346 l 1,7,-1
 121 459 l 1,8,-1
 166 459 l 1,9,-1
 137 346 l 1,10,-1
 137 285 l 1,11,-1
 62 285 l 1,6,-1
EndSplineSet
EndChar
StartChar: quotedblright
Encoding: 8221 8221 181
Width: 364
Flags: W
Fore
301 459 m 1,0,-1
 301 398 l 1,1,-1
 243 285 l 1,2,-1
 198 285 l 1,3,-1
 227 398 l 1,4,-1
 227 459 l 1,5,-1
 301 459 l 1,0,-1
165 459 m 1,6,-1
 165 398 l 1,7,-1
 108 285 l 1,8,-1
 62 285 l 1,9,-1
 91 398 l 1,10,-1
 91 459 l 1,11,-1
 165 459 l 1,6,-1
EndSplineSet
EndChar
StartChar: quoteleft
Encoding: 8216 8216 182
Width: 364
Flags: W
Fore
137 285 m 1,0,-1
 137 346 l 1,1,-1
 194 459 l 1,2,-1
 240 459 l 1,3,-1
 211 346 l 1,4,-1
 211 285 l 1,5,-1
 137 285 l 1,0,-1
EndSplineSet
EndChar
StartChar: quoteright
Encoding: 8217 8217 183
Width: 364
Flags: W
Fore
240 459 m 1,0,-1
 240 398 l 1,1,-1
 182 285 l 1,2,-1
 137 285 l 1,3,-1
 165 398 l 1,4,-1
 165 459 l 1,5,-1
 240 459 l 1,0,-1
EndSplineSet
EndChar
StartChar: divide
Encoding: 247 247 184
Width: 364
Flags: W
Fore
218 117 m 1,0,-1
 218 44 l 1,1,-1
 146 44 l 1,2,-1
 146 117 l 1,3,-1
 218 117 l 1,0,-1
218 335 m 1,4,-1
 218 262 l 1,5,-1
 146 262 l 1,6,-1
 146 335 l 1,7,-1
 218 335 l 1,4,-1
338 214 m 1,8,-1
 338 164 l 1,9,-1
 26 164 l 1,10,-1
 26 214 l 1,11,-1
 338 214 l 1,8,-1
EndSplineSet
EndChar
StartChar: lozenge
Encoding: 9674 9674 185
Width: 364
Flags: W
Fore
68 175 m 1,0,-1
 182 -69 l 1,1,-1
 295 175 l 1,2,-1
 182 416 l 1,3,-1
 68 175 l 1,0,-1
329 175 m 1,4,-1
 182 -141 l 1,5,-1
 35 175 l 1,6,-1
 182 488 l 1,7,-1
 329 175 l 1,4,-1
EndSplineSet
EndChar
StartChar: fraction
Encoding: 8725 8725 188
Width: 364
Flags: W
Fore
326 440 m 1,0,-1
 94 -56 l 1,1,-1
 38 -56 l 1,2,-1
 270 440 l 1,3,-1
 326 440 l 1,0,-1
EndSplineSet
EndChar
StartChar: currency
Encoding: 164 164 189
Width: 364
Flags: W
Fore
256 190 m 256,0,1
 256 216 256 216 238 234 c 0,2,3
 219 253 219 253 193 253 c 256,4,5
 167 253 167 253 148 234 c 0,6,7
 129 216 129 216 129 190 c 0,8,9
 129 162 129 162 148 144 c 0,10,11
 166 126 166 126 193 126 c 256,12,13
 220 126 220 126 238 144 c 0,14,15
 256 164 256 164 256 190 c 256,0,1
298 322 m 1,16,-1
 325 294 l 1,17,-1
 276 245 l 1,18,19
 293 216 293 216 293 189 c 0,20,21
 293 161 293 161 275 134 c 1,22,-1
 325 85 l 1,23,-1
 297 58 l 1,24,-1
 248 107 l 1,25,26
 221 89 221 89 193 89 c 256,27,28
 165 89 165 89 136 106 c 1,29,-1
 88 58 l 1,30,-1
 60 84 l 1,31,-1
 109 133 l 1,32,33
 92 161 92 161 92 189 c 0,34,35
 92 218 92 218 110 245 c 1,36,-1
 60 294 l 1,37,-1
 88 322 l 1,38,-1
 137 272 l 1,39,40
 164 290 164 290 193 290 c 0,41,42
 218 290 218 290 249 273 c 1,43,-1
 298 322 l 1,16,-1
EndSplineSet
EndChar
StartChar: guilsinglleft
Encoding: 8249 8249 190
Width: 364
Flags: W
Fore
240 256 m 1,0,-1
 152 177 l 1,1,-1
 240 98 l 1,2,-1
 240 42 l 1,3,-1
 102 165 l 1,4,-1
 102 189 l 1,5,-1
 240 312 l 1,6,-1
 240 256 l 1,0,-1
EndSplineSet
EndChar
StartChar: guilsinglright
Encoding: 8250 8250 191
Width: 364
Flags: W
Fore
262 189 m 1,0,-1
 262 165 l 1,1,-1
 124 42 l 1,2,-1
 124 98 l 1,3,-1
 213 177 l 1,4,-1
 124 256 l 1,5,-1
 124 312 l 1,6,-1
 262 189 l 1,0,-1
EndSplineSet
EndChar
StartChar: fi
Encoding: 64257 64257 192
Width: 364
Flags: W
Fore
318 458 m 1,0,-1
 318 390 l 1,1,-1
 264 390 l 1,2,-1
 264 458 l 1,3,-1
 318 458 l 1,0,-1
229 414 m 1,4,-1
 176 414 l 2,5,6
 147 414 147 414 135 402 c 0,7,8
 124 389 124 389 124 360 c 2,9,-1
 124 330 l 1,10,-1
 318 330 l 1,11,-1
 318 0 l 1,12,-1
 264 0 l 1,13,-1
 264 288 l 1,14,-1
 124 288 l 1,15,-1
 124 0 l 1,16,-1
 70 0 l 1,17,-1
 70 288 l 1,18,-1
 10 288 l 1,19,-1
 10 330 l 1,20,-1
 70 330 l 1,21,-1
 70 353 l 2,22,23
 70 408 70 408 94.5 433.5 c 128,-1,24
 119 459 119 459 172 459 c 2,25,-1
 229 459 l 1,26,-1
 229 414 l 1,4,-1
EndSplineSet
Ligature: 0 0 'liga' f i
EndChar
StartChar: fl
Encoding: 64258 64258 193
Width: 364
Flags: W
Fore
318 0 m 1,0,-1
 264 0 l 1,1,-1
 264 414 l 1,2,-1
 176 414 l 2,3,4
 147 414 147 414 135 402 c 0,5,6
 124 389 124 389 124 360 c 2,7,-1
 124 330 l 1,8,-1
 210 330 l 1,9,-1
 210 288 l 1,10,-1
 124 288 l 1,11,-1
 124 0 l 1,12,-1
 70 0 l 1,13,-1
 70 288 l 1,14,-1
 10 288 l 1,15,-1
 10 330 l 1,16,-1
 70 330 l 1,17,-1
 70 353 l 2,18,19
 70 408 70 408 94.5 433.5 c 128,-1,20
 119 459 119 459 172 459 c 2,21,-1
 318 459 l 1,22,-1
 318 0 l 1,0,-1
EndSplineSet
Ligature: 0 0 'liga' f l
EndChar
StartChar: daggerdbl
Encoding: 8225 8225 194
Width: 364
Flags: W
Fore
208 66 m 1,0,-1
 208 -58 l 1,1,-1
 156 -58 l 1,2,-1
 156 66 l 1,3,-1
 48 66 l 1,4,-1
 48 111 l 1,5,-1
 156 111 l 1,6,-1
 156 271 l 1,7,-1
 48 271 l 1,8,-1
 48 317 l 1,9,-1
 156 317 l 1,10,-1
 156 440 l 1,11,-1
 208 440 l 1,12,-1
 208 317 l 1,13,-1
 316 317 l 1,14,-1
 316 271 l 1,15,-1
 208 271 l 1,16,-1
 208 111 l 1,17,-1
 316 111 l 1,18,-1
 316 66 l 1,19,-1
 208 66 l 1,0,-1
EndSplineSet
EndChar
StartChar: periodcentered
Encoding: 183 183 195
Width: 364
Flags: W
Fore
219 255 m 1,0,-1
 219 165 l 1,1,-1
 144 165 l 1,2,-1
 144 255 l 1,3,-1
 219 255 l 1,0,-1
EndSplineSet
EndChar
StartChar: quotesinglbase
Encoding: 8218 8218 196
Width: 364
Flags: W
Fore
222 89 m 1,0,-1
 222 28 l 1,1,-1
 164 -85 l 1,2,-1
 119 -85 l 1,3,-1
 148 28 l 1,4,-1
 148 89 l 1,5,-1
 222 89 l 1,0,-1
EndSplineSet
EndChar
StartChar: quotedblbase
Encoding: 8222 8222 197
Width: 364
Flags: W
Fore
301 89 m 1,0,-1
 301 28 l 1,1,-1
 243 -85 l 1,2,-1
 198 -85 l 1,3,-1
 227 28 l 1,4,-1
 227 89 l 1,5,-1
 301 89 l 1,0,-1
165 89 m 1,6,-1
 165 28 l 1,7,-1
 108 -85 l 1,8,-1
 62 -85 l 1,9,-1
 91 28 l 1,10,-1
 91 89 l 1,11,-1
 165 89 l 1,6,-1
EndSplineSet
EndChar
StartChar: perthousand
Encoding: 8240 8240 198
Width: 364
Flags: W
Fore
10 196 m 1,0,-1
 318 318 l 1,1,-1
 330 290 l 1,2,-1
 21 167 l 1,3,-1
 10 196 l 1,0,-1
49 85 m 256,4,5
 49 66 49 66 63 50 c 0,6,7
 76 36 76 36 97 36 c 256,8,9
 118 36 118 36 132 50 c 256,10,11
 146 64 146 64 146 85 c 0,12,13
 146 105 146 105 132 119 c 0,14,15
 117 134 117 134 97 134 c 0,16,17
 76 134 76 134 63 120 c 0,18,19
 49 104 49 104 49 85 c 256,4,5
13 85 m 0,20,21
 13 121 13 121 37 145 c 0,22,23
 64 170 64 170 97 170 c 0,24,25
 132 170 132 170 157 145 c 256,26,27
 182 120 182 120 182 85 c 256,28,29
 182 50 182 50 157 25 c 0,30,31
 133 0 133 0 97 0 c 0,32,33
 63 0 63 0 37 24 c 0,34,35
 13 50 13 50 13 85 c 0,20,21
36 338 m 256,36,37
 36 317 36 317 50 303 c 0,38,39
 66 289 66 289 85 289 c 0,40,41
 105 289 105 289 119 303 c 0,42,43
 134 318 134 318 134 338 c 0,44,45
 134 357 134 357 119 372 c 256,46,47
 104 387 104 387 85 387 c 0,48,49
 65 387 65 387 50 372 c 0,50,51
 36 359 36 359 36 338 c 256,36,37
0 338 m 256,52,53
 0 373 0 373 24 398 c 0,54,55
 50 422 50 422 85 422 c 256,56,57
 120 422 120 422 145 398 c 0,58,59
 169 373 169 373 169 338 c 256,60,61
 169 303 169 303 145 277 c 0,62,63
 120 253 120 253 85 253 c 256,64,65
 50 253 50 253 24 277 c 0,66,67
 0 303 0 303 0 338 c 256,52,53
230 85 m 256,68,69
 230 66 230 66 244 50 c 0,70,71
 258 36 258 36 279 36 c 256,72,73
 300 36 300 36 314 50 c 0,74,75
 328 66 328 66 328 85 c 0,76,77
 328 105 328 105 314 119 c 0,78,79
 299 134 299 134 279 134 c 0,80,81
 258 134 258 134 244 120 c 0,82,83
 230 104 230 104 230 85 c 256,68,69
194 85 m 0,84,85
 194 120 194 120 219 145 c 256,86,87
 244 170 244 170 279 170 c 256,88,89
 314 170 314 170 339 145 c 256,90,91
 364 120 364 120 364 85 c 256,92,93
 364 50 364 50 339 25 c 0,94,95
 315 0 315 0 279 0 c 256,96,97
 243 0 243 0 219 24 c 0,98,99
 194 51 194 51 194 85 c 0,84,85
EndSplineSet
EndChar
StartChar: dotlessi
Encoding: 305 305 214
Width: 364
Flags: W
Fore
214 330 m 1,0,-1
 214 42 l 1,1,-1
 322 42 l 1,2,-1
 322 0 l 1,3,-1
 53 0 l 1,4,-1
 53 42 l 1,5,-1
 160 42 l 1,6,-1
 160 288 l 1,7,-1
 76 288 l 1,8,-1
 76 330 l 1,9,-1
 214 330 l 1,0,-1
EndSplineSet
EndChar
StartChar: circumflex
Encoding: 710 710 215
Width: 364
Flags: W
Fore
204 483 m 1,0,-1
 276 372 l 1,1,-1
 235 372 l 1,2,-1
 182 445 l 1,3,-1
 129 372 l 1,4,-1
 88 372 l 1,5,-1
 160 483 l 1,6,-1
 204 483 l 1,0,-1
EndSplineSet
EndChar
StartChar: tilde
Encoding: 732 732 216
Width: 364
Flags: W
Fore
164 420 m 2,0,1
 151 432 151 432 144 432 c 0,2,3
 122 432 122 432 121 386 c 1,4,-1
 85 386 l 1,5,6
 85 426 85 426 100 447.5 c 128,-1,7
 115 469 115 469 142 469 c 0,8,9
 164 469 164 469 183 451 c 2,10,-1
 200 435 l 2,11,12
 211 424 211 424 220 424 c 0,13,14
 231 424 231 424 236.5 434.5 c 128,-1,15
 242 445 242 445 242 469 c 1,16,-1
 279 469 l 1,17,18
 279 430 279 430 264 408 c 128,-1,19
 249 386 249 386 222 386 c 0,20,21
 200 386 200 386 181 404 c 2,22,-1
 164 420 l 2,0,1
EndSplineSet
EndChar
StartChar: macron
Encoding: 175 175 217
Width: 364
Flags: W
Fore
270 450 m 1,0,-1
 270 407 l 1,1,-1
 94 407 l 1,2,-1
 94 450 l 1,3,-1
 270 450 l 1,0,-1
EndSplineSet
EndChar
StartChar: breve
Encoding: 728 728 218
Width: 364
Flags: W
Fore
124 474 m 1,0,1
 132 430 132 430 182 430 c 0,2,3
 231 430 231 430 239 474 c 1,4,-1
 274 474 l 1,5,6
 268 390 268 390 182 390 c 0,7,8
 97 390 97 390 89 474 c 1,9,-1
 124 474 l 1,0,1
EndSplineSet
EndChar
StartChar: dotaccent
Encoding: 729 729 219
Width: 364
Flags: W
Fore
212 458 m 1,0,-1
 212 398 l 1,1,-1
 152 398 l 1,2,-1
 152 458 l 1,3,-1
 212 458 l 1,0,-1
EndSplineSet
EndChar
StartChar: ring
Encoding: 730 730 220
Width: 364
Flags: W
Fore
263 450 m 0,0,1
 263 416 263 416 239 392 c 0,2,3
 217 368 217 368 182 368 c 0,4,5
 148 368 148 368 124 392 c 0,6,7
 101 417 101 417 101 450 c 0,8,9
 101 482 101 482 124 507 c 0,10,11
 149 530 149 530 182 530 c 0,12,13
 216 530 216 530 239 507 c 0,14,15
 263 483 263 483 263 450 c 0,0,1
227 450 m 0,16,17
 227 468 227 468 214 481 c 256,18,19
 201 494 201 494 182 494 c 0,20,21
 162 494 162 494 150 481 c 0,22,23
 137 469 137 469 137 450 c 0,24,25
 137 430 137 430 150 417 c 0,26,27
 162 405 162 405 182 405 c 0,28,29
 201 405 201 405 214 418 c 256,30,31
 227 431 227 431 227 450 c 0,16,17
EndSplineSet
EndChar
StartChar: cedilla
Encoding: 184 184 221
Width: 364
Flags: W
Fore
207 0 m 1,0,1
 239 -35 239 -35 239 -63 c 0,2,3
 239 -117 239 -117 168 -117 c 0,4,5
 144 -117 144 -117 117 -109 c 1,6,-1
 117 -71 l 1,7,8
 127 -76 127 -76 138 -78 c 128,-1,9
 149 -80 149 -80 163 -80 c 0,10,11
 198 -80 198 -80 198 -53 c 0,12,13
 198 -37 198 -37 172 0 c 1,14,-1
 207 0 l 1,15,-1
 207 0 l 1,0,1
EndSplineSet
EndChar
StartChar: hungarumlaut
Encoding: 733 733 222
Width: 364
Flags: W
Fore
208 483 m 1,0,-1
 142 372 l 1,1,-1
 101 372 l 1,2,-1
 158 483 l 1,3,-1
 208 483 l 1,0,-1
309 483 m 1,4,-1
 236 372 l 1,5,-1
 196 372 l 1,6,-1
 256 483 l 1,7,-1
 309 483 l 1,4,-1
EndSplineSet
EndChar
StartChar: ogonek
Encoding: 731 731 223
Width: 364
Flags: W
Fore
191 0 m 1,0,1
 165 -35 165 -35 165 -53 c 0,2,3
 165 -80 165 -80 197 -80 c 0,4,5
 216 -80 216 -80 234 -71 c 1,6,-1
 234 -111 l 1,7,8
 223 -113 223 -113 213 -115 c 128,-1,9
 203 -117 203 -117 194 -117 c 0,10,11
 124 -117 124 -117 124 -63 c 0,12,13
 124 -35 124 -35 156 0 c 1,14,-1
 191 0 l 1,0,1
EndSplineSet
EndChar
StartChar: caron
Encoding: 711 711 224
Width: 364
Flags: W
Fore
88 483 m 1,0,-1
 129 483 l 1,1,-1
 182 411 l 1,2,-1
 235 483 l 1,3,-1
 276 483 l 1,4,-1
 204 372 l 1,5,-1
 160 372 l 1,6,-1
 88 483 l 1,0,-1
EndSplineSet
EndChar
StartChar: Lslash
Encoding: 321 321 225
Width: 364
Flags: W
Fore
123 440 m 1,0,-1
 123 259 l 1,1,-1
 216 323 l 1,2,-1
 239 291 l 1,3,-1
 123 210 l 1,4,-1
 123 50 l 1,5,-1
 336 50 l 1,6,-1
 336 0 l 1,7,-1
 63 0 l 1,8,-1
 63 168 l 1,9,-1
 21 137 l 1,10,-1
 -3 170 l 1,11,-1
 63 216 l 1,12,-1
 63 440 l 1,13,-1
 123 440 l 1,0,-1
EndSplineSet
EndChar
StartChar: lslash
Encoding: 322 322 226
Width: 364
Flags: W
Fore
189 120 m 1,0,1
 189 46 189 46 242 46 c 2,2,-1
 305 46 l 1,3,-1
 305 0 l 1,4,-1
 236 0 l 2,5,6
 187 0 187 0 160.5 31 c 128,-1,7
 134 62 134 62 134 120 c 2,8,-1
 134 206 l 1,9,-1
 46 144 l 1,10,-1
 22 177 l 1,11,-1
 134 255 l 1,12,-1
 134 420 l 1,13,-1
 47 420 l 1,14,-1
 47 462 l 1,15,-1
 189 462 l 1,16,-1
 189 292 l 1,17,-1
 281 356 l 1,18,-1
 305 324 l 1,19,-1
 189 243 l 1,20,-1
 189 120 l 1,21,-1
 189 120 l 1,0,1
EndSplineSet
EndChar
StartChar: brokenbar
Encoding: 166 166 231
Width: 364
Flags: W
Fore
207 199 m 1,0,-1
 156 199 l 1,1,-1
 156 422 l 1,2,-1
 207 422 l 1,3,-1
 207 199 l 1,0,-1
207 -103 m 1,4,-1
 156 -103 l 1,5,-1
 156 120 l 1,6,-1
 207 120 l 1,7,-1
 207 -103 l 1,4,-1
EndSplineSet
EndChar
StartChar: Eth
Encoding: 208 208 232
Width: 364
Flags: W
Fore
129 440 m 1,0,1
 230 440 230 440 277.5 387 c 128,-1,2
 325 334 325 334 325 220 c 0,3,4
 325 107 325 107 277 53 c 0,5,6
 229 0 229 0 129 0 c 2,7,-1
 39 0 l 1,8,-1
 39 209 l 1,9,-1
 2 209 l 1,10,-1
 2 253 l 1,11,-1
 39 253 l 1,12,-1
 39 440 l 1,13,-1
 129 440 l 1,14,-1
 129 440 l 1,0,1
129 49 m 1,15,16
 204 49 204 49 234 86 c 0,17,18
 263 124 263 124 263 220 c 0,19,20
 263 317 263 317 234 354 c 0,21,22
 204 391 204 391 129 391 c 2,23,-1
 100 391 l 1,24,-1
 100 253 l 1,25,-1
 178 253 l 1,26,-1
 178 209 l 1,27,-1
 100 209 l 1,28,-1
 100 49 l 1,29,-1
 129 49 l 1,30,-1
 129 49 l 1,15,16
EndSplineSet
EndChar
StartChar: eth
Encoding: 240 240 233
Width: 364
Flags: W
Fore
212 391 m 1,0,1
 268 331 268 331 296 273 c 0,2,3
 323 216 323 216 323 158 c 0,4,5
 323 78 323 78 286 35 c 0,6,7
 250 -9 250 -9 182 -9 c 0,8,9
 115 -9 115 -9 77 35 c 0,10,11
 40 80 40 80 40 158 c 0,12,13
 40 234 40 234 77 280 c 0,14,15
 114 323 114 323 181 323 c 0,16,17
 191 323 191 323 195.5 323 c 128,-1,18
 200 323 200 323 205 322 c 1,19,20
 195 336 195 336 184.5 348.5 c 128,-1,21
 174 361 174 361 163 375 c 1,22,-1
 81 348 l 1,23,-1
 72 376 l 1,24,-1
 142 400 l 1,25,-1
 88 459 l 1,26,-1
 153 459 l 1,27,-1
 190 416 l 1,28,-1
 276 444 l 1,29,-1
 285 415 l 1,30,-1
 212 391 l 1,31,-1
 212 391 l 1,0,1
234 271 m 1,32,33
 214 278 214 278 186 278 c 0,34,35
 143 278 143 278 120.5 247.5 c 128,-1,36
 98 217 98 217 98 158 c 0,37,38
 98 100 98 100 119.5 68.5 c 128,-1,39
 141 37 141 37 182 37 c 256,40,41
 223 37 223 37 244.5 68.5 c 128,-1,42
 266 100 266 100 266 158 c 0,43,44
 266 190 266 190 257 220 c 0,45,46
 250 249 250 249 234 271 c 1,32,33
EndSplineSet
EndChar
StartChar: Thorn
Encoding: 222 222 236
Width: 364
Flags: W
Fore
119 157 m 1,0,-1
 188 157 l 2,1,2
 281 157 281 157 281 235 c 0,3,4
 281 312 281 312 188 312 c 2,5,-1
 119 312 l 1,6,-1
 119 157 l 1,0,-1
119 440 m 1,7,-1
 119 361 l 1,8,-1
 194 361 l 2,9,10
 271 361 271 361 307.5 330 c 128,-1,11
 344 299 344 299 344 235 c 0,12,13
 344 169 344 169 307.5 138.5 c 128,-1,14
 271 108 271 108 194 108 c 2,15,-1
 119 108 l 1,16,-1
 119 0 l 1,17,-1
 59 0 l 1,18,-1
 59 440 l 1,19,-1
 119 440 l 1,7,-1
EndSplineSet
EndChar
StartChar: thorn
Encoding: 254 254 237
Width: 364
Flags: W
Fore
111 -126 m 1,0,-1
 56 -126 l 1,1,-1
 56 462 l 1,2,-1
 111 462 l 1,3,-1
 111 288 l 1,4,5
 138 338 138 338 199 338 c 0,6,7
 259 338 259 338 293 292 c 0,8,9
 327 244 327 244 327 164 c 0,10,11
 327 85 327 85 293 37 c 0,12,13
 258 -9 258 -9 199 -9 c 0,14,15
 137 -9 137 -9 111 42 c 1,16,-1
 111 -126 l 1,0,-1
270 165 m 0,17,18
 270 292 270 292 191 292 c 0,19,20
 111 292 111 292 111 165 c 0,21,22
 111 37 111 37 191 37 c 0,23,24
 270 37 270 37 270 165 c 0,17,18
EndSplineSet
EndChar
StartChar: minus
Encoding: 8722 8722 238
Width: 364
Flags: W
Fore
338 214 m 1,0,-1
 338 164 l 1,1,-1
 26 164 l 1,2,-1
 26 214 l 1,3,-1
 338 214 l 1,0,-1
EndSplineSet
EndChar
StartChar: multiply
Encoding: 215 215 239
Width: 364
Flags: W
Fore
148 189 m 1,0,-1
 44 292 l 1,1,-1
 78 327 l 1,2,-1
 182 224 l 1,3,-1
 285 327 l 1,4,-1
 319 292 l 1,5,-1
 216 189 l 1,6,-1
 319 86 l 1,7,-1
 285 51 l 1,8,-1
 182 155 l 1,9,-1
 79 51 l 1,10,-1
 44 86 l 1,11,-1
 148 189 l 1,0,-1
EndSplineSet
EndChar
StartChar: onesuperior
Encoding: 185 185 240
Width: 364
Flags: W
Fore
167 230 m 1,0,-1
 167 410 l 1,1,-1
 101 398 l 1,2,-1
 101 432 l 1,3,-1
 169 443 l 1,4,-1
 210 443 l 1,5,-1
 210 230 l 1,6,-1
 270 230 l 1,7,-1
 270 197 l 1,8,-1
 107 197 l 1,9,-1
 107 230 l 1,10,-1
 167 230 l 1,0,-1
EndSplineSet
EndChar
StartChar: twosuperior
Encoding: 178 178 241
Width: 364
Flags: W
Fore
263 231 m 1,0,-1
 263 197 l 1,1,-1
 95 197 l 1,2,-1
 95 230 l 1,3,-1
 163 296 l 2,4,5
 192 324 192 324 205 343 c 0,6,7
 217 361 217 361 217 376 c 0,8,9
 217 394 217 394 202 405 c 128,-1,10
 187 416 187 416 163 416 c 0,11,12
 135 416 135 416 97 395 c 1,13,-1
 97 432 l 1,14,15
 133 448 133 448 169 448 c 0,16,17
 211 448 211 448 236 429 c 0,18,19
 262 409 262 409 262 378 c 0,20,21
 262 362 262 362 251 343 c 0,22,23
 245 335 245 335 233.5 321.5 c 128,-1,24
 222 308 222 308 205 291 c 2,25,-1
 142 231 l 1,26,-1
 263 231 l 1,0,-1
EndSplineSet
EndChar
StartChar: threesuperior
Encoding: 179 179 242
Width: 364
Flags: W
Fore
216 330 m 1,0,1
 273 318 273 318 273 269 c 0,2,3
 273 232 273 232 245 212.5 c 128,-1,4
 217 193 217 193 164 193 c 0,5,6
 131 193 131 193 96 205 c 1,7,-1
 96 240 l 1,8,9
 137 225 137 225 163 225 c 0,10,11
 193 225 193 225 210.5 237 c 128,-1,12
 228 249 228 249 228 269 c 0,13,14
 228 313 228 313 163 313 c 2,15,-1
 144 313 l 1,16,-1
 144 345 l 1,17,-1
 165 345 l 2,18,19
 222 345 222 345 222 381 c 0,20,21
 222 398 222 398 208 407 c 128,-1,22
 194 416 194 416 168 416 c 0,23,24
 154 416 154 416 138 413 c 128,-1,25
 122 410 122 410 104 402 c 1,26,-1
 104 438 l 1,27,28
 144 448 144 448 174 448 c 0,29,30
 218 448 218 448 242 431 c 0,31,32
 266 413 266 413 266 384 c 0,33,34
 266 342 266 342 216 330 c 1,0,1
EndSplineSet
EndChar
StartChar: dcroat
Encoding: 273 273 255
Width: 364
Flags: W
Fore
253 379 m 1,0,-1
 163 379 l 1,1,-1
 163 415 l 1,2,-1
 253 415 l 1,3,-1
 253 459 l 1,4,-1
 307 459 l 1,5,-1
 307 415 l 1,6,-1
 364 415 l 1,7,-1
 364 379 l 1,8,-1
 307 379 l 1,9,-1
 307 0 l 1,10,-1
 253 0 l 1,11,-1
 253 42 l 1,12,13
 225 -9 225 -9 165 -9 c 0,14,15
 106 -9 106 -9 71 38 c 256,16,17
 36 85 36 85 36 166 c 0,18,19
 36 246 36 246 71 292 c 0,20,21
 105 338 105 338 165 338 c 0,22,23
 227 338 227 338 253 288 c 1,24,-1
 253 379 l 1,0,-1
94 165 m 0,25,26
 94 37 94 37 173 37 c 0,27,28
 253 37 253 37 253 165 c 0,29,30
 253 292 253 292 173 292 c 0,31,32
 94 292 94 292 94 165 c 0,25,26
EndSplineSet
EndChar
StartChar: sfthyphen
Encoding: 173 173 256
Width: 364
Flags: W
Fore
259 190 m 1,0,-1
 259 141 l 1,1,-1
 105 141 l 1,2,-1
 105 190 l 1,3,-1
 259 190 l 1,0,-1
EndSplineSet
EndChar
StartChar: periodcentered
Encoding: 8729 8729 257
Width: 364
Flags: W
Fore
219 255 m 1,0,-1
 219 165 l 1,1,-1
 145 165 l 1,2,-1
 145 255 l 1,3,-1
 219 255 l 1,0,-1
EndSplineSet
EndChar
StartChar: Euro
Encoding: 8364 8364 258
Width: 364
Flags: W
Fore
62 280 m 1,0,1
 91 448 91 448 223 448 c 0,2,3
 248 448 248 448 269.5 442.5 c 128,-1,4
 291 437 291 437 313 424 c 1,5,-1
 313 363 l 1,6,7
 293 381 293 381 270 391 c 128,-1,8
 247 401 247 401 224 401 c 0,9,10
 137 401 137 401 122 280 c 1,11,-1
 264 280 l 1,12,-1
 250 248 l 1,13,-1
 119 248 l 1,14,15
 118 242 118 242 118 235.5 c 128,-1,16
 118 229 118 229 118 215 c 0,17,18
 118 210 118 210 118.5 205 c 128,-1,19
 119 200 119 200 119 193 c 1,20,-1
 225 193 l 1,21,-1
 211 160 l 1,22,-1
 122 160 l 1,23,24
 136 39 136 39 224 39 c 0,25,26
 273 39 273 39 313 77 c 1,27,-1
 313 16 l 1,28,29
 272 -9 272 -9 223 -9 c 0,30,31
 89 -9 89 -9 62 160 c 1,32,-1
 11 160 l 1,33,-1
 25 193 l 1,34,-1
 60 193 l 1,35,36
 60 198 60 198 59 202 c 1,37,-1
 59 220 l 1,38,-1
 59 239 l 1,39,40
 60 243 60 243 60 248 c 1,41,-1
 11 248 l 1,42,-1
 25 280 l 1,43,-1
 62 280 l 1,44,-1
 62 280 l 1,0,1
EndSplineSet
EndChar
StartChar: c6459
Encoding: 65539 -1 259
Width: 364
Flags: W
Fore
154 442 m 1,0,-1
 154 382 l 1,1,-1
 94 382 l 1,2,-1
 94 442 l 1,3,-1
 154 442 l 1,0,-1
269 442 m 1,4,-1
 269 382 l 1,5,-1
 210 382 l 1,6,-1
 210 442 l 1,7,-1
 269 442 l 1,4,-1
EndSplineSet
EndChar
StartChar: c6460
Encoding: 65540 -1 260
Width: 364
Flags: W
Fore
253 450 m 1,0,-1
 186 372 l 1,1,-1
 140 372 l 1,2,-1
 198 450 l 1,3,-1
 253 450 l 1,0,-1
EndSplineSet
EndChar
StartChar: c6461
Encoding: 65541 -1 261
Width: 364
Flags: W
Fore
164 404 m 2,0,1
 151 412 151 412 144 412 c 0,2,3
 122 412 122 412 122 384 c 2,4,-1
 122 382 l 1,5,-1
 85 382 l 1,6,7
 85 412 85 412 100 429 c 128,-1,8
 115 446 115 446 140 446 c 0,9,10
 145 446 145 446 150 445.5 c 128,-1,11
 155 445 155 445 160 444 c 256,12,13
 165 443 165 443 170 440.5 c 128,-1,14
 175 438 175 438 183 434 c 2,15,-1
 200 425 l 2,16,17
 214 417 214 417 221 417 c 0,18,19
 230 417 230 417 236 424.5 c 128,-1,20
 242 432 242 432 242 445 c 2,21,-1
 242 446 l 1,22,-1
 279 446 l 1,23,24
 278 417 278 417 263.5 399.5 c 128,-1,25
 249 382 249 382 224 382 c 0,26,27
 219 382 219 382 214.5 382.5 c 128,-1,28
 210 383 210 383 205 384 c 1,29,30
 200 386 200 386 194.5 388 c 128,-1,31
 189 390 189 390 181 394 c 2,32,-1
 164 404 l 2,0,1
EndSplineSet
EndChar
StartChar: c6468
Encoding: 65542 -1 262
Width: 364
Flags: W
Fore
224 372 m 1,0,-1
 178 372 l 1,1,-1
 111 450 l 1,2,-1
 165 450 l 1,3,-1
 224 372 l 1,0,-1
EndSplineSet
EndChar
StartChar: c6470
Encoding: 65543 -1 263
Width: 364
Flags: W
Fore
210 451 m 1,0,-1
 272 372 l 1,1,-1
 231 372 l 1,2,-1
 182 425 l 1,3,-1
 133 372 l 1,4,-1
 92 372 l 1,5,-1
 154 451 l 1,6,-1
 210 451 l 1,0,-1
EndSplineSet
EndChar
StartChar: c6472
Encoding: 65544 -1 264
Width: 364
Flags: W
Fore
92 451 m 1,0,-1
 133 451 l 1,1,-1
 182 398 l 1,2,-1
 231 451 l 1,3,-1
 272 451 l 1,4,-1
 210 372 l 1,5,-1
 154 372 l 1,6,-1
 92 451 l 1,0,-1
EndSplineSet
EndChar
StartChar: c6477
Encoding: 65545 -1 265
Width: 364
Flags: W
Fore
8 181 m 1,0,-1
 321 258 l 1,1,-1
 329 226 l 1,2,-1
 15 149 l 1,3,-1
 8 181 l 1,0,-1
EndSplineSet
EndChar
StartChar: c6478
Encoding: 65546 -1 266
Width: 364
Flags: W
Fore
234 443 m 1,0,-1
 234 285 l 1,1,-1
 268 285 l 1,2,-1
 268 252 l 1,3,-1
 234 252 l 1,4,-1
 234 197 l 1,5,-1
 193 197 l 1,6,-1
 193 252 l 1,7,-1
 79 252 l 1,8,-1
 79 288 l 1,9,-1
 186 443 l 1,10,-1
 234 443 l 1,0,-1
112 285 m 1,11,-1
 193 285 l 1,12,-1
 193 407 l 1,13,-1
 112 285 l 1,11,-1
EndSplineSet
EndChar
StartChar: c6475
Encoding: 65547 -1 267
Width: 364
Flags: W
Fore
124 451 m 1,0,1
 132 418 132 418 182 418 c 0,2,3
 230 418 230 418 239 451 c 1,4,-1
 274 451 l 1,5,6
 268 379 268 379 182 379 c 0,7,8
 97 379 97 379 89 451 c 1,9,-1
 124 451 l 1,0,1
EndSplineSet
EndChar
StartChar: c6476
Encoding: 65548 -1 268
Width: 364
Flags: W
Fore
212 442 m 1,0,-1
 212 382 l 1,1,-1
 152 382 l 1,2,-1
 152 442 l 1,3,-1
 212 442 l 1,0,-1
EndSplineSet
EndChar
StartChar: uni0E01
Encoding: 3585 3585 270
Width: 364
Flags: W
Fore
182 352 m 2,0,1
 153 352 153 352 129 340 c 128,-1,2
 105 328 105 328 85 308 c 0,3,4
 82 305 82 305 78.5 301.5 c 128,-1,5
 75 298 75 298 73 294 c 1,6,-1
 145 294 l 1,7,-1
 145 259 l 1,8,9
 126 253 126 253 116.5 235.5 c 128,-1,10
 107 218 107 218 107 200 c 2,11,-1
 107 0 l 1,12,-1
 63 0 l 1,13,-1
 63 202 l 2,14,15
 63 222 63 222 70.5 234.5 c 128,-1,16
 78 247 78 247 92 259 c 1,17,-1
 33 259 l 1,18,-1
 33 316 l 1,19,20
 67 350 67 350 100.5 370 c 128,-1,21
 134 390 134 390 184 390 c 0,22,23
 211 390 211 390 237.5 383.5 c 128,-1,24
 264 377 264 377 285 363.5 c 128,-1,25
 306 350 306 350 319 328 c 128,-1,26
 332 306 332 306 332 276 c 2,27,-1
 332 0 l 1,28,-1
 287 0 l 1,29,-1
 287 259 l 2,30,31
 287 310 287 310 261.5 331 c 128,-1,32
 236 352 236 352 185 352 c 2,33,-1
 182 352 l 2,0,1
EndSplineSet
EndChar
StartChar: uni0E02
Encoding: 3586 3586 271
Width: 364
Flags: W
Fore
136 129 m 2,0,1
 136 153 136 153 146.5 173.5 c 128,-1,2
 157 194 157 194 169 213.5 c 128,-1,3
 181 233 181 233 191.5 253.5 c 128,-1,4
 202 274 202 274 202 297 c 256,5,6
 202 320 202 320 187 338 c 128,-1,7
 172 356 172 356 148 356 c 0,8,9
 118 356 118 356 106 331 c 1,10,11
 111 333 111 333 121 333 c 0,12,13
 144 333 144 333 156.5 318.5 c 128,-1,14
 169 304 169 304 169 283 c 0,15,16
 169 256 169 256 153 240.5 c 128,-1,17
 137 225 137 225 110 225 c 0,18,19
 86 225 86 225 67 240.5 c 128,-1,20
 48 256 48 256 48 282 c 0,21,22
 48 327 48 327 73.5 358.5 c 128,-1,23
 99 390 99 390 147 390 c 0,24,25
 191 390 191 390 217 364.5 c 128,-1,26
 243 339 243 339 243 294 c 0,27,28
 243 272 243 272 233 250.5 c 128,-1,29
 223 229 223 229 211.5 209 c 128,-1,30
 200 189 200 189 190 170.5 c 128,-1,31
 180 152 180 152 180 137 c 2,32,-1
 180 38 l 1,33,-1
 274 38 l 1,34,-1
 274 386 l 1,35,-1
 318 386 l 1,36,-1
 318 0 l 1,37,-1
 136 0 l 1,38,-1
 136 129 l 2,0,1
137 283 m 0,39,40
 137 292 137 292 132 299 c 128,-1,41
 127 306 127 306 116 306 c 256,42,43
 105 306 105 306 96.5 298.5 c 128,-1,44
 88 291 88 291 88 280 c 256,45,46
 88 269 88 269 95 260.5 c 128,-1,47
 102 252 102 252 114 252 c 0,48,49
 125 252 125 252 131 262 c 128,-1,50
 137 272 137 272 137 283 c 0,39,40
EndSplineSet
EndChar
StartChar: uni0E03
Encoding: 3587 3587 272
Width: 364
Flags: W
Fore
129 124 m 2,0,1
 129 148 129 148 141 172.5 c 128,-1,2
 153 197 153 197 168 221 c 128,-1,3
 183 245 183 245 195 270 c 128,-1,4
 207 295 207 295 207 320 c 0,5,6
 207 328 207 328 202.5 336 c 128,-1,7
 198 344 198 344 189 344 c 0,8,9
 182 344 182 344 177.5 340.5 c 128,-1,10
 173 337 173 337 169 333.5 c 128,-1,11
 165 330 165 330 160.5 326.5 c 128,-1,12
 156 323 156 323 148 323 c 0,13,14
 131 323 131 323 120.5 333.5 c 128,-1,15
 110 344 110 344 103 344 c 0,16,17
 92 344 92 344 88.5 337 c 128,-1,18
 85 330 85 330 85 319 c 2,19,-1
 85 308 l 1,20,21
 99 316 99 316 114 316 c 0,22,23
 137 316 137 316 150 300.5 c 128,-1,24
 163 285 163 285 163 263 c 0,25,26
 163 239 163 239 146.5 223.5 c 128,-1,27
 130 208 130 208 107 208 c 0,28,29
 89 208 89 208 77 217 c 128,-1,30
 65 226 65 226 58 240 c 128,-1,31
 51 254 51 254 48 270.5 c 128,-1,32
 45 287 45 287 45 302 c 0,33,34
 45 314 45 314 47.5 328.5 c 128,-1,35
 50 343 50 343 56 355.5 c 128,-1,36
 62 368 62 368 72.5 377 c 128,-1,37
 83 386 83 386 98 386 c 0,38,39
 106 386 106 386 114 382 c 128,-1,40
 122 378 122 378 129 373.5 c 128,-1,41
 136 369 136 369 141.5 365 c 128,-1,42
 147 361 147 361 150 361 c 0,43,44
 155 361 155 361 159 365 c 128,-1,45
 163 369 163 369 167.5 374.5 c 128,-1,46
 172 380 172 380 177.5 384 c 128,-1,47
 183 388 183 388 192 388 c 0,48,49
 207 388 207 388 218 381.5 c 128,-1,50
 229 375 229 375 235.5 365 c 128,-1,51
 242 355 242 355 245.5 342 c 128,-1,52
 249 329 249 329 249 316 c 0,53,54
 249 289 249 289 237.5 263.5 c 128,-1,55
 226 238 226 238 212.5 214 c 128,-1,56
 199 190 199 190 187.5 168 c 128,-1,57
 176 146 176 146 176 127 c 2,58,-1
 176 38 l 1,59,-1
 276 38 l 1,60,-1
 276 386 l 1,61,-1
 320 386 l 1,62,-1
 320 0 l 1,63,-1
 129 0 l 1,64,-1
 129 124 l 2,0,1
130 262 m 0,65,66
 130 271 130 271 125 277 c 128,-1,67
 120 283 120 283 110 283 c 0,68,69
 88 283 88 283 88 263 c 0,70,71
 88 254 88 254 93.5 246.5 c 128,-1,72
 99 239 99 239 107 239 c 0,73,74
 117 239 117 239 123.5 245.5 c 128,-1,75
 130 252 130 252 130 262 c 0,65,66
EndSplineSet
EndChar
StartChar: uni0E04
Encoding: 3588 3588 273
Width: 364
Flags: W
Fore
181 347 m 0,0,1
 125 347 125 347 99 322 c 128,-1,2
 73 297 73 297 73 241 c 0,3,4
 73 203 73 203 79.5 169.5 c 128,-1,5
 86 136 86 136 94 98 c 1,6,7
 97 114 97 114 101 136 c 128,-1,8
 105 158 105 158 110.5 181 c 128,-1,9
 116 204 116 204 122.5 224.5 c 128,-1,10
 129 245 129 245 136 258 c 0,11,12
 144 271 144 271 158 276 c 128,-1,13
 172 281 172 281 186 281 c 0,14,15
 215 281 215 281 231.5 264.5 c 128,-1,16
 248 248 248 248 248 218 c 0,17,18
 248 192 248 192 231.5 171.5 c 128,-1,19
 215 151 215 151 187 151 c 0,20,21
 164 151 164 151 147 166 c 1,22,23
 143 151 143 151 138 130.5 c 128,-1,24
 133 110 133 110 128.5 88 c 128,-1,25
 124 66 124 66 121.5 44.5 c 128,-1,26
 119 23 119 23 119 7 c 2,27,-1
 119 0 l 1,28,-1
 70 0 l 1,29,30
 67 31 67 31 60 60.5 c 128,-1,31
 53 90 53 90 46 120 c 128,-1,32
 39 150 39 150 34 180.5 c 128,-1,33
 29 211 29 211 29 242 c 0,34,35
 29 316 29 316 71 350 c 128,-1,36
 113 384 113 384 180 384 c 0,37,38
 207 384 207 384 233 378 c 128,-1,39
 259 372 259 372 279.5 358.5 c 128,-1,40
 300 345 300 345 312 323 c 128,-1,41
 324 301 324 301 324 269 c 2,42,-1
 324 0 l 1,43,-1
 280 0 l 1,44,-1
 280 262 l 2,45,46
 280 308 280 308 254.5 327.5 c 128,-1,47
 229 347 229 347 181 347 c 0,0,1
214 215 m 0,48,49
 214 229 214 229 208 238 c 128,-1,50
 202 247 202 247 187 247 c 0,51,52
 175 247 175 247 167 236.5 c 128,-1,53
 159 226 159 226 159 215 c 0,54,55
 159 185 159 185 189 185 c 0,56,57
 201 185 201 185 207.5 194.5 c 128,-1,58
 214 204 214 204 214 215 c 0,48,49
EndSplineSet
EndChar
StartChar: uni0E05
Encoding: 3589 3589 274
Width: 364
Flags: W
Fore
198 315 m 1,0,1
 188 315 188 315 179.5 319.5 c 128,-1,2
 171 324 171 324 163.5 329.5 c 128,-1,3
 156 335 156 335 148 339.5 c 128,-1,4
 140 344 140 344 130 344 c 0,5,6
 115 344 115 344 104.5 334 c 128,-1,7
 94 324 94 324 87.5 309.5 c 128,-1,8
 81 295 81 295 77.5 279 c 128,-1,9
 74 263 74 263 74 251 c 0,10,11
 74 212 74 212 83.5 175.5 c 128,-1,12
 93 139 93 139 104 103 c 1,13,14
 109 127 109 127 114 151.5 c 128,-1,15
 119 176 119 176 124 200 c 0,16,17
 127 214 127 214 131.5 228 c 128,-1,18
 136 242 136 242 143.5 253 c 128,-1,19
 151 264 151 264 163 271 c 128,-1,20
 175 278 175 278 193 278 c 0,21,22
 222 278 222 278 239.5 263 c 128,-1,23
 257 248 257 248 257 218 c 0,24,25
 257 191 257 191 238.5 170.5 c 128,-1,26
 220 150 220 150 192 150 c 0,27,28
 170 150 170 150 158 165 c 1,29,-1
 121 0 l 1,30,-1
 78 0 l 1,31,32
 75 33 75 33 66.5 64 c 128,-1,33
 58 95 58 95 50 125.5 c 128,-1,34
 42 156 42 156 35.5 187 c 128,-1,35
 29 218 29 218 29 251 c 0,36,37
 29 274 29 274 35.5 298 c 128,-1,38
 42 322 42 322 55.5 342 c 128,-1,39
 69 362 69 362 89 375 c 128,-1,40
 109 388 109 388 135 388 c 0,41,42
 144 388 144 388 150.5 383 c 128,-1,43
 157 378 157 378 163.5 371.5 c 128,-1,44
 170 365 170 365 178 360 c 128,-1,45
 186 355 186 355 196 355 c 0,46,47
 207 355 207 355 216.5 360 c 128,-1,48
 226 365 226 365 234 371.5 c 128,-1,49
 242 378 242 378 248 383 c 128,-1,50
 254 388 254 388 258 388 c 0,51,52
 266 388 266 388 269.5 385.5 c 128,-1,53
 273 383 273 383 279 378 c 0,54,55
 308 356 308 356 322 330.5 c 128,-1,56
 336 305 336 305 336 268 c 2,57,-1
 336 0 l 1,58,-1
 292 0 l 1,59,-1
 292 263 l 2,60,61
 292 272 292 272 290.5 286 c 128,-1,62
 289 300 289 300 285 312.5 c 128,-1,63
 281 325 281 325 273.5 334 c 128,-1,64
 266 343 266 343 254 343 c 1,65,-1
 198 315 l 1,0,1
220 215 m 256,66,67
 220 226 220 226 213 234 c 128,-1,68
 206 242 206 242 195 242 c 0,69,70
 183 242 183 242 175 233 c 128,-1,71
 167 224 167 224 167 213 c 0,72,73
 167 201 167 201 175 194 c 128,-1,74
 183 187 183 187 195 187 c 0,75,76
 206 187 206 187 213 195.5 c 128,-1,77
 220 204 220 204 220 215 c 256,66,67
EndSplineSet
EndChar
StartChar: uni0E06
Encoding: 3590 3590 275
Width: 364
Flags: W
Fore
291 0 m 1,0,1
 264 28 264 28 235.5 59.5 c 128,-1,2
 207 91 207 91 175 118 c 1,3,-1
 175 32 l 2,4,5
 175 20 175 20 169.5 12 c 128,-1,6
 164 4 164 4 155.5 -0.5 c 128,-1,7
 147 -5 147 -5 136.5 -7 c 128,-1,8
 126 -9 126 -9 116 -9 c 0,9,10
 99 -9 99 -9 86 -1 c 128,-1,11
 73 7 73 7 64.5 20 c 128,-1,12
 56 33 56 33 51.5 48.5 c 128,-1,13
 47 64 47 64 47 79 c 0,14,15
 47 96 47 96 53.5 112 c 128,-1,16
 60 128 60 128 71.5 140 c 128,-1,17
 83 152 83 152 98 159.5 c 128,-1,18
 113 167 113 167 130 167 c 1,19,20
 130 180 130 180 134 193 c 0,21,22
 139 211 139 211 149.5 225 c 128,-1,23
 160 239 160 239 170.5 252.5 c 128,-1,24
 181 266 181 266 189 281.5 c 128,-1,25
 197 297 197 297 197 319 c 0,26,27
 197 329 197 329 195 337 c 128,-1,28
 193 345 193 345 181 345 c 0,29,30
 170 345 170 345 160.5 334 c 128,-1,31
 151 323 151 323 143 323 c 0,32,33
 134 323 134 323 126.5 327 c 128,-1,34
 119 331 119 331 112 335.5 c 128,-1,35
 105 340 105 340 99.5 343.5 c 128,-1,36
 94 347 94 347 89 347 c 0,37,38
 78 347 78 347 76 334 c 128,-1,39
 74 321 74 321 73 313 c 1,40,41
 86 321 86 321 101 321 c 0,42,43
 124 321 124 321 135 304.5 c 128,-1,44
 146 288 146 288 146 268 c 0,45,46
 146 242 146 242 129.5 229 c 128,-1,47
 113 216 113 216 89 216 c 0,48,49
 73 216 73 216 62 224 c 128,-1,50
 51 232 51 232 43.5 244.5 c 128,-1,51
 36 257 36 257 32.5 272 c 128,-1,52
 29 287 29 287 29 300 c 0,53,54
 29 309 29 309 31 324.5 c 128,-1,55
 33 340 33 340 37.5 354 c 128,-1,56
 42 368 42 368 50 378.5 c 128,-1,57
 58 389 58 389 71 389 c 0,58,59
 83 389 83 389 92.5 384.5 c 128,-1,60
 102 380 102 380 110 374 c 128,-1,61
 118 368 118 368 124.5 363.5 c 128,-1,62
 131 359 131 359 137 359 c 0,63,64
 145 359 145 359 150.5 364 c 128,-1,65
 156 369 156 369 161.5 374.5 c 128,-1,66
 167 380 167 380 172.5 385 c 128,-1,67
 178 390 178 390 187 390 c 0,68,69
 202 390 202 390 212 383 c 128,-1,70
 222 376 222 376 227.5 365 c 128,-1,71
 233 354 233 354 235.5 341 c 128,-1,72
 238 328 238 328 238 315 c 0,73,74
 238 292 238 292 228.5 273 c 128,-1,75
 219 254 219 254 207 237.5 c 128,-1,76
 195 221 195 221 185.5 205.5 c 128,-1,77
 176 190 176 190 176 173 c 2,78,-1
 176 164 l 1,79,80
 210 137 210 137 237 113.5 c 128,-1,81
 264 90 264 90 292 62 c 1,82,-1
 292 387 l 1,83,-1
 336 387 l 1,84,-1
 336 0 l 1,85,-1
 293 0 l 1,86,-1
 291 0 l 1,0,1
114 268 m 0,87,88
 114 276 114 276 108 283 c 128,-1,89
 102 290 102 290 94 290 c 0,90,91
 84 290 84 290 77.5 283.5 c 128,-1,92
 71 277 71 277 71 267 c 0,93,94
 71 259 71 259 77.5 251.5 c 128,-1,95
 84 244 84 244 92 244 c 0,96,97
 102 244 102 244 108 251.5 c 128,-1,98
 114 259 114 259 114 268 c 0,87,88
130 130 m 1,99,100
 112 126 112 126 101.5 110 c 128,-1,101
 91 94 91 94 91 76 c 0,102,103
 91 70 91 70 92.5 62 c 128,-1,104
 94 54 94 54 97 46.5 c 128,-1,105
 100 39 100 39 105 33.5 c 128,-1,106
 110 28 110 28 117 28 c 0,107,108
 125 28 125 28 127.5 38.5 c 128,-1,109
 130 49 130 49 130 54 c 2,110,-1
 130 130 l 1,111,-1
 130 130 l 1,99,100
EndSplineSet
EndChar
StartChar: uni0E07
Encoding: 3591 3591 276
Width: 364
Flags: W
Fore
263 262 m 1,0,1
 250 257 250 257 237 257 c 0,2,3
 208 257 208 257 185.5 275 c 128,-1,4
 163 293 163 293 163 323 c 0,5,6
 163 355 163 355 184 374 c 128,-1,7
 205 393 205 393 235 393 c 0,8,9
 266 393 266 393 286.5 374.5 c 128,-1,10
 307 356 307 356 307 325 c 2,11,-1
 307 0 l 1,12,-1
 229 0 l 1,13,-1
 76 186 l 1,14,-1
 132 186 l 1,15,-1
 263 33 l 1,16,-1
 263 262 l 1,17,-1
 263 262 l 1,0,1
263 323 m 256,18,19
 263 335 263 335 256 345.5 c 128,-1,20
 249 356 249 356 235 356 c 0,21,22
 220 356 220 356 215 346 c 128,-1,23
 210 336 210 336 210 323 c 0,24,25
 210 291 210 291 240 291 c 0,26,27
 253 291 253 291 258 301 c 128,-1,28
 263 311 263 311 263 323 c 256,18,19
EndSplineSet
EndChar
StartChar: uni0E08
Encoding: 3592 3592 277
Width: 364
Flags: W
Fore
324 248 m 0,0,1
 324 243 324 243 323.5 238 c 128,-1,2
 323 233 323 233 322 228 c 1,3,-1
 310 0 l 1,4,-1
 204 0 l 1,5,-1
 182 142 l 1,6,7
 164 129 164 129 145 129 c 0,8,9
 114 129 114 129 95 151.5 c 128,-1,10
 76 174 76 174 76 203 c 0,11,12
 76 233 76 233 98.5 249 c 128,-1,13
 121 265 121 265 148 265 c 0,14,15
 169 265 169 265 182 257.5 c 128,-1,16
 195 250 195 250 202.5 237 c 128,-1,17
 210 224 210 224 214 208.5 c 128,-1,18
 218 193 218 193 221 176 c 2,19,-1
 241 38 l 1,20,-1
 273 38 l 1,21,22
 275 92 275 92 276.5 143.5 c 128,-1,23
 278 195 278 195 278 247 c 0,24,25
 278 296 278 296 257.5 322 c 128,-1,26
 237 348 237 348 186 348 c 0,27,28
 144 348 144 348 105 329 c 128,-1,29
 66 310 66 310 40 278 c 1,30,-1
 40 332 l 1,31,32
 66 364 66 364 107.5 377 c 128,-1,33
 149 390 149 390 188 390 c 0,34,35
 260 390 260 390 292 354 c 128,-1,36
 324 318 324 318 324 248 c 0,0,1
173 197 m 256,37,38
 173 208 173 208 165 217.5 c 128,-1,39
 157 227 157 227 145 227 c 0,40,41
 117 227 117 227 117 197 c 0,42,43
 117 186 117 186 125.5 176.5 c 128,-1,44
 134 167 134 167 145 167 c 0,45,46
 157 167 157 167 165 176.5 c 128,-1,47
 173 186 173 186 173 197 c 256,37,38
EndSplineSet
EndChar
StartChar: uni0E09
Encoding: 3593 3593 278
Width: 364
Flags: W
Fore
353 58 m 0,0,1
 353 30 353 30 335 10.5 c 128,-1,2
 317 -9 317 -9 289 -9 c 0,3,4
 263 -9 263 -9 246.5 8 c 128,-1,5
 230 25 230 25 230 51 c 0,6,7
 230 68 230 68 236 81 c 1,8,9
 211 67 211 67 192.5 46 c 128,-1,10
 174 25 174 25 161 0 c 1,11,-1
 118 0 l 1,12,-1
 118 123 l 1,13,14
 105 117 105 117 89 117 c 0,15,16
 63 117 63 117 45 132 c 128,-1,17
 27 147 27 147 27 174 c 0,18,19
 27 205 27 205 46.5 224 c 128,-1,20
 66 243 66 243 97 243 c 0,21,22
 135 243 135 243 148.5 220 c 128,-1,23
 162 197 162 197 162 164 c 2,24,-1
 162 64 l 1,25,26
 188 89 188 89 203.5 98 c 128,-1,27
 219 107 219 107 229 112 c 0,28,29
 243 120 243 120 259.5 130.5 c 128,-1,30
 276 141 276 141 276 160 c 2,31,-1
 276 255 l 2,32,33
 276 306 276 306 251 329 c 128,-1,34
 226 352 226 352 176 352 c 0,35,36
 155 352 155 352 132.5 345 c 128,-1,37
 110 338 110 338 88 327 c 128,-1,38
 66 316 66 316 46 302.5 c 128,-1,39
 26 289 26 289 10 275 c 1,40,-1
 10 333 l 1,41,42
 25 346 25 346 44.5 356.5 c 128,-1,43
 64 367 64 367 86 374.5 c 128,-1,44
 108 382 108 382 130.5 386.5 c 128,-1,45
 153 391 153 391 172 391 c 0,46,47
 201 391 201 391 227.5 384.5 c 128,-1,48
 254 378 254 378 275 364 c 128,-1,49
 296 350 296 350 308.5 327 c 128,-1,50
 321 304 321 304 321 271 c 2,51,-1
 321 155 l 2,52,53
 321 144 321 144 317 134.5 c 128,-1,54
 313 125 313 125 304 118 c 1,55,56
 326 113 326 113 339.5 97 c 128,-1,57
 353 81 353 81 353 58 c 0,0,1
314 55 m 256,58,59
 314 66 314 66 309.5 76 c 128,-1,60
 305 86 305 86 293 86 c 0,61,62
 279 86 279 86 273 77 c 128,-1,63
 267 68 267 68 267 55 c 0,64,65
 267 44 267 44 272 33 c 128,-1,66
 277 22 277 22 291 22 c 256,67,68
 305 22 305 22 309.5 33 c 128,-1,69
 314 44 314 44 314 55 c 256,58,59
121 179 m 0,70,71
 121 206 121 206 93 206 c 0,72,73
 82 206 82 206 75 198 c 128,-1,74
 68 190 68 190 68 179 c 256,75,76
 68 168 68 168 75 160 c 128,-1,77
 82 152 82 152 93 152 c 256,78,79
 104 152 104 152 112.5 159.5 c 128,-1,80
 121 167 121 167 121 179 c 0,70,71
EndSplineSet
EndChar
StartChar: uni0E0A
Encoding: 3594 3594 279
Width: 364
Flags: W
Fore
107 131 m 1,0,1
 107 155 107 155 118.5 176 c 128,-1,2
 130 197 130 197 143.5 217 c 128,-1,3
 157 237 157 237 168.5 257 c 128,-1,4
 180 277 180 277 180 301 c 0,5,6
 180 326 180 326 168.5 340.5 c 128,-1,7
 157 355 157 355 132 355 c 0,8,9
 112 355 112 355 100 347.5 c 128,-1,10
 88 340 88 340 76 324 c 1,11,12
 87 327 87 327 91.5 327.5 c 128,-1,13
 96 328 96 328 103 328 c 0,14,15
 123 328 123 328 135 311 c 128,-1,16
 147 294 147 294 147 276 c 0,17,18
 147 250 147 250 131.5 235 c 128,-1,19
 116 220 116 220 91 220 c 0,20,21
 59 220 59 220 44 240.5 c 128,-1,22
 29 261 29 261 29 291 c 0,23,24
 29 336 29 336 57.5 363 c 128,-1,25
 86 390 86 390 131 390 c 0,26,27
 180 390 180 390 200.5 368 c 128,-1,28
 221 346 221 346 221 295 c 0,29,30
 221 271 221 271 210 250.5 c 128,-1,31
 199 230 199 230 186.5 210.5 c 128,-1,32
 174 191 174 191 163 171.5 c 128,-1,33
 152 152 152 152 152 131 c 0,34,35
 152 107 152 107 152 84.5 c 128,-1,36
 152 62 152 62 151 38 c 1,37,-1
 269 38 l 1,38,-1
 269 212 l 2,39,40
 269 222 269 222 267.5 233.5 c 128,-1,41
 266 245 266 245 262 255 c 128,-1,42
 258 265 258 265 250 272 c 128,-1,43
 242 279 242 279 230 281 c 1,44,-1
 230 314 l 1,45,46
 261 328 261 328 276 348.5 c 128,-1,47
 291 369 291 369 291 404 c 1,48,-1
 342 404 l 1,49,-1
 342 395 l 2,50,51
 342 383 342 383 335.5 367 c 128,-1,52
 329 351 329 351 318.5 336.5 c 128,-1,53
 308 322 308 322 295.5 311 c 128,-1,54
 283 300 283 300 270 297 c 1,55,56
 292 289 292 289 302.5 265 c 128,-1,57
 313 241 313 241 313 219 c 2,58,-1
 313 0 l 1,59,-1
 107 0 l 1,60,-1
 107 135 l 1,61,-1
 107 131 l 1,0,1
115 273 m 256,62,63
 115 282 115 282 108 289.5 c 128,-1,64
 101 297 101 297 92 297 c 0,65,66
 84 297 84 297 76.5 291 c 128,-1,67
 69 285 69 285 69 277 c 0,68,69
 69 266 69 266 75.5 258.5 c 128,-1,70
 82 251 82 251 92 251 c 0,71,72
 101 251 101 251 108 257.5 c 128,-1,73
 115 264 115 264 115 273 c 256,62,63
EndSplineSet
EndChar
StartChar: uni0E0B
Encoding: 3595 3595 280
Width: 364
Flags: W
Fore
217 299 m 0,0,1
 217 275 217 275 206.5 254 c 128,-1,2
 196 233 196 233 184 213 c 128,-1,3
 172 193 172 193 161.5 172.5 c 128,-1,4
 151 152 151 152 151 129 c 2,5,-1
 151 38 l 1,6,-1
 268 38 l 1,7,-1
 268 212 l 2,8,9
 268 222 268 222 266 234.5 c 128,-1,10
 264 247 264 247 259.5 257.5 c 128,-1,11
 255 268 255 268 246.5 275 c 128,-1,12
 238 282 238 282 225 282 c 1,13,-1
 225 314 l 1,14,15
 255 328 255 328 273.5 348.5 c 128,-1,16
 292 369 292 369 292 404 c 1,17,-1
 342 404 l 1,18,-1
 342 394 l 2,19,20
 342 382 342 382 335.5 367 c 128,-1,21
 329 352 329 352 318.5 337.5 c 128,-1,22
 308 323 308 323 295.5 312.5 c 128,-1,23
 283 302 283 302 270 299 c 1,24,25
 292 290 292 290 302.5 265.5 c 128,-1,26
 313 241 313 241 313 220 c 2,27,-1
 313 0 l 1,28,-1
 106 0 l 1,29,-1
 106 132 l 2,30,31
 106 156 106 156 117.5 177.5 c 128,-1,32
 129 199 129 199 142.5 220 c 128,-1,33
 156 241 156 241 167 262 c 128,-1,34
 178 283 178 283 178 307 c 0,35,36
 178 318 178 318 175.5 331.5 c 128,-1,37
 173 345 173 345 158 345 c 0,38,39
 152 345 152 345 149 341.5 c 128,-1,40
 146 338 146 338 143 333.5 c 128,-1,41
 140 329 140 329 136.5 325.5 c 128,-1,42
 133 322 133 322 127 322 c 0,43,44
 120 322 120 322 114.5 326 c 128,-1,45
 109 330 109 330 104 334.5 c 128,-1,46
 99 339 99 339 95 343 c 128,-1,47
 91 347 91 347 86 347 c 0,48,49
 70 347 70 347 67 334.5 c 128,-1,50
 64 322 64 322 64 309 c 1,51,52
 81 319 81 319 97 319 c 0,53,54
 117 319 117 319 129.5 305 c 128,-1,55
 142 291 142 291 142 271 c 0,56,57
 142 247 142 247 127 230.5 c 128,-1,58
 112 214 112 214 88 214 c 0,59,60
 71 214 71 214 59 222.5 c 128,-1,61
 47 231 47 231 39.5 244 c 128,-1,62
 32 257 32 257 28.5 273 c 128,-1,63
 25 289 25 289 25 303 c 0,64,65
 25 315 25 315 27.5 330 c 128,-1,66
 30 345 30 345 36 358 c 128,-1,67
 42 371 42 371 52 380 c 128,-1,68
 62 389 62 389 77 389 c 0,69,70
 86 389 86 389 92 384 c 128,-1,71
 98 379 98 379 102.5 373.5 c 128,-1,72
 107 368 107 368 112.5 363 c 128,-1,73
 118 358 118 358 125 358 c 0,74,75
 131 358 131 358 135 363 c 128,-1,76
 139 368 139 368 143 373.5 c 128,-1,77
 147 379 147 379 152 384 c 128,-1,78
 157 389 157 389 166 389 c 0,79,80
 184 389 184 389 194 380 c 128,-1,81
 204 371 204 371 209.5 357.5 c 128,-1,82
 215 344 215 344 216 328.5 c 128,-1,83
 217 313 217 313 217 299 c 0,0,1
112 267 m 0,84,85
 112 275 112 275 105.5 282 c 128,-1,86
 99 289 99 289 91 289 c 0,87,88
 81 289 81 289 75.5 282.5 c 128,-1,89
 70 276 70 276 70 267 c 0,90,91
 70 257 70 257 75.5 250.5 c 128,-1,92
 81 244 81 244 91 244 c 256,93,94
 101 244 101 244 106.5 251 c 128,-1,95
 112 258 112 258 112 267 c 0,84,85
EndSplineSet
EndChar
StartChar: uni0E0C
Encoding: 3596 3596 281
Width: 364
Flags: W
Fore
308 22 m 1,0,-1
 308 23 l 2,1,2
 308 28 308 28 306.5 31.5 c 128,-1,3
 305 35 305 35 300.5 41.5 c 128,-1,4
 296 48 296 48 286 58.5 c 128,-1,5
 276 69 276 69 259 87 c 1,6,-1
 259 42 l 2,7,8
 259 23 259 23 248 7 c 128,-1,9
 237 -9 237 -9 217 -9 c 0,10,11
 187 -9 187 -9 175 12 c 128,-1,12
 163 33 163 33 163 62 c 256,13,14
 163 91 163 91 177.5 106.5 c 128,-1,15
 192 122 192 122 216 126 c 1,16,-1
 216 282 l 2,17,18
 216 318 216 318 196 336.5 c 128,-1,19
 176 355 176 355 142 355 c 0,20,21
 110 355 110 355 89.5 343 c 128,-1,22
 69 331 69 331 46 303 c 1,23,-1
 97 303 l 1,24,-1
 97 274 l 1,25,26
 82 270 82 270 74 254.5 c 128,-1,27
 66 239 66 239 66 222 c 2,28,-1
 66 113 l 1,29,30
 80 122 80 122 97 122 c 0,31,32
 126 122 126 122 139 105.5 c 128,-1,33
 152 89 152 89 152 62 c 0,34,35
 152 36 152 36 135.5 13.5 c 128,-1,36
 119 -9 119 -9 91 -9 c 0,37,38
 56 -9 56 -9 39 16 c 128,-1,39
 22 41 22 41 22 73 c 2,40,-1
 22 201 l 2,41,42
 22 214 22 214 23 223 c 128,-1,43
 24 232 24 232 27 240 c 128,-1,44
 30 248 30 248 35.5 256 c 128,-1,45
 41 264 41 264 50 273 c 1,46,-1
 13 273 l 1,47,-1
 13 313 l 1,48,49
 27 329 27 329 40.5 343 c 128,-1,50
 54 357 54 357 69 367 c 128,-1,51
 84 377 84 377 102 383 c 128,-1,52
 120 389 120 389 144 389 c 0,53,54
 165 389 165 389 186 383.5 c 128,-1,55
 207 378 207 378 223 366.5 c 128,-1,56
 239 355 239 355 249 336.5 c 128,-1,57
 259 318 259 318 259 291 c 2,58,-1
 259 122 l 1,59,60
 269 114 269 114 274.5 109.5 c 128,-1,61
 280 105 280 105 284 101 c 128,-1,62
 288 97 288 97 293 93 c 128,-1,63
 298 89 298 89 307 81 c 1,64,-1
 307 387 l 1,65,-1
 351 387 l 1,66,-1
 351 0 l 1,67,-1
 308 0 l 1,68,-1
 308 22 l 1,0,-1
217 99 m 1,69,70
 203 93 203 93 198 84 c 128,-1,71
 193 75 193 75 193 58 c 0,72,73
 193 54 193 54 193.5 47.5 c 128,-1,74
 194 41 194 41 195.5 35 c 128,-1,75
 197 29 197 29 201 24.5 c 128,-1,76
 205 20 205 20 212 20 c 0,77,78
 215 20 215 20 216 29 c 128,-1,79
 217 38 217 38 217 40 c 2,80,-1
 217 99 l 1,69,70
119 62 m 0,81,82
 119 92 119 92 90 92 c 0,83,84
 76 92 76 92 70 84 c 128,-1,85
 64 76 64 76 64 62 c 0,86,87
 64 49 64 49 69.5 36 c 128,-1,88
 75 23 75 23 91 23 c 0,89,90
 106 23 106 23 112.5 36 c 128,-1,91
 119 49 119 49 119 62 c 0,81,82
EndSplineSet
EndChar
StartChar: uni0E0D
Encoding: 3597 3597 282
Width: 364
Flags: W
Fore
137 360 m 0,0,1
 118 360 118 360 105 357.5 c 128,-1,2
 92 355 92 355 82.5 348.5 c 128,-1,3
 73 342 73 342 65 331 c 128,-1,4
 57 320 57 320 49 303 c 1,5,-1
 104 303 l 1,6,-1
 104 276 l 1,7,8
 88 272 88 272 80.5 257 c 128,-1,9
 73 242 73 242 73 226 c 2,10,-1
 73 115 l 1,11,12
 81 121 81 121 89 123 c 128,-1,13
 97 125 97 125 106 125 c 0,14,15
 135 125 135 125 148 108.5 c 128,-1,16
 161 92 161 92 161 65 c 0,17,18
 161 37 161 37 145.5 14 c 128,-1,19
 130 -9 130 -9 99 -9 c 0,20,21
 81 -9 81 -9 67.5 -1 c 128,-1,22
 54 7 54 7 45.5 19.5 c 128,-1,23
 37 32 37 32 33 48.5 c 128,-1,24
 29 65 29 65 29 81 c 2,25,-1
 29 206 l 2,26,27
 29 230 29 230 33.5 243.5 c 128,-1,28
 38 257 38 257 55 274 c 1,29,-1
 16 274 l 1,30,-1
 16 318 l 1,31,32
 32 340 32 340 43.5 354.5 c 128,-1,33
 55 369 55 369 67 377.5 c 128,-1,34
 79 386 79 386 95 389.5 c 128,-1,35
 111 393 111 393 136 393 c 0,36,37
 193 393 193 393 214.5 360.5 c 128,-1,38
 236 328 236 328 236 269 c 2,39,-1
 236 38 l 1,40,-1
 305 38 l 1,41,-1
 305 384 l 1,42,-1
 350 384 l 1,43,-1
 350 0 l 1,44,-1
 191 0 l 1,45,-1
 191 271 l 2,46,47
 191 286 191 286 189.5 301.5 c 128,-1,48
 188 317 188 317 182.5 330 c 128,-1,49
 177 343 177 343 166 351.5 c 128,-1,50
 155 360 155 360 137 360 c 0,0,1
348 -47 m 1,51,52
 348 -56 348 -56 345 -68.5 c 128,-1,53
 342 -81 342 -81 337 -89 c 0,54,55
 322 -117 322 -117 294.5 -127 c 128,-1,56
 267 -137 267 -137 236 -137 c 0,57,58
 224 -137 224 -137 211 -134 c 128,-1,59
 198 -131 198 -131 187 -124 c 128,-1,60
 176 -117 176 -117 169 -106.5 c 128,-1,61
 162 -96 162 -96 162 -82 c 0,62,63
 162 -59 162 -59 174 -44 c 128,-1,64
 186 -29 186 -29 209 -29 c 0,65,66
 230 -29 230 -29 246.5 -39 c 128,-1,67
 263 -49 263 -49 263 -73 c 0,68,69
 263 -83 263 -83 258 -91 c 128,-1,70
 253 -99 253 -99 247 -107 c 1,71,72
 263 -107 263 -107 278 -99 c 128,-1,73
 293 -91 293 -91 298 -76 c 0,74,75
 301 -67 301 -67 301 -57.5 c 128,-1,76
 301 -48 301 -48 302 -39 c 1,77,-1
 348 -39 l 1,78,-1
 348 -47 l 1,79,-1
 348 -47 l 1,51,52
231 -76 m 0,80,81
 231 -66 231 -66 227 -59 c 128,-1,82
 223 -52 223 -52 212 -52 c 256,83,84
 201 -52 201 -52 197 -61 c 128,-1,85
 193 -70 193 -70 193 -79 c 256,86,87
 193 -88 193 -88 198 -94 c 128,-1,88
 203 -100 203 -100 212 -100 c 256,89,90
 221 -100 221 -100 226 -92.5 c 128,-1,91
 231 -85 231 -85 231 -76 c 0,80,81
127 60 m 0,92,93
 127 74 127 74 121.5 84.5 c 128,-1,94
 116 95 116 95 99 95 c 0,95,96
 85 95 85 95 78 85.5 c 128,-1,97
 71 76 71 76 71 62 c 0,98,99
 71 49 71 49 78 34 c 128,-1,100
 85 19 85 19 101 19 c 0,101,102
 114 19 114 19 120.5 34 c 128,-1,103
 127 49 127 49 127 60 c 0,92,93
EndSplineSet
Substitution: 0 65534 'L019' uni0E0D.alt1
Substitution: 0 65534 'L019' uni0E0D.alt1
EndChar
StartChar: uni0E0E
Encoding: 3598 3598 283
Width: 364
Flags: W
Fore
345 -166 m 1,0,-1
 301 -166 l 1,1,2
 282 -152 282 -152 267.5 -141 c 128,-1,3
 253 -130 253 -130 232 -114 c 1,4,5
 224 -145 224 -145 205 -158.5 c 128,-1,6
 186 -172 186 -172 155 -172 c 0,7,8
 128 -172 128 -172 105.5 -157.5 c 128,-1,9
 83 -143 83 -143 83 -113 c 0,10,11
 83 -81 83 -81 104.5 -64.5 c 128,-1,12
 126 -48 126 -48 155 -48 c 0,13,14
 166 -48 166 -48 175 -51 c 128,-1,15
 184 -54 184 -54 194 -58 c 1,16,-1
 194 -14 l 1,17,-1
 238 -14 l 1,18,-1
 238 -74 l 1,19,20
 257 -87 257 -87 269.5 -96.5 c 128,-1,21
 282 -106 282 -106 301 -119 c 1,22,-1
 301 250 l 2,23,24
 301 297 301 297 283.5 325 c 128,-1,25
 266 353 266 353 216 353 c 0,26,27
 182 353 182 353 154 344 c 128,-1,28
 126 335 126 335 104 306 c 1,29,-1
 185 306 l 1,30,-1
 185 271 l 1,31,32
 179 267 179 267 173 262.5 c 128,-1,33
 167 258 167 258 162 253 c 1,34,35
 154 242 154 242 151.5 228.5 c 128,-1,36
 149 215 149 215 149 201 c 2,37,-1
 149 102 l 2,38,39
 149 84 149 84 147.5 64 c 128,-1,40
 146 44 146 44 139.5 28 c 128,-1,41
 133 12 133 12 119.5 1.5 c 128,-1,42
 106 -9 106 -9 82 -9 c 0,43,44
 53 -9 53 -9 35 12.5 c 128,-1,45
 17 34 17 34 17 63 c 0,46,47
 17 89 17 89 34.5 106.5 c 128,-1,48
 52 124 52 124 78 124 c 0,49,50
 95 124 95 124 104 114 c 1,51,-1
 104 214 l 2,52,53
 104 235 104 235 112 246.5 c 128,-1,54
 120 258 120 258 134 273 c 1,55,-1
 68 273 l 1,56,-1
 68 319 l 1,57,58
 93 355 93 355 130 372.5 c 128,-1,59
 167 390 167 390 210 390 c 0,60,61
 279 390 279 390 313 358.5 c 128,-1,62
 347 327 347 327 347 254 c 2,63,-1
 345 -166 l 1,0,-1
110 61 m 0,64,65
 110 73 110 73 101 81 c 128,-1,66
 92 89 92 89 80 89 c 256,67,68
 68 89 68 89 61.5 79.5 c 128,-1,69
 55 70 55 70 55 59 c 0,70,71
 55 46 55 46 62 33.5 c 128,-1,72
 69 21 69 21 84 21 c 0,73,74
 101 21 101 21 105.5 34 c 128,-1,75
 110 47 110 47 110 61 c 0,64,65
194 -94 m 1,76,77
 184 -88 184 -88 172.5 -84 c 128,-1,78
 161 -80 161 -80 149 -80 c 0,79,80
 138 -80 138 -80 130.5 -90 c 128,-1,81
 123 -100 123 -100 123 -111 c 256,82,83
 123 -122 123 -122 133.5 -130 c 128,-1,84
 144 -138 144 -138 155 -138 c 0,85,86
 171 -138 171 -138 182.5 -129.5 c 128,-1,87
 194 -121 194 -121 194 -104 c 2,88,-1
 194 -94 l 1,89,-1
 194 -94 l 1,76,77
EndSplineSet
Substitution: 0 65534 'L019' uni0E0E.alt1
Substitution: 0 65534 'L019' uni0E0E.alt1
EndChar
StartChar: uni0E0F
Encoding: 3599 3599 284
Width: 364
Flags: W
Fore
345 222 m 1,0,-1
 345 -169 l 1,1,-1
 292 -169 l 1,2,-1
 255 -124 l 1,3,-1
 227 -167 l 1,4,-1
 205 -167 l 1,5,-1
 180 -134 l 1,6,7
 161 -155 161 -155 146 -163.5 c 128,-1,8
 131 -172 131 -172 101 -172 c 0,9,10
 76 -172 76 -172 53.5 -155.5 c 128,-1,11
 31 -139 31 -139 31 -112 c 256,12,13
 31 -85 31 -85 52.5 -69 c 128,-1,14
 74 -53 74 -53 99 -53 c 0,15,16
 116 -53 116 -53 132 -59 c 128,-1,17
 148 -65 148 -65 164 -73 c 1,18,-1
 164 -20 l 1,19,-1
 208 -20 l 1,20,-1
 208 -50 l 2,21,22
 208 -63 208 -63 207 -75 c 128,-1,23
 206 -87 206 -87 201 -98 c 1,24,25
 206 -103 206 -103 209.5 -108.5 c 128,-1,26
 213 -114 213 -114 218 -119 c 1,27,-1
 256 -70 l 1,28,-1
 301 -122 l 1,29,-1
 301 266 l 2,30,31
 301 314 301 314 276.5 335 c 128,-1,32
 252 356 252 356 208 356 c 0,33,34
 175 356 175 356 151.5 345.5 c 128,-1,35
 128 335 128 335 107 307 c 1,36,-1
 186 307 l 1,37,-1
 186 271 l 1,38,39
 171 264 171 264 160 247 c 128,-1,40
 149 230 149 230 149 213 c 2,41,-1
 149 93 l 2,42,43
 149 74 149 74 147 56 c 128,-1,44
 145 38 145 38 138 23.5 c 128,-1,45
 131 9 131 9 117.5 0 c 128,-1,46
 104 -9 104 -9 81 -9 c 0,47,48
 51 -9 51 -9 34.5 13.5 c 128,-1,49
 18 36 18 36 18 65 c 0,50,51
 18 91 18 91 34.5 108.5 c 128,-1,52
 51 126 51 126 77 126 c 0,53,54
 90 126 90 126 104 119 c 1,55,-1
 104 213 l 2,56,57
 104 233 104 233 111 245.5 c 128,-1,58
 118 258 118 258 133 271 c 1,59,-1
 69 271 l 1,60,-1
 69 326 l 1,61,62
 93 359 93 359 129 376 c 128,-1,63
 165 393 165 393 206 393 c 0,64,65
 224 393 224 393 242.5 390 c 128,-1,66
 261 387 261 387 278 380 c 128,-1,67
 295 373 295 373 309 361 c 128,-1,68
 323 349 323 349 332 332 c 0,69,70
 337 323 337 323 339.5 308.5 c 128,-1,71
 342 294 342 294 343 278.5 c 128,-1,72
 344 263 344 263 344.5 248.5 c 128,-1,73
 345 234 345 234 345 224 c 2,74,-1
 345 222 l 1,0,-1
109 56 m 0,75,76
 109 69 109 69 101.5 80 c 128,-1,77
 94 91 94 91 80 91 c 0,78,79
 69 91 69 91 63.5 78.5 c 128,-1,80
 58 66 58 66 58 57 c 0,81,82
 58 46 58 46 64.5 34 c 128,-1,83
 71 22 71 22 83 22 c 0,84,85
 99 22 99 22 104 32 c 128,-1,86
 109 42 109 42 109 56 c 0,75,76
155 -109 m 1,87,88
 145 -101 145 -101 129 -94 c 128,-1,89
 113 -87 113 -87 100 -87 c 0,90,91
 88 -87 88 -87 80.5 -95 c 128,-1,92
 73 -103 73 -103 73 -114 c 0,93,94
 73 -127 73 -127 85.5 -132 c 128,-1,95
 98 -137 98 -137 108 -137 c 0,96,97
 122 -137 122 -137 134.5 -128.5 c 128,-1,98
 147 -120 147 -120 155 -109 c 1,87,88
EndSplineSet
Substitution: 0 65534 'L019' uni0E0F.alt1
Substitution: 0 65534 'L019' uni0E0F.alt1
EndChar
StartChar: uni0E10
Encoding: 3600 3600 285
Width: 364
Flags: W
Fore
338 322 m 1,0,1
 331 318 331 318 322 317.5 c 128,-1,2
 313 317 313 317 305 317 c 2,3,-1
 294 317 l 2,4,5
 275 317 275 317 257.5 322.5 c 128,-1,6
 240 328 240 328 223 334.5 c 128,-1,7
 206 341 206 341 188.5 346.5 c 128,-1,8
 171 352 171 352 153 352 c 0,9,10
 128 352 128 352 114 337.5 c 128,-1,11
 100 323 100 323 89 303 c 1,12,-1
 160 303 l 2,13,14
 187 303 187 303 215.5 299.5 c 128,-1,15
 244 296 244 296 268 285.5 c 128,-1,16
 292 275 292 275 307 255 c 128,-1,17
 322 235 322 235 322 203 c 0,18,19
 322 199 322 199 321 192 c 128,-1,20
 320 185 320 185 317 164.5 c 128,-1,21
 314 144 314 144 308 106 c 128,-1,22
 302 68 302 68 291 0 c 1,23,-1
 217 0 l 1,24,-1
 177 132 l 1,25,26
 168 124 168 124 159.5 119 c 128,-1,27
 151 114 151 114 138 114 c 0,28,29
 112 114 112 114 92.5 130 c 128,-1,30
 73 146 73 146 73 172 c 0,31,32
 73 204 73 204 92.5 218.5 c 128,-1,33
 112 233 112 233 143 233 c 0,34,35
 156 233 156 233 166.5 225.5 c 128,-1,36
 177 218 177 218 184.5 206.5 c 128,-1,37
 192 195 192 195 197.5 182 c 128,-1,38
 203 169 203 169 207 158 c 2,39,-1
 247 37 l 1,40,-1
 256 37 l 1,41,42
 259 71 259 71 267.5 112.5 c 128,-1,43
 276 154 276 154 276 191 c 0,44,45
 276 206 276 206 273.5 220 c 128,-1,46
 271 234 271 234 259 245 c 0,47,48
 251 252 251 252 236 256 c 128,-1,49
 221 260 221 260 201.5 262.5 c 128,-1,50
 182 265 182 265 159 265.5 c 128,-1,51
 136 266 136 266 112 266 c 0,52,53
 102 266 102 266 92 265.5 c 128,-1,54
 82 265 82 265 73 260 c 1,55,-1
 29 260 l 1,56,57
 34 280 34 280 42 300.5 c 128,-1,58
 50 321 50 321 61.5 339 c 128,-1,59
 73 357 73 357 89.5 370 c 128,-1,60
 106 383 106 383 128 387 c 0,61,62
 138 389 138 389 147 389.5 c 128,-1,63
 156 390 156 390 166 390 c 0,64,65
 181 390 181 390 194.5 386.5 c 128,-1,66
 208 383 208 383 221 378.5 c 128,-1,67
 234 374 234 374 247.5 370 c 128,-1,68
 261 366 261 366 276 366 c 0,69,70
 293 366 293 366 308.5 367.5 c 128,-1,71
 324 369 324 369 338 378 c 1,72,-1
 338 322 l 1,73,-1
 338 322 l 1,0,1
303 -125 m 1,74,75
 303 -148 303 -148 290 -158 c 128,-1,76
 277 -168 277 -168 255 -168 c 2,77,-1
 201 -168 l 1,78,-1
 173 -139 l 1,79,-1
 145 -171 l 1,80,81
 133 -155 l 128,-1,82
 127 -147 127 -147 120 -139 c 1,83,-1
 118 -142 l 1,84,85
 107 -153 107 -153 94.5 -161.5 c 128,-1,86
 82 -170 82 -170 65 -170 c 0,87,88
 35 -170 35 -170 20.5 -153 c 128,-1,89
 6 -136 6 -136 6 -106 c 0,90,91
 6 -86 6 -86 22.5 -70 c 128,-1,92
 39 -54 39 -54 60 -54 c 0,93,94
 74 -54 74 -54 86 -59.5 c 128,-1,95
 98 -65 98 -65 108 -74 c 1,96,-1
 106 -26 l 1,97,-1
 151 -26 l 1,98,99
 152 -31 152 -31 152 -40 c 0,100,101
 152 -70 152 -70 143 -97 c 1,102,-1
 155 -112 l 1,103,-1
 178 -85 l 1,104,-1
 220 -129 l 2,105,106
 223 -133 223 -133 227.5 -134 c 128,-1,107
 232 -135 232 -135 237 -135 c 0,108,109
 243 -135 243 -135 252.5 -132.5 c 128,-1,110
 262 -130 262 -130 262 -122 c 2,111,-1
 262 -115 l 1,112,113
 241 -115 241 -115 225 -104 c 128,-1,114
 209 -93 209 -93 209 -70 c 0,115,116
 209 -50 209 -50 222 -37.5 c 128,-1,117
 235 -25 235 -25 255 -25 c 0,118,119
 278 -25 278 -25 290.5 -38 c 128,-1,120
 303 -51 303 -51 303 -73 c 2,121,-1
 303 -125 l 1,122,-1
 303 -125 l 1,74,75
160 173 m 256,123,124
 160 184 160 184 152 191 c 128,-1,125
 144 198 144 198 133 198 c 0,126,127
 123 198 123 198 116 190.5 c 128,-1,128
 109 183 109 183 109 173 c 256,129,130
 109 163 109 163 117 154.5 c 128,-1,131
 125 146 125 146 136 146 c 0,132,133
 145 146 145 146 152.5 154 c 128,-1,134
 160 162 160 162 160 173 c 256,123,124
270 -72 m 256,135,136
 270 -67 270 -67 266.5 -61 c 128,-1,137
 263 -55 263 -55 258 -55 c 0,138,139
 243 -55 243 -55 243 -71 c 0,140,141
 243 -86 243 -86 258 -86 c 0,142,143
 263 -86 263 -86 266.5 -81.5 c 128,-1,144
 270 -77 270 -77 270 -72 c 256,135,136
96 -113 m 1,145,146
 90 -103 90 -103 83.5 -96.5 c 128,-1,147
 77 -90 77 -90 63 -90 c 0,148,149
 41 -90 41 -90 41 -114 c 0,150,151
 41 -123 41 -123 48 -129.5 c 128,-1,152
 55 -136 55 -136 63 -136 c 0,153,154
 73 -136 73 -136 83.5 -128.5 c 128,-1,155
 94 -121 94 -121 96 -113 c 1,145,146
EndSplineSet
Substitution: 0 65534 'L019' uni0E10.alt1
Substitution: 0 65534 'L019' uni0E10.alt1
EndChar
StartChar: uni0E11
Encoding: 3601 3601 286
Width: 364
Flags: W
Fore
110 0 m 1,0,-1
 110 169 l 2,1,2
 110 190 110 190 118 208 c 128,-1,3
 126 226 126 226 135 243 c 128,-1,4
 144 260 144 260 152 277.5 c 128,-1,5
 160 295 160 295 160 315 c 0,6,7
 159 324 159 324 158 335.5 c 128,-1,8
 157 347 157 347 146 347 c 0,9,10
 139 347 139 347 135 342.5 c 128,-1,11
 131 338 131 338 127 332.5 c 128,-1,12
 123 327 123 327 118.5 322.5 c 128,-1,13
 114 318 114 318 106 318 c 0,14,15
 99 318 99 318 94 322 c 128,-1,16
 89 326 89 326 84.5 331.5 c 128,-1,17
 80 337 80 337 76 341 c 128,-1,18
 72 345 72 345 67 345 c 0,19,20
 59 345 59 345 57.5 335 c 128,-1,21
 56 325 56 325 56 319 c 0,22,23
 56 314 56 314 56.5 308 c 128,-1,24
 57 302 57 302 58 297 c 1,25,26
 67 309 67 309 86 309 c 0,27,28
 107 309 107 309 117 296 c 128,-1,29
 127 283 127 283 127 265 c 0,30,31
 127 244 127 244 115.5 228 c 128,-1,32
 104 212 104 212 80 212 c 0,33,34
 60 212 60 212 48 222.5 c 128,-1,35
 36 233 36 233 29.5 248.5 c 128,-1,36
 23 264 23 264 21 282 c 128,-1,37
 19 300 19 300 19 316 c 0,38,39
 19 327 19 327 22 339 c 128,-1,40
 25 351 25 351 30 360.5 c 128,-1,41
 35 370 35 370 43 376.5 c 128,-1,42
 51 383 51 383 60 383 c 0,43,44
 66 383 66 383 72 377.5 c 128,-1,45
 78 372 78 372 83.5 366 c 128,-1,46
 89 360 89 360 94 354.5 c 128,-1,47
 99 349 99 349 104 349 c 1,48,-1
 105 350 l 1,49,50
 111 350 111 350 114.5 355.5 c 128,-1,51
 118 361 118 361 122 367 c 128,-1,52
 126 373 126 373 131 378.5 c 128,-1,53
 136 384 136 384 145 384 c 0,54,55
 166 384 166 384 179 370 c 128,-1,56
 192 356 192 356 192 329 c 0,57,58
 192 308 192 308 185.5 289.5 c 128,-1,59
 179 271 179 271 171.5 252.5 c 128,-1,60
 164 234 164 234 157.5 216 c 128,-1,61
 151 198 151 198 151 179 c 2,62,-1
 151 178 l 1,63,-1
 152 161 l 1,64,65
 167 188 167 188 179 214 c 0,66,67
 190 236 190 236 200.5 258 c 128,-1,68
 211 280 211 280 217 292 c 0,69,70
 226 310 226 310 234 327.5 c 128,-1,71
 242 345 242 345 251 358.5 c 128,-1,72
 260 372 260 372 270.5 380.5 c 128,-1,73
 281 389 281 389 296 389 c 256,74,75
 311 389 311 389 320 383.5 c 128,-1,76
 329 378 329 378 333.5 369 c 128,-1,77
 338 360 338 360 339 348 c 128,-1,78
 340 336 340 336 340 322 c 2,79,-1
 340 0 l 1,80,-1
 296 0 l 1,81,-1
 296 314 l 2,82,83
 296 324 296 324 296 337 c 128,-1,84
 296 350 296 350 289 350 c 0,85,86
 285 350 285 350 277 338.5 c 128,-1,87
 269 327 269 327 260.5 310 c 128,-1,88
 252 293 252 293 243 273 c 128,-1,89
 234 253 234 253 226 236 c 0,90,91
 221 225 221 225 209 201.5 c 128,-1,92
 197 178 197 178 185 155 c 0,93,94
 171 128 171 128 154 96 c 1,95,-1
 154 0 l 1,96,-1
 110 0 l 1,0,-1
99 259 m 0,97,98
 99 267 99 267 95 274 c 128,-1,99
 91 281 91 281 81 281 c 0,100,101
 74 281 74 281 68 274 c 128,-1,102
 62 267 62 267 62 260 c 0,103,104
 62 252 62 252 67 244 c 128,-1,105
 72 236 72 236 81 236 c 0,106,107
 89 236 89 236 94 244 c 128,-1,108
 99 252 99 252 99 259 c 0,97,98
EndSplineSet
EndChar
StartChar: uni0E12
Encoding: 3602 3602 287
Width: 364
Flags: W
Fore
267 44 m 2,0,1
 267 18 267 18 257.5 4.5 c 128,-1,2
 248 -9 248 -9 220 -9 c 0,3,4
 191 -9 191 -9 178.5 12.5 c 128,-1,5
 166 34 166 34 166 60 c 0,6,7
 166 87 166 87 183 109 c 128,-1,8
 200 131 200 131 226 137 c 1,9,-1
 226 303 l 2,10,11
 226 309 226 309 225 316.5 c 128,-1,12
 224 324 224 324 221 331 c 128,-1,13
 218 338 218 338 212.5 343 c 128,-1,14
 207 348 207 348 198 348 c 0,15,16
 191 348 191 348 185.5 343 c 128,-1,17
 180 338 180 338 174.5 331.5 c 128,-1,18
 169 325 169 325 163 320 c 128,-1,19
 157 315 157 315 148 315 c 256,20,21
 139 315 139 315 131.5 320 c 128,-1,22
 124 325 124 325 117.5 331 c 128,-1,23
 111 337 111 337 105 342 c 128,-1,24
 99 347 99 347 93 347 c 0,25,26
 78 347 78 347 70 336.5 c 128,-1,27
 62 326 62 326 57.5 311.5 c 128,-1,28
 53 297 53 297 52 281 c 128,-1,29
 51 265 51 265 51 254 c 256,30,31
 51 243 51 243 52 230.5 c 128,-1,32
 53 218 53 218 56.5 202.5 c 128,-1,33
 60 187 60 187 66.5 166.5 c 128,-1,34
 73 146 73 146 83 119 c 0,35,36
 88 103 88 103 90.5 93.5 c 128,-1,37
 93 84 93 84 95 77 c 128,-1,38
 97 70 97 70 98.5 63 c 128,-1,39
 100 56 100 56 101 45 c 1,40,-1
 146 158 l 1,41,42
 136 158 136 158 125 162.5 c 128,-1,43
 114 167 114 167 104.5 174.5 c 128,-1,44
 95 182 95 182 89 193 c 128,-1,45
 83 204 83 204 83 217 c 0,46,47
 83 247 83 247 101 263 c 128,-1,48
 119 279 119 279 148 279 c 0,49,50
 173 279 173 279 187 264 c 128,-1,51
 201 249 201 249 201 223 c 0,52,53
 201 209 201 209 197.5 194.5 c 128,-1,54
 194 180 194 180 184.5 156.5 c 128,-1,55
 175 133 175 133 158.5 96 c 128,-1,56
 142 59 142 59 117 0 c 1,57,-1
 65 0 l 1,58,59
 62 32 62 32 53.5 63 c 128,-1,60
 45 94 45 94 36 124.5 c 128,-1,61
 27 155 27 155 19.5 186 c 128,-1,62
 12 217 12 217 12 250 c 0,63,64
 12 270 12 270 16 294 c 128,-1,65
 20 318 20 318 29 338.5 c 128,-1,66
 38 359 38 359 53.5 373 c 128,-1,67
 69 387 69 387 93 387 c 0,68,69
 103 387 103 387 110 381.5 c 128,-1,70
 117 376 117 376 123 369 c 128,-1,71
 129 362 129 362 134 356.5 c 128,-1,72
 139 351 139 351 146 351 c 0,73,74
 154 351 154 351 159.5 355.5 c 128,-1,75
 165 360 165 360 170 366 c 128,-1,76
 175 372 175 372 179.5 378.5 c 128,-1,77
 184 385 184 385 189 389 c 1,78,79
 209 388 209 388 223.5 380 c 128,-1,80
 238 372 238 372 247.5 359.5 c 128,-1,81
 257 347 257 347 262 330.5 c 128,-1,82
 267 314 267 314 267 296 c 2,83,-1
 267 131 l 1,84,85
 272 124 272 124 276.5 119.5 c 128,-1,86
 281 115 281 115 286 110 c 128,-1,87
 291 105 291 105 297 97 c 128,-1,88
 303 89 303 89 311 76 c 1,89,-1
 311 386 l 1,90,-1
 355 386 l 1,91,-1
 355 0 l 1,92,-1
 322 0 l 1,93,-1
 267 85 l 1,94,-1
 267 44 l 2,0,1
169 221 m 256,95,96
 169 232 169 232 163.5 241 c 128,-1,97
 158 250 158 250 146 250 c 256,98,99
 134 250 134 250 126 241 c 128,-1,100
 118 232 118 232 118 221 c 256,101,102
 118 210 118 210 125.5 200 c 128,-1,103
 133 190 133 190 145 190 c 256,104,105
 157 190 157 190 163 200 c 128,-1,106
 169 210 169 210 169 221 c 256,95,96
229 106 m 1,107,108
 213 102 213 102 206.5 88 c 128,-1,109
 200 74 200 74 200 60 c 1,110,-1
 200 61 l 1,111,112
 200 48 200 48 204 33 c 128,-1,113
 208 18 208 18 228 16 c 1,114,-1
 228 105 l 1,115,-1
 229 106 l 1,107,108
EndSplineSet
EndChar
StartChar: uni0E13
Encoding: 3603 3603 288
Width: 364
Flags: W
Fore
360 57 m 0,0,1
 360 31 360 31 346 11 c 128,-1,2
 332 -9 332 -9 304 -9 c 0,3,4
 278 -9 278 -9 261.5 2 c 128,-1,5
 245 13 245 13 245 39 c 0,6,7
 245 42 245 42 245.5 47.5 c 128,-1,8
 246 53 246 53 249 59 c 1,9,10
 235 46 235 46 223.5 31.5 c 128,-1,11
 212 17 212 17 204 0 c 1,12,-1
 165 0 l 1,13,-1
 165 286 l 2,14,15
 165 301 165 301 164 313.5 c 128,-1,16
 163 326 163 326 158.5 335 c 128,-1,17
 154 344 154 344 144.5 349 c 128,-1,18
 135 354 135 354 117 354 c 0,19,20
 87 354 87 354 70 342 c 128,-1,21
 53 330 53 330 39 304 c 1,22,-1
 99 304 l 1,23,-1
 99 277 l 1,24,25
 83 272 83 272 73 257 c 128,-1,26
 63 242 63 242 63 226 c 2,27,-1
 63 110 l 1,28,29
 79 121 79 121 96 121 c 0,30,31
 125 121 125 121 137 104.5 c 128,-1,32
 149 88 149 88 149 61 c 0,33,34
 149 35 149 35 134 13 c 128,-1,35
 119 -9 119 -9 91 -9 c 0,36,37
 73 -9 73 -9 59.5 -1 c 128,-1,38
 46 7 46 7 37 19.5 c 128,-1,39
 28 32 28 32 23.5 48 c 128,-1,40
 19 64 19 64 19 80 c 2,41,-1
 19 214 l 2,42,43
 19 226 19 226 20 234 c 128,-1,44
 21 242 21 242 24 248.5 c 128,-1,45
 27 255 27 255 32 260.5 c 128,-1,46
 37 266 37 266 45 274 c 1,47,-1
 9 274 l 1,48,-1
 9 319 l 1,49,50
 25 339 25 339 35.5 352 c 128,-1,51
 46 365 46 365 57.5 373 c 128,-1,52
 69 381 69 381 84.5 384 c 128,-1,53
 100 387 100 387 127 387 c 0,54,55
 153 387 153 387 169 380 c 128,-1,56
 185 373 185 373 194 360 c 128,-1,57
 203 347 203 347 206.5 328.5 c 128,-1,58
 210 310 210 310 210 287 c 2,59,-1
 210 58 l 1,60,61
 222 70 222 70 236 82.5 c 128,-1,62
 250 95 250 95 262 109 c 128,-1,63
 274 123 274 123 282 139 c 128,-1,64
 290 155 290 155 290 174 c 2,65,-1
 290 386 l 1,66,-1
 334 386 l 1,67,-1
 334 141 l 2,68,69
 334 133 334 133 329.5 127 c 128,-1,70
 325 121 325 121 319 116 c 1,71,72
 360 103 360 103 360 57 c 0,0,1
327 53 m 0,73,74
 327 63 327 63 322 75.5 c 128,-1,75
 317 88 317 88 305 88 c 0,76,77
 291 88 291 88 284.5 75.5 c 128,-1,78
 278 63 278 63 278 52 c 256,79,80
 278 41 278 41 284.5 29.5 c 128,-1,81
 291 18 291 18 304 18 c 256,82,83
 317 18 317 18 322 30 c 128,-1,84
 327 42 327 42 327 53 c 0,73,74
116 59 m 256,85,86
 116 70 116 70 109.5 79.5 c 128,-1,87
 103 89 103 89 91 89 c 0,88,89
 78 89 78 89 71.5 79 c 128,-1,90
 65 69 65 69 65 58 c 0,91,92
 65 44 65 44 71 33 c 128,-1,93
 77 22 77 22 92 22 c 0,94,95
 106 22 106 22 111 35 c 128,-1,96
 116 48 116 48 116 59 c 256,85,86
EndSplineSet
EndChar
StartChar: uni0E14
Encoding: 3604 3604 289
Width: 364
Flags: W
Fore
186 353 m 0,0,1
 135 353 135 353 104.5 325 c 128,-1,2
 74 297 74 297 74 243 c 0,3,4
 74 192 74 192 89 144 c 128,-1,5
 104 96 104 96 114 46 c 1,6,-1
 182 152 l 1,7,8
 152 152 152 152 134 165.5 c 128,-1,9
 116 179 116 179 116 211 c 0,10,11
 116 240 116 240 135 258.5 c 128,-1,12
 154 277 154 277 183 277 c 0,13,14
 213 277 213 277 232.5 261 c 128,-1,15
 252 245 252 245 252 213 c 0,16,17
 252 201 252 201 247.5 188.5 c 128,-1,18
 243 176 243 176 230 153.5 c 128,-1,19
 217 131 217 131 193.5 94.5 c 128,-1,20
 170 58 170 58 133 0 c 1,21,-1
 76 0 l 1,22,23
 74 30 74 30 66.5 60 c 128,-1,24
 59 90 59 90 50.5 120 c 128,-1,25
 42 150 42 150 35.5 181 c 128,-1,26
 29 212 29 212 29 243 c 0,27,28
 29 316 29 316 73 352.5 c 128,-1,29
 117 389 117 389 183 389 c 0,30,31
 215 389 215 389 242 383 c 128,-1,32
 269 377 269 377 288.5 362 c 128,-1,33
 308 347 308 347 318.5 322 c 128,-1,34
 329 297 329 297 329 259 c 2,35,-1
 329 0 l 1,36,-1
 284 0 l 1,37,-1
 284 260 l 2,38,39
 284 313 284 313 257.5 333 c 128,-1,40
 231 353 231 353 186 353 c 0,0,1
214 212 m 0,41,42
 214 225 214 225 205.5 233 c 128,-1,43
 197 241 197 241 185 241 c 0,44,45
 174 241 174 241 165.5 232 c 128,-1,46
 157 223 157 223 157 212 c 256,47,48
 157 201 157 201 164.5 192.5 c 128,-1,49
 172 184 172 184 183 184 c 0,50,51
 195 184 195 184 204.5 192 c 128,-1,52
 214 200 214 200 214 212 c 0,41,42
EndSplineSet
EndChar
StartChar: uni0E15
Encoding: 3605 3605 290
Width: 364
Flags: W
Fore
240 341 m 0,0,1
 233 341 233 341 226.5 337 c 128,-1,2
 220 333 220 333 213.5 328 c 128,-1,3
 207 323 207 323 199.5 319 c 128,-1,4
 192 315 192 315 183 315 c 0,5,6
 172 315 172 315 164 319.5 c 128,-1,7
 156 324 156 324 148.5 329.5 c 128,-1,8
 141 335 141 335 134 339.5 c 128,-1,9
 127 344 127 344 118 344 c 0,10,11
 103 344 103 344 94 333.5 c 128,-1,12
 85 323 85 323 81 308.5 c 128,-1,13
 77 294 77 294 76 277.5 c 128,-1,14
 75 261 75 261 75 249 c 0,15,16
 75 222 75 222 80 197 c 128,-1,17
 85 172 85 172 92 147 c 128,-1,18
 99 122 99 122 106.5 97.5 c 128,-1,19
 114 73 114 73 118 47 c 1,20,-1
 176 149 l 1,21,22
 150 151 150 151 132 168.5 c 128,-1,23
 114 186 114 186 114 212 c 0,24,25
 114 241 114 241 132 259 c 128,-1,26
 150 277 150 277 178 277 c 256,27,28
 206 277 206 277 225.5 262 c 128,-1,29
 245 247 245 247 245 217 c 0,30,31
 245 205 245 205 241 191.5 c 128,-1,32
 237 178 237 178 225 155 c 128,-1,33
 213 132 213 132 192 95.5 c 128,-1,34
 171 59 171 59 137 0 c 1,35,-1
 78 0 l 1,36,-1
 78 3 l 2,37,38
 78 35 78 35 70.5 65 c 128,-1,39
 63 95 63 95 54.5 125 c 128,-1,40
 46 155 46 155 38.5 185 c 128,-1,41
 31 215 31 215 31 247 c 0,42,43
 31 268 31 268 33.5 289 c 128,-1,44
 36 310 36 310 43 328.5 c 128,-1,45
 50 347 50 347 63.5 361.5 c 128,-1,46
 77 376 77 376 98 383 c 0,47,48
 110 388 110 388 122 388 c 1,49,-1
 180 354 l 1,50,51
 200 354 200 354 214 365.5 c 128,-1,52
 228 377 228 377 244 389 c 1,53,54
 259 387 259 387 270 378 c 128,-1,55
 281 369 281 369 292 358 c 0,56,57
 312 338 312 338 318.5 319.5 c 128,-1,58
 325 301 325 301 325 274 c 2,59,-1
 325 0 l 1,60,-1
 280 0 l 1,61,-1
 280 268 l 2,62,63
 280 279 280 279 279 291.5 c 128,-1,64
 278 304 278 304 274 315 c 128,-1,65
 270 326 270 326 262 333.5 c 128,-1,66
 254 341 254 341 240 341 c 0,0,1
205 215 m 0,67,68
 205 226 205 226 197 233 c 128,-1,69
 189 240 189 240 179 240 c 0,70,71
 168 240 168 240 160.5 233 c 128,-1,72
 153 226 153 226 153 215 c 0,73,74
 153 203 153 203 160 194 c 128,-1,75
 167 185 167 185 180 185 c 0,76,77
 194 185 194 185 199.5 193.5 c 128,-1,78
 205 202 205 202 205 215 c 0,67,68
EndSplineSet
EndChar
StartChar: uni0E16
Encoding: 3606 3606 291
Width: 364
Flags: W
Fore
194 354 m 0,0,1
 155 354 155 354 127 341.5 c 128,-1,2
 99 329 99 329 70 302 c 1,3,-1
 145 302 l 1,4,-1
 145 269 l 1,5,6
 129 262 129 262 118 245.5 c 128,-1,7
 107 229 107 229 107 211 c 2,8,-1
 107 123 l 1,9,10
 124 133 124 133 145 133 c 0,11,12
 172 133 172 133 188 112 c 128,-1,13
 204 91 204 91 204 66 c 0,14,15
 204 33 204 33 186 12 c 128,-1,16
 168 -9 168 -9 133 -9 c 0,17,18
 100 -9 100 -9 81.5 16 c 128,-1,19
 63 41 63 41 63 73 c 2,20,-1
 63 199 l 2,21,22
 63 222 63 222 70 238 c 128,-1,23
 77 254 77 254 94 268 c 1,24,-1
 30 268 l 1,25,-1
 30 321 l 1,26,27
 64 351 64 351 102.5 371.5 c 128,-1,28
 141 392 141 392 187 392 c 0,29,30
 212 392 212 392 237.5 386 c 128,-1,31
 263 380 263 380 284 366.5 c 128,-1,32
 305 353 305 353 318 331.5 c 128,-1,33
 331 310 331 310 331 280 c 2,34,-1
 331 0 l 1,35,-1
 287 0 l 1,36,-1
 287 269 l 2,37,38
 287 313 287 313 259.5 333.5 c 128,-1,39
 232 354 232 354 194 354 c 0,0,1
165 55 m 256,40,41
 165 69 165 69 159 81 c 128,-1,42
 153 93 153 93 137 93 c 256,43,44
 121 93 121 93 113.5 82 c 128,-1,45
 106 71 106 71 106 57 c 256,46,47
 106 43 106 43 114.5 33.5 c 128,-1,48
 123 24 123 24 137 24 c 256,49,50
 151 24 151 24 158 32.5 c 128,-1,51
 165 41 165 41 165 55 c 256,40,41
EndSplineSet
EndChar
StartChar: uni0E17
Encoding: 3607 3607 292
Width: 364
Flags: W
Fore
176 294 m 2,0,1
 181 303 181 303 193 318.5 c 128,-1,2
 205 334 205 334 220 350 c 128,-1,3
 235 366 235 366 251.5 377.5 c 128,-1,4
 268 389 268 389 282 389 c 0,5,6
 316 389 316 389 327.5 370 c 128,-1,7
 339 351 339 351 339 315 c 2,8,-1
 339 0 l 1,9,-1
 294 0 l 1,10,-1
 294 328 l 2,11,12
 294 337 294 337 292 343.5 c 128,-1,13
 290 350 290 350 279 351 c 1,14,-1
 280 351 l 1,15,16
 273 351 273 351 260 338.5 c 128,-1,17
 247 326 247 326 232.5 307 c 128,-1,18
 218 288 218 288 203 266.5 c 128,-1,19
 188 245 188 245 175.5 226.5 c 128,-1,20
 163 208 163 208 155 195.5 c 128,-1,21
 148 184 148 184 147 183 c 1,22,-1
 147 0 l 1,23,-1
 102 0 l 1,24,-1
 102 266 l 1,25,26
 92 259 92 259 79 259 c 0,27,28
 51 259 51 259 32.5 274 c 128,-1,29
 14 289 14 289 14 318 c 0,30,31
 14 354 14 354 33.5 370.5 c 128,-1,32
 53 387 53 387 88 387 c 0,33,34
 109 387 109 387 121 378 c 128,-1,35
 133 369 133 369 138.5 354.5 c 128,-1,36
 144 340 144 340 145 323 c 128,-1,37
 146 306 146 306 146 289 c 2,38,-1
 146 253 l 1,39,-1
 176 294 l 2,0,1
105 319 m 0,40,41
 105 331 105 331 98.5 342.5 c 128,-1,42
 92 354 92 354 79 354 c 0,43,44
 64 354 64 354 58.5 342.5 c 128,-1,45
 53 331 53 331 53 319 c 0,46,47
 53 308 53 308 60 299.5 c 128,-1,48
 67 291 67 291 78 291 c 0,49,50
 90 291 90 291 97.5 299.5 c 128,-1,51
 105 308 105 308 105 319 c 0,40,41
EndSplineSet
EndChar
StartChar: uni0E18
Encoding: 3608 3608 293
Width: 364
Flags: W
Fore
314 311 m 2,0,1
 291 311 291 311 273 315 c 128,-1,2
 255 319 255 319 235 327 c 256,3,4
 215 335 215 335 193.5 341.5 c 128,-1,5
 172 348 172 348 150 348 c 0,6,7
 121 348 121 348 106.5 334.5 c 128,-1,8
 92 321 92 321 83 294 c 1,9,-1
 99 295 l 2,10,11
 140 295 140 295 178 291.5 c 128,-1,12
 216 288 216 288 245 276.5 c 128,-1,13
 274 265 274 265 291.5 244.5 c 128,-1,14
 309 224 309 224 309 191 c 2,15,-1
 309 0 l 1,16,-1
 68 0 l 1,17,-1
 68 221 l 1,18,-1
 112 221 l 1,19,-1
 112 38 l 1,20,-1
 265 38 l 1,21,-1
 265 183 l 2,22,23
 265 212 265 212 247 226.5 c 128,-1,24
 229 241 229 241 203 246.5 c 128,-1,25
 177 252 177 252 148 252.5 c 128,-1,26
 119 253 119 253 97 255 c 2,27,-1
 31 255 l 1,28,29
 33 269 33 269 33.5 281.5 c 128,-1,30
 34 294 34 294 39 307 c 0,31,32
 50 344 50 344 80 366.5 c 128,-1,33
 110 389 110 389 148 389 c 2,34,-1
 167 388 l 1,35,36
 178 385 178 385 195 380.5 c 128,-1,37
 212 376 212 376 230 371.5 c 128,-1,38
 248 367 248 367 264 364 c 128,-1,39
 280 361 280 361 289 361 c 0,40,41
 300 361 300 361 312.5 362.5 c 128,-1,42
 325 364 325 364 330 367 c 1,43,-1
 330 312 l 1,44,-1
 314 311 l 2,0,1
EndSplineSet
EndChar
StartChar: uni0E19
Encoding: 3609 3609 294
Width: 364
Flags: W
Fore
358 70 m 0,0,1
 358 56 358 56 354 42 c 128,-1,2
 350 28 350 28 341.5 16.5 c 128,-1,3
 333 5 333 5 321.5 -2 c 128,-1,4
 310 -9 310 -9 295 -9 c 0,5,6
 224 -9 224 -9 224 65 c 0,7,8
 224 74 224 74 227 84 c 1,9,10
 216 78 216 78 203.5 69 c 128,-1,11
 191 60 191 60 179.5 48.5 c 128,-1,12
 168 37 168 37 159 24.5 c 128,-1,13
 150 12 150 12 145 0 c 1,14,-1
 101 0 l 1,15,-1
 101 269 l 1,16,17
 88 262 88 262 71 262 c 0,18,19
 45 262 45 262 30.5 279.5 c 128,-1,20
 16 297 16 297 16 323 c 0,21,22
 16 352 16 352 33.5 369 c 128,-1,23
 51 386 51 386 80 386 c 0,24,25
 104 386 104 386 117 379 c 128,-1,26
 130 372 130 372 136.5 360 c 128,-1,27
 143 348 143 348 144 331.5 c 128,-1,28
 145 315 145 315 145 296 c 2,29,-1
 145 68 l 1,30,31
 165 88 165 88 189.5 100.5 c 128,-1,32
 214 113 214 113 235.5 126.5 c 128,-1,33
 257 140 257 140 271.5 159.5 c 128,-1,34
 286 179 286 179 286 213 c 2,35,-1
 286 387 l 1,36,-1
 330 387 l 1,37,-1
 330 193 l 2,38,39
 330 178 330 178 323.5 164 c 128,-1,40
 317 150 317 150 307 139 c 1,41,42
 332 130 332 130 345 113.5 c 128,-1,43
 358 97 358 97 358 70 c 0,0,1
105 322 m 256,44,45
 105 335 105 335 98.5 344.5 c 128,-1,46
 92 354 92 354 78 354 c 0,47,48
 65 354 65 354 59.5 343.5 c 128,-1,49
 54 333 54 333 54 322 c 256,50,51
 54 311 54 311 59.5 301.5 c 128,-1,52
 65 292 65 292 77 292 c 0,53,54
 90 292 90 292 97.5 300.5 c 128,-1,55
 105 309 105 309 105 322 c 256,44,45
321 68 m 0,56,57
 321 80 321 80 314.5 93 c 128,-1,58
 308 106 308 106 294 106 c 0,59,60
 277 106 277 106 270.5 91.5 c 128,-1,61
 264 77 264 77 264 63 c 256,62,63
 264 49 264 49 271.5 35.5 c 128,-1,64
 279 22 279 22 293 22 c 256,65,66
 307 22 307 22 314 38.5 c 128,-1,67
 321 55 321 55 321 68 c 0,56,57
EndSplineSet
EndChar
StartChar: uni0E1A
Encoding: 3610 3610 295
Width: 364
Flags: W
Fore
104 265 m 1,0,1
 98 260 98 260 90.5 258.5 c 128,-1,2
 83 257 83 257 76 257 c 0,3,4
 48 257 48 257 31.5 274.5 c 128,-1,5
 15 292 15 292 15 320 c 0,6,7
 15 350 15 350 32.5 368 c 128,-1,8
 50 386 50 386 79 386 c 0,9,10
 117 386 117 386 132.5 363.5 c 128,-1,11
 148 341 148 341 148 306 c 2,12,-1
 148 38 l 1,13,-1
 301 38 l 1,14,-1
 301 384 l 1,15,-1
 345 384 l 1,16,-1
 345 0 l 1,17,-1
 104 0 l 1,18,-1
 104 265 l 1,19,-1
 104 265 l 1,0,1
108 321 m 0,20,21
 108 334 108 334 101.5 344.5 c 128,-1,22
 95 355 95 355 81 355 c 0,23,24
 65 355 65 355 60 344.5 c 128,-1,25
 55 334 55 334 55 321 c 0,26,27
 55 307 55 307 62.5 298 c 128,-1,28
 70 289 70 289 84 289 c 256,29,30
 98 289 98 289 103 299.5 c 128,-1,31
 108 310 108 310 108 321 c 0,20,21
EndSplineSet
EndChar
StartChar: uni0E1B
Encoding: 3611 3611 296
Width: 364
Flags: W
Fore
104 265 m 1,0,1
 93 257 93 257 76 257 c 0,2,3
 48 257 48 257 31.5 274.5 c 128,-1,4
 15 292 15 292 15 320 c 0,5,6
 15 350 15 350 32.5 368 c 128,-1,7
 50 386 50 386 79 386 c 0,8,9
 117 386 117 386 132.5 363.5 c 128,-1,10
 148 341 148 341 148 306 c 2,11,-1
 148 38 l 1,12,-1
 300 38 l 1,13,-1
 300 527 l 1,14,-1
 345 527 l 1,15,-1
 345 0 l 1,16,-1
 104 0 l 1,17,-1
 104 265 l 1,18,-1
 104 265 l 1,0,1
107 321 m 0,19,20
 107 334 107 334 100.5 344.5 c 128,-1,21
 94 355 94 355 80 355 c 0,22,23
 65 355 65 355 60 344.5 c 128,-1,24
 55 334 55 334 55 321 c 0,25,26
 55 307 55 307 62.5 298 c 128,-1,27
 70 289 70 289 84 289 c 256,28,29
 98 289 98 289 102.5 299.5 c 128,-1,30
 107 310 107 310 107 321 c 0,19,20
EndSplineSet
EndChar
StartChar: uni0E1C
Encoding: 3612 3612 297
Width: 364
Flags: W
Fore
108 0 m 1,0,-1
 41 0 l 1,1,-1
 41 320 l 2,2,3
 41 334 41 334 47.5 346.5 c 128,-1,4
 54 359 54 359 64.5 368 c 128,-1,5
 75 377 75 377 88 382 c 128,-1,6
 101 387 101 387 114 387 c 0,7,8
 145 387 145 387 165 369.5 c 128,-1,9
 185 352 185 352 185 320 c 256,10,11
 185 288 185 288 167 270 c 128,-1,12
 149 252 149 252 117 252 c 0,13,14
 97 252 97 252 85 263 c 1,15,-1
 85 47 l 1,16,-1
 176 198 l 1,17,-1
 204 198 l 1,18,-1
 287 48 l 1,19,-1
 287 384 l 1,20,-1
 331 384 l 1,21,-1
 331 0 l 1,22,-1
 263 0 l 1,23,-1
 188 150 l 1,24,-1
 108 0 l 1,0,-1
146 320 m 0,25,26
 146 333 146 333 137 340.5 c 128,-1,27
 128 348 128 348 116 348 c 0,28,29
 105 348 105 348 94 340 c 128,-1,30
 83 332 83 332 83 320 c 0,31,32
 83 306 83 306 94 298.5 c 128,-1,33
 105 291 105 291 117 291 c 0,34,35
 130 291 130 291 138 298.5 c 128,-1,36
 146 306 146 306 146 320 c 0,25,26
EndSplineSet
EndChar
StartChar: uni0E1D
Encoding: 3613 3613 298
Width: 364
Flags: W
Fore
109 0 m 1,0,-1
 42 0 l 1,1,-1
 42 320 l 2,2,3
 42 334 42 334 48.5 346.5 c 128,-1,4
 55 359 55 359 65.5 368 c 128,-1,5
 76 377 76 377 89 382 c 128,-1,6
 102 387 102 387 115 387 c 0,7,8
 146 387 146 387 166 369.5 c 128,-1,9
 186 352 186 352 186 320 c 256,10,11
 186 288 186 288 168 270 c 128,-1,12
 150 252 150 252 118 252 c 0,13,14
 98 252 98 252 86 263 c 1,15,-1
 86 47 l 1,16,-1
 176 198 l 1,17,-1
 204 198 l 1,18,-1
 288 48 l 1,19,-1
 288 537 l 1,20,-1
 332 537 l 1,21,-1
 332 0 l 1,22,-1
 264 0 l 1,23,-1
 189 150 l 1,24,-1
 109 0 l 1,0,-1
147 320 m 256,25,26
 147 333 147 333 138 340.5 c 128,-1,27
 129 348 129 348 117 348 c 256,28,29
 105 348 105 348 94.5 340.5 c 128,-1,30
 84 333 84 333 84 320 c 256,31,32
 84 307 84 307 94.5 299.5 c 128,-1,33
 105 292 105 292 118 292 c 256,34,35
 131 292 131 292 139 299.5 c 128,-1,36
 147 307 147 307 147 320 c 256,25,26
EndSplineSet
EndChar
StartChar: uni0E1E
Encoding: 3614 3614 299
Width: 364
Flags: W
Fore
164 0 m 1,0,-1
 99 0 l 1,1,-1
 99 259 l 1,2,3
 94 256 94 256 87 255 c 128,-1,4
 80 254 80 254 75 254 c 0,5,6
 41 254 41 254 24 272 c 128,-1,7
 7 290 7 290 7 323 c 0,8,9
 7 354 7 354 27.5 370.5 c 128,-1,10
 48 387 48 387 78 387 c 0,11,12
 113 387 113 387 128 367 c 128,-1,13
 143 347 143 347 143 313 c 2,14,-1
 143 47 l 1,15,-1
 210 283 l 1,16,-1
 237 283 l 1,17,-1
 302 47 l 1,18,-1
 302 384 l 1,19,-1
 346 384 l 1,20,-1
 346 0 l 1,21,-1
 285 0 l 1,22,-1
 224 219 l 1,23,-1
 164 0 l 1,0,-1
106 321 m 256,24,25
 106 334 106 334 98.5 346 c 128,-1,26
 91 358 91 358 77 358 c 0,27,28
 60 358 60 358 52 347 c 128,-1,29
 44 336 44 336 44 321 c 0,30,31
 44 307 44 307 53 296.5 c 128,-1,32
 62 286 62 286 77 286 c 0,33,34
 91 286 91 286 98.5 297 c 128,-1,35
 106 308 106 308 106 321 c 256,24,25
EndSplineSet
EndChar
StartChar: uni0E1F
Encoding: 3615 3615 300
Width: 364
Flags: W
Fore
164 0 m 1,0,-1
 99 0 l 1,1,-1
 99 259 l 1,2,3
 94 256 94 256 87 255 c 128,-1,4
 80 254 80 254 75 254 c 0,5,6
 41 254 41 254 24 272 c 128,-1,7
 7 290 7 290 7 323 c 0,8,9
 7 354 7 354 27.5 370.5 c 128,-1,10
 48 387 48 387 78 387 c 0,11,12
 113 387 113 387 128 367 c 128,-1,13
 143 347 143 347 143 313 c 2,14,-1
 143 47 l 1,15,-1
 210 283 l 1,16,-1
 237 283 l 1,17,-1
 302 47 l 1,18,-1
 302 528 l 1,19,-1
 346 528 l 1,20,-1
 346 0 l 1,21,-1
 285 0 l 1,22,-1
 224 219 l 1,23,-1
 164 0 l 1,0,-1
106 321 m 256,24,25
 106 334 106 334 98.5 346 c 128,-1,26
 91 358 91 358 77 358 c 0,27,28
 60 358 60 358 52 347 c 128,-1,29
 44 336 44 336 44 321 c 0,30,31
 44 307 44 307 53.5 296.5 c 128,-1,32
 63 286 63 286 77 286 c 256,33,34
 91 286 91 286 98.5 297 c 128,-1,35
 106 308 106 308 106 321 c 256,24,25
EndSplineSet
EndChar
StartChar: uni0E20
Encoding: 3616 3616 301
Width: 364
Flags: W
Fore
299 268 m 2,0,1
 299 308 299 308 277.5 333 c 128,-1,2
 256 358 256 358 212 358 c 0,3,4
 199 358 199 358 183 354.5 c 128,-1,5
 167 351 167 351 152 344.5 c 128,-1,6
 137 338 137 338 124 328.5 c 128,-1,7
 111 319 111 319 104 306 c 1,8,-1
 182 306 l 1,9,-1
 182 272 l 1,10,11
 165 261 165 261 155.5 247 c 128,-1,12
 146 233 146 233 146 213 c 2,13,-1
 146 64 l 2,14,15
 146 32 146 32 131.5 11.5 c 128,-1,16
 117 -9 117 -9 82 -9 c 0,17,18
 51 -9 51 -9 33.5 10.5 c 128,-1,19
 16 30 16 30 16 60 c 0,20,21
 16 87 16 87 31.5 104.5 c 128,-1,22
 47 122 47 122 74 122 c 0,23,24
 82 122 82 122 89 121 c 128,-1,25
 96 120 96 120 102 115 c 1,26,-1
 102 191 l 2,27,28
 102 203 102 203 103 216.5 c 128,-1,29
 104 230 104 230 109 241 c 0,30,31
 113 251 113 251 119.5 258.5 c 128,-1,32
 126 266 126 266 132 274 c 1,33,-1
 66 274 l 1,34,-1
 66 323 l 1,35,36
 78 339 78 339 95.5 352 c 128,-1,37
 113 365 113 365 132.5 374 c 128,-1,38
 152 383 152 383 173.5 388 c 128,-1,39
 195 393 195 393 214 393 c 0,40,41
 278 393 278 393 310.5 361.5 c 128,-1,42
 343 330 343 330 343 270 c 2,43,-1
 343 0 l 1,44,-1
 299 0 l 1,45,-1
 299 268 l 2,0,1
108 56 m 256,46,47
 108 68 108 68 99.5 78.5 c 128,-1,48
 91 89 91 89 78 89 c 0,49,50
 67 89 67 89 60 79 c 128,-1,51
 53 69 53 69 53 58 c 0,52,53
 53 44 53 44 60 33 c 128,-1,54
 67 22 67 22 82 22 c 0,55,56
 96 22 96 22 102 33 c 128,-1,57
 108 44 108 44 108 56 c 256,46,47
EndSplineSet
EndChar
StartChar: uni0E21
Encoding: 3617 3617 302
Width: 364
Flags: W
Fore
299 0 m 1,0,1
 283 17 283 17 267.5 31 c 128,-1,2
 236.5 59 l 128,-1,3
 221 73 221 73 203 88 c 128,-1,4
 185 103 185 103 163 122 c 1,5,-1
 163 50 l 2,6,7
 163 22 163 22 147 7 c 0,8,9
 128 -9 128 -9 104 -9 c 0,10,11
 88 -9 88 -9 75 -1.5 c 128,-1,12
 62 6 62 6 53 18 c 128,-1,13
 44 30 44 30 39.5 45 c 128,-1,14
 35 60 35 60 35 75 c 0,15,16
 35 93 35 93 42 109 c 128,-1,17
 49 125 49 125 61 137.5 c 128,-1,18
 73 150 73 150 88.5 158.5 c 128,-1,19
 104 167 104 167 121 169 c 1,20,-1
 121 260 l 1,21,22
 116 255 116 255 109.5 254.5 c 128,-1,23
 103 254 103 254 95 254 c 0,24,25
 64 254 64 254 44 269 c 128,-1,26
 24 284 24 284 24 317 c 0,27,28
 24 352 24 352 46.5 369.5 c 128,-1,29
 69 387 69 387 102 387 c 0,30,31
 137 387 137 387 151 366.5 c 128,-1,32
 165 346 165 346 165 314 c 2,33,-1
 165 165 l 1,34,35
 200 140 200 140 231 114 c 128,-1,36
 262 88 262 88 297 62 c 1,37,-1
 297 387 l 1,38,-1
 341 387 l 1,39,-1
 341 0 l 1,40,-1
 299 0 l 1,41,-1
 299 0 l 1,0,1
126 324 m 0,42,43
 126 336 126 336 119 344 c 128,-1,44
 112 352 112 352 99 352 c 0,45,46
 87 352 87 352 76.5 344 c 128,-1,47
 66 336 66 336 66 322 c 256,48,49
 66 308 66 308 73.5 298.5 c 128,-1,50
 81 289 81 289 95 289 c 0,51,52
 111 289 111 289 118.5 299 c 128,-1,53
 126 309 126 309 126 324 c 0,42,43
121 130 m 1,54,55
 101 128 101 128 89 111.5 c 128,-1,56
 77 95 77 95 77 76 c 0,57,58
 77 70 77 70 78.5 61 c 128,-1,59
 80 52 80 52 83 43.5 c 128,-1,60
 86 35 86 35 91 29 c 128,-1,61
 96 23 96 23 103 23 c 0,62,63
 115 23 115 23 118 31 c 128,-1,64
 121 39 121 39 121 50 c 2,65,-1
 121 130 l 1,66,-1
 121 130 l 1,54,55
EndSplineSet
EndChar
StartChar: uni0E22
Encoding: 3618 3618 303
Width: 364
Flags: W
Fore
66 115 m 1,0,1
 66 141 66 141 77.5 161.5 c 128,-1,2
 89 182 89 182 112 195 c 1,3,4
 80 201 80 201 59 225.5 c 128,-1,5
 38 250 38 250 38 283 c 0,6,7
 38 329 38 329 68 359.5 c 128,-1,8
 98 390 98 390 143 390 c 0,9,10
 160 390 160 390 176.5 387.5 c 128,-1,11
 193 385 193 385 206 378 c 128,-1,12
 219 371 219 371 226.5 358 c 128,-1,13
 234 345 234 345 234 325 c 0,14,15
 234 297 234 297 216.5 280 c 128,-1,16
 199 263 199 263 171 263 c 0,17,18
 145 263 145 263 125 278.5 c 128,-1,19
 105 294 105 294 105 321 c 2,20,-1
 105 322 l 2,21,22
 105 324 105 324 105.5 330.5 c 128,-1,23
 106 337 106 337 108 342 c 1,24,25
 92 334 92 334 86.5 314.5 c 128,-1,26
 81 295 81 295 81 277 c 0,27,28
 81 261 81 261 90.5 250 c 128,-1,29
 100 239 100 239 113.5 232 c 128,-1,30
 127 225 127 225 143 221.5 c 128,-1,31
 159 218 159 218 171 218 c 2,32,-1
 215 218 l 1,33,-1
 215 181 l 1,34,-1
 177 181 l 2,35,36
 149 181 149 181 129.5 162 c 128,-1,37
 110 143 110 143 110 113 c 2,38,-1
 110 38 l 1,39,-1
 286 38 l 1,40,-1
 286 387 l 1,41,-1
 330 387 l 1,42,-1
 330 0 l 1,43,-1
 66 0 l 1,44,-1
 66 115 l 1,45,-1
 66 115 l 1,0,1
196 326 m 256,46,47
 196 354 196 354 169 354 c 0,48,49
 157 354 157 354 150.5 346 c 128,-1,50
 144 338 144 338 144 327 c 256,51,52
 144 316 144 316 151.5 307 c 128,-1,53
 159 298 159 298 170 298 c 0,54,55
 196 298 196 298 196 326 c 256,46,47
EndSplineSet
EndChar
StartChar: uni0E23
Encoding: 3619 3619 304
Width: 364
Flags: W
Fore
319 325 m 1,0,1
 301 319 301 319 277 319 c 2,2,-1
 266 319 l 2,3,4
 256 319 256 319 244.5 323 c 128,-1,5
 233 327 233 327 219 332 c 128,-1,6
 205 337 205 337 189 342 c 128,-1,7
 173 347 173 347 155 349 c 0,8,9
 131 349 131 349 117 337.5 c 128,-1,10
 103 326 103 326 97 306 c 1,11,12
 126 302 126 302 161 298.5 c 128,-1,13
 196 295 196 295 226.5 284 c 128,-1,14
 257 273 257 273 277.5 251.5 c 128,-1,15
 298 230 298 230 298 189 c 2,16,-1
 298 65 l 2,17,18
 298 32 298 32 280.5 11.5 c 128,-1,19
 263 -9 263 -9 229 -9 c 0,20,21
 197 -9 197 -9 177 11 c 128,-1,22
 157 31 157 31 157 63 c 0,23,24
 157 93 157 93 175 108.5 c 128,-1,25
 193 124 193 124 222 124 c 0,26,27
 229 124 229 124 239 121 c 128,-1,28
 249 118 249 118 254 113 c 1,29,-1
 254 194 l 2,30,31
 254 219 254 219 232 233.5 c 128,-1,32
 210 248 210 248 179 255.5 c 128,-1,33
 148 263 148 263 114 265 c 128,-1,34
 80 267 80 267 57 268 c 1,35,36
 52 269 52 269 48.5 269 c 128,-1,37
 45 269 45 269 41 269 c 1,38,39
 44 291 44 291 52 312.5 c 128,-1,40
 60 334 60 334 73.5 351.5 c 128,-1,41
 87 369 87 369 106 379.5 c 128,-1,42
 125 390 125 390 150 390 c 0,43,44
 167 390 167 390 182 387 c 128,-1,45
 197 384 197 384 210.5 381 c 128,-1,46
 224 378 224 378 236.5 375 c 128,-1,47
 249 372 249 372 262 372 c 0,48,49
 279 372 279 372 291.5 373.5 c 128,-1,50
 304 375 304 375 319 385 c 1,51,-1
 319 325 l 1,0,1
256 59 m 0,52,53
 256 72 256 72 249 80 c 128,-1,54
 242 88 242 88 228 88 c 0,55,56
 200 88 200 88 200 60 c 0,57,58
 200 47 200 47 206.5 37 c 128,-1,59
 213 27 213 27 227 27 c 256,60,61
 241 27 241 27 248.5 36 c 128,-1,62
 256 45 256 45 256 59 c 0,52,53
EndSplineSet
EndChar
StartChar: uni0E24
Encoding: 3620 3620 305
Width: 364
Flags: W
Fore
326 -140 m 1,0,-1
 281 -140 l 1,1,-1
 281 268 l 2,2,3
 281 314 281 314 252 333.5 c 128,-1,4
 223 353 223 353 180 353 c 0,5,6
 145 353 145 353 114 341 c 128,-1,7
 83 329 83 329 60 301 c 1,8,-1
 136 301 l 1,9,-1
 136 270 l 1,10,11
 121 262 121 262 110 246 c 128,-1,12
 99 230 99 230 99 212 c 2,13,-1
 99 122 l 1,14,15
 116 132 116 132 135 132 c 0,16,17
 162 132 162 132 179 111.5 c 128,-1,18
 196 91 196 91 196 65 c 0,19,20
 196 31 196 31 179 11 c 128,-1,21
 162 -9 162 -9 127 -9 c 0,22,23
 89 -9 89 -9 72 17 c 128,-1,24
 55 43 55 43 55 78 c 2,25,-1
 55 212 l 2,26,27
 55 232 55 232 64 244 c 128,-1,28
 73 256 73 256 89 271 c 1,29,-1
 21 271 l 1,30,-1
 21 325 l 1,31,32
 56 354 56 354 95 373 c 128,-1,33
 134 392 134 392 179 392 c 0,34,35
 204 392 204 392 230 386 c 128,-1,36
 256 380 256 380 277.5 366.5 c 128,-1,37
 299 353 299 353 312.5 332.5 c 128,-1,38
 326 312 326 312 326 283 c 2,39,-1
 326 -140 l 1,0,-1
157 58 m 256,40,41
 157 70 157 70 149 81 c 128,-1,42
 141 92 141 92 128 92 c 0,43,44
 113 92 113 92 105.5 83 c 128,-1,45
 98 74 98 74 98 60 c 256,46,47
 98 46 98 46 106.5 35 c 128,-1,48
 115 24 115 24 129 24 c 0,49,50
 142 24 142 24 149.5 35 c 128,-1,51
 157 46 157 46 157 58 c 256,40,41
EndSplineSet
EndChar
StartChar: uni0E25
Encoding: 3621 3621 306
Width: 364
Flags: W
Fore
278 95 m 2,0,1
 277 127 277 127 259.5 151.5 c 128,-1,2
 242 176 242 176 214 193 c 0,3,4
 192 206 192 206 167 206 c 0,5,6
 144 206 144 206 130 200.5 c 128,-1,7
 116 195 116 195 108.5 184.5 c 128,-1,8
 101 174 101 174 98.5 158 c 128,-1,9
 96 142 96 142 96 121 c 1,10,11
 101 122 101 122 106 122.5 c 128,-1,12
 111 123 111 123 116 123 c 0,13,14
 145 123 145 123 163.5 104.5 c 128,-1,15
 182 86 182 86 182 57 c 256,16,17
 182 28 182 28 163.5 9.5 c 128,-1,18
 145 -9 145 -9 116 -9 c 0,19,20
 84 -9 84 -9 68 9.5 c 128,-1,21
 52 28 52 28 52 60 c 2,22,-1
 52 141 l 2,23,24
 52 196 52 196 83.5 221.5 c 128,-1,25
 115 247 115 247 167 247 c 0,26,27
 181 247 181 247 197.5 243 c 128,-1,28
 214 239 214 239 230 231.5 c 128,-1,29
 246 224 246 224 259 213.5 c 128,-1,30
 272 203 272 203 278 191 c 1,31,-1
 278 250 l 2,32,33
 278 301 278 301 256 324.5 c 128,-1,34
 234 348 234 348 179 348 c 0,35,36
 146 348 146 348 118 330 c 128,-1,37
 90 312 90 312 87 277 c 1,38,-1
 43 277 l 1,39,40
 51 336 51 336 90.5 361.5 c 128,-1,41
 130 387 130 387 185 387 c 0,42,43
 245 387 245 387 283.5 355 c 128,-1,44
 322 323 322 323 322 260 c 2,45,-1
 322 0 l 1,46,-1
 278 0 l 1,47,-1
 278 95 l 2,0,1
116 28 m 256,48,49
 128 28 128 28 135 35.5 c 128,-1,50
 142 43 142 43 142 55 c 256,51,52
 142 67 142 67 135 74.5 c 128,-1,53
 128 82 128 82 116 82 c 0,54,55
 103 82 103 82 96 74.5 c 128,-1,56
 89 67 89 67 89 55 c 256,57,58
 89 43 89 43 96.5 35.5 c 128,-1,59
 104 28 104 28 116 28 c 256,48,49
EndSplineSet
EndChar
StartChar: uni0E26
Encoding: 3622 3622 307
Width: 364
Flags: W
Fore
273 384 m 0,0,1
 296 372 296 372 308 359 c 128,-1,2
 320 346 320 346 325.5 331.5 c 128,-1,3
 331 317 331 317 332 299.5 c 128,-1,4
 333 282 333 282 333 261 c 2,5,-1
 333 -142 l 1,6,-1
 289 -142 l 1,7,-1
 289 280 l 2,8,9
 289 318 289 318 265.5 338 c 128,-1,10
 242 358 242 358 208 358 c 0,11,12
 175 358 175 358 144 345.5 c 128,-1,13
 113 333 113 333 93 307 c 1,14,-1
 173 307 l 1,15,-1
 173 274 l 1,16,17
 157 263 157 263 147 248 c 128,-1,18
 137 233 137 233 137 213 c 2,19,-1
 137 93 l 2,20,21
 137 75 137 75 136 57 c 128,-1,22
 135 39 135 39 129 24 c 128,-1,23
 123 9 123 9 110 0 c 128,-1,24
 97 -9 97 -9 74 -9 c 0,25,26
 40 -9 40 -9 24.5 11.5 c 128,-1,27
 9 32 9 32 9 64 c 0,28,29
 9 89 9 89 23.5 108 c 128,-1,30
 38 127 38 127 64 127 c 0,31,32
 80 127 80 127 93 120 c 1,33,-1
 93 193 l 2,34,35
 93 219 93 219 98.5 238 c 128,-1,36
 104 257 104 257 125 274 c 1,37,-1
 58 274 l 1,38,-1
 58 322 l 1,39,40
 87 357 87 357 128.5 375.5 c 128,-1,41
 170 394 170 394 215 394 c 0,42,43
 235 394 235 394 247.5 391.5 c 128,-1,44
 260 389 260 389 273 384 c 0,0,1
97 59 m 0,45,46
 97 73 97 73 90.5 83.5 c 128,-1,47
 84 94 84 94 69 94 c 0,48,49
 55 94 55 94 50.5 82 c 128,-1,50
 46 70 46 70 46 59 c 256,51,52
 46 48 46 48 51.5 35.5 c 128,-1,53
 57 23 57 23 70 23 c 0,54,55
 84 23 84 23 90.5 34.5 c 128,-1,56
 97 46 97 46 97 59 c 0,45,46
EndSplineSet
EndChar
StartChar: uni0E27
Encoding: 3623 3623 308
Width: 364
Flags: W
Fore
312 65 m 1,0,1
 312 37 312 37 296.5 14 c 128,-1,2
 281 -9 281 -9 250 -9 c 0,3,4
 218 -9 218 -9 196 9 c 128,-1,5
 174 27 174 27 174 62 c 0,6,7
 174 90 174 90 191 110.5 c 128,-1,8
 208 131 208 131 237 131 c 0,9,10
 256 131 256 131 268 122 c 1,11,-1
 268 270 l 2,12,13
 268 308 268 308 246 329.5 c 128,-1,14
 224 351 224 351 186 351 c 0,15,16
 145 351 145 351 112.5 328.5 c 128,-1,17
 80 306 80 306 55 277 c 1,18,-1
 55 336 l 1,19,20
 79 364 79 364 113 377.5 c 128,-1,21
 147 391 147 391 183 391 c 0,22,23
 209 391 209 391 232.5 385 c 128,-1,24
 256 379 256 379 273.5 366 c 128,-1,25
 291 353 291 353 301.5 332.5 c 128,-1,26
 312 312 312 312 312 283 c 2,27,-1
 312 65 l 1,28,-1
 312 65 l 1,0,1
271 59 m 0,29,30
 271 89 271 89 242 89 c 0,31,32
 230 89 230 89 223.5 79.5 c 128,-1,33
 217 70 217 70 217 59 c 0,34,35
 217 47 217 47 224 37 c 128,-1,36
 231 27 231 27 244 27 c 256,37,38
 257 27 257 27 264 37 c 128,-1,39
 271 47 271 47 271 59 c 0,29,30
EndSplineSet
EndChar
StartChar: uni0E28
Encoding: 3624 3624 309
Width: 364
Flags: W
Fore
27 243 m 0,0,1
 27 311 27 311 69.5 349 c 128,-1,2
 112 387 112 387 178 387 c 2,3,-1
 216 387 l 1,4,-1
 217 387 l 2,5,6
 218 387 218 387 218.5 386.5 c 128,-1,7
 219 386 219 386 220 386 c 2,8,-1
 224 386 l 2,9,10
 253 386 253 386 263 397.5 c 128,-1,11
 273 409 273 409 277 429 c 1,12,-1
 333 429 l 1,13,14
 328 404 328 404 310.5 385 c 128,-1,15
 293 366 293 366 268 360 c 1,16,17
 297 342 297 342 310 311 c 128,-1,18
 323 280 323 280 323 248 c 2,19,-1
 323 0 l 1,20,-1
 279 0 l 1,21,-1
 279 250 l 2,22,23
 279 292 279 292 257 321 c 128,-1,24
 235 350 235 350 190 350 c 0,25,26
 138 350 138 350 104.5 323 c 128,-1,27
 71 296 71 296 71 241 c 0,28,29
 71 206 71 206 78 174 c 128,-1,30
 85 142 85 142 94 109 c 1,31,32
 96 120 96 120 98.5 131 c 128,-1,33
 101 142 101 142 104 153 c 0,34,35
 109 173 109 173 112.5 194.5 c 128,-1,36
 116 216 116 216 123.5 234.5 c 128,-1,37
 131 253 131 253 144 265 c 128,-1,38
 157 277 157 277 180 277 c 0,39,40
 209 277 209 277 227.5 260 c 128,-1,41
 246 243 246 243 246 213 c 0,42,43
 246 187 246 187 229 166.5 c 128,-1,44
 212 146 212 146 184 146 c 0,45,46
 161 146 161 146 146 160 c 1,47,48
 137 128 137 128 128 90 c 128,-1,49
 119 52 119 52 119 20 c 2,50,-1
 119 0 l 1,51,-1
 73 0 l 1,52,53
 70 31 70 31 62.5 61 c 128,-1,54
 55 91 55 91 47 121 c 128,-1,55
 39 151 39 151 33 181.5 c 128,-1,56
 27 212 27 212 27 243 c 0,0,1
209 211 m 0,57,58
 209 225 209 225 203 233.5 c 128,-1,59
 197 242 197 242 182 242 c 0,60,61
 171 242 171 242 163 231.5 c 128,-1,62
 155 221 155 221 155 210 c 0,63,64
 155 180 155 180 185 180 c 0,65,66
 198 180 198 180 203.5 190 c 128,-1,67
 209 200 209 200 209 211 c 0,57,58
EndSplineSet
EndChar
StartChar: uni0E29
Encoding: 3625 3625 310
Width: 364
Flags: W
Fore
353 137 m 1,0,1
 345 133 345 133 343 132.5 c 128,-1,2
 341 132 341 132 333 130 c 1,3,-1
 333 0 l 1,4,-1
 103 0 l 1,5,-1
 103 262 l 1,6,7
 89 255 89 255 78 255 c 0,8,9
 49 255 49 255 29.5 272.5 c 128,-1,10
 10 290 10 290 10 321 c 0,11,12
 10 354 10 354 31 370 c 128,-1,13
 52 386 52 386 83 386 c 0,14,15
 107 386 107 386 120 377.5 c 128,-1,16
 133 369 133 369 139 355.5 c 128,-1,17
 145 342 145 342 146 324.5 c 128,-1,18
 147 307 147 307 147 288 c 2,19,-1
 147 38 l 1,20,-1
 289 38 l 1,21,-1
 289 127 l 1,22,23
 284 126 284 126 281.5 126 c 128,-1,24
 279 126 279 126 274 126 c 0,25,26
 254 126 254 126 234 128.5 c 128,-1,27
 214 131 214 131 197.5 139 c 128,-1,28
 181 147 181 147 171 161.5 c 128,-1,29
 161 176 161 176 161 200 c 0,30,31
 161 226 161 226 177 240 c 128,-1,32
 193 254 193 254 219 254 c 256,33,34
 245 254 245 254 259 241 c 128,-1,35
 273 228 273 228 273 203 c 0,36,37
 273 192 273 192 270 179.5 c 128,-1,38
 267 167 267 167 260 157 c 1,39,-1
 289 159 l 1,40,-1
 289 386 l 1,41,-1
 333 386 l 1,42,-1
 333 168 l 1,43,44
 341 173 341 173 343 175 c 128,-1,45
 345 177 345 177 353 183 c 1,46,-1
 353 138 l 1,47,-1
 353 137 l 1,0,1
239 201 m 0,48,49
 239 209 239 209 233.5 216 c 128,-1,50
 228 223 228 223 219 223 c 256,51,52
 210 223 210 223 203.5 215.5 c 128,-1,53
 197 208 197 208 197 199 c 0,54,55
 197 188 197 188 202.5 180 c 128,-1,56
 208 172 208 172 220 172 c 0,57,58
 231 172 231 172 235 182 c 128,-1,59
 239 192 239 192 239 201 c 0,48,49
106 321 m 0,60,61
 106 334 106 334 99 344 c 128,-1,62
 92 354 92 354 78 354 c 256,63,64
 64 354 64 354 56.5 343.5 c 128,-1,65
 49 333 49 333 49 320 c 256,66,67
 49 307 49 307 56.5 297.5 c 128,-1,68
 64 288 64 288 78 288 c 256,69,70
 92 288 92 288 99 298.5 c 128,-1,71
 106 309 106 309 106 321 c 0,60,61
EndSplineSet
EndChar
StartChar: uni0E2A
Encoding: 3626 3626 311
Width: 364
Flags: W
Fore
121 119 m 0,0,1
 151 119 151 119 168 100.5 c 128,-1,2
 185 82 185 82 185 52 c 256,3,4
 185 22 185 22 168.5 6.5 c 128,-1,5
 152 -9 152 -9 123 -9 c 0,6,7
 55 -9 55 -9 55 55 c 2,8,-1
 55 137 l 2,9,10
 55 194 55 194 87.5 220 c 128,-1,11
 120 246 120 246 174 246 c 0,12,13
 188 246 188 246 203 241 c 128,-1,14
 218 236 218 236 232 227.5 c 128,-1,15
 246 219 246 219 257.5 207.5 c 128,-1,16
 269 196 269 196 275 182 c 1,17,-1
 275 225 l 2,18,19
 275 253 275 253 273.5 275.5 c 128,-1,20
 272 298 272 298 263 314.5 c 128,-1,21
 254 331 254 331 236 340 c 128,-1,22
 218 349 218 349 185 349 c 0,23,24
 169 349 169 349 152 343.5 c 128,-1,25
 135 338 135 338 121.5 328 c 128,-1,26
 108 318 108 318 99 304 c 128,-1,27
 90 290 90 290 89 273 c 1,28,-1
 42 273 l 1,29,30
 47 305 47 305 59.5 326.5 c 128,-1,31
 72 348 72 348 91.5 360.5 c 128,-1,32
 111 373 111 373 136.5 378.5 c 128,-1,33
 162 384 162 384 192 384 c 2,34,-1
 211 384 l 2,35,36
 237 384 237 384 254.5 393.5 c 128,-1,37
 272 403 272 403 281 429 c 1,38,-1
 334 429 l 1,39,40
 327 400 327 400 309 380 c 128,-1,41
 291 360 291 360 262 355 c 1,42,43
 295 342 295 342 307 318 c 128,-1,44
 319 294 319 294 319 261 c 2,45,-1
 319 0 l 1,46,-1
 275 0 l 1,47,-1
 275 94 l 2,48,49
 275 126 275 126 257 149.5 c 128,-1,50
 239 173 239 173 210 191 c 0,51,52
 199 197 199 197 189 202 c 128,-1,53
 179 207 179 207 166 207 c 0,54,55
 143 207 143 207 130 200.5 c 128,-1,56
 117 194 117 194 110 182 c 128,-1,57
 103 170 103 170 101.5 153.5 c 128,-1,58
 100 137 100 137 99 117 c 1,59,60
 102 118 102 118 109.5 118.5 c 128,-1,61
 117 119 117 119 121 119 c 0,0,1
121 22 m 256,62,63
 133 22 133 22 140.5 31 c 128,-1,64
 148 40 148 40 148 52 c 256,65,66
 148 64 148 64 140.5 72.5 c 128,-1,67
 133 81 133 81 121 81 c 256,68,69
 109 81 109 81 101.5 72.5 c 128,-1,70
 94 64 94 64 94 52 c 256,71,72
 94 40 94 40 101.5 31 c 128,-1,73
 109 22 109 22 121 22 c 256,62,63
EndSplineSet
EndChar
StartChar: uni0E2B
Encoding: 3627 3627 312
Width: 364
Flags: W
Fore
336 343 m 0,0,1
 336 305 336 305 306 283 c 1,2,3
 318 275 318 275 328 263.5 c 128,-1,4
 338 252 338 252 338 237 c 2,5,-1
 338 0 l 1,6,-1
 294 0 l 1,7,-1
 294 232 l 2,8,9
 294 241 294 241 292 249 c 128,-1,10
 290 257 290 257 282 262 c 1,11,-1
 152 0 l 1,12,-1
 103 0 l 1,13,-1
 103 263 l 1,14,15
 94 259 94 259 82 259 c 0,16,17
 56 259 56 259 36.5 275.5 c 128,-1,18
 17 292 17 292 17 319 c 0,19,20
 17 347 17 347 36 368 c 128,-1,21
 55 389 55 389 83 389 c 0,22,23
 106 389 106 389 119 383 c 128,-1,24
 132 377 132 377 138 366.5 c 128,-1,25
 144 356 144 356 145.5 342 c 128,-1,26
 147 328 147 328 147 312 c 2,27,-1
 147 73 l 1,28,29
 172 120 172 120 199.5 175 c 128,-1,30
 227 230 227 230 255 283 c 1,31,32
 242 292 242 292 231 304 c 128,-1,33
 220 316 220 316 220 333 c 0,34,35
 220 361 220 361 237 376 c 128,-1,36
 254 391 254 391 281 391 c 0,37,38
 304 391 304 391 320 380.5 c 128,-1,39
 336 370 336 370 336 343 c 0,0,1
302 342 m 0,40,41
 302 350 302 350 296 356.5 c 128,-1,42
 290 363 290 363 282 363 c 0,43,44
 270 363 270 363 263.5 354 c 128,-1,45
 257 345 257 345 257 334 c 0,46,47
 257 327 257 327 263.5 317.5 c 128,-1,48
 270 308 270 308 278 308 c 0,49,50
 289 308 289 308 295.5 320 c 128,-1,51
 302 332 302 332 302 342 c 0,40,41
109 323 m 0,52,53
 109 335 109 335 103.5 345.5 c 128,-1,54
 98 356 98 356 84 356 c 0,55,56
 71 356 71 356 64 344.5 c 128,-1,57
 57 333 57 333 57 322 c 256,58,59
 57 311 57 311 64 301.5 c 128,-1,60
 71 292 71 292 82 292 c 0,61,62
 98 292 98 292 103.5 300.5 c 128,-1,63
 109 309 109 309 109 323 c 0,52,53
EndSplineSet
EndChar
StartChar: uni0E2C
Encoding: 3628 3628 313
Width: 364
Flags: W
Fore
376 389 m 1,0,1
 370 369 370 369 360 350.5 c 128,-1,2
 350 332 350 332 335 317 c 1,3,-1
 335 0 l 1,4,-1
 273 0 l 1,5,-1
 203 183 l 1,6,-1
 149 0 l 1,7,-1
 85 0 l 1,8,-1
 85 263 l 1,9,10
 80 261 80 261 74.5 259 c 128,-1,11
 69 257 69 257 64 257 c 0,12,13
 35 257 35 257 15.5 272 c 128,-1,14
 -4 287 -4 287 -4 319 c 0,15,16
 -4 348 -4 348 15 367 c 128,-1,17
 34 386 34 386 64 386 c 0,18,19
 90 386 90 386 109.5 371.5 c 128,-1,20
 129 357 129 357 129 328 c 2,21,-1
 129 48 l 1,22,-1
 189 232 l 1,23,-1
 217 232 l 1,24,-1
 291 48 l 1,25,-1
 291 293 l 1,26,27
 280 288 280 288 267 287 c 128,-1,28
 254 286 254 286 242 286 c 0,29,30
 216 286 216 286 201 297 c 128,-1,31
 186 308 186 308 186 337 c 0,32,33
 186 351 186 351 192 361 c 128,-1,34
 198 371 198 371 207.5 377 c 128,-1,35
 217 383 217 383 228.5 386 c 128,-1,36
 240 389 240 389 252 389 c 0,37,38
 272 389 272 389 290 382 c 128,-1,39
 308 375 308 375 321 359 c 1,40,41
 323 367 323 367 326 374 c 128,-1,42
 329 381 329 381 332 389 c 1,43,-1
 376 389 l 1,44,-1
 376 389 l 1,0,1
294 332 m 1,45,46
 287 346 287 346 276.5 354 c 128,-1,47
 266 362 266 362 250 362 c 0,48,49
 240 362 240 362 227.5 355.5 c 128,-1,50
 215 349 215 349 215 338 c 0,51,52
 215 324 215 324 227.5 319 c 128,-1,53
 240 314 240 314 251 314 c 0,54,55
 265 314 265 314 276.5 317.5 c 128,-1,56
 288 321 288 321 294 332 c 1,45,46
88 323 m 0,57,58
 88 335 88 335 81 345 c 128,-1,59
 74 355 74 355 60 355 c 0,60,61
 48 355 48 355 41.5 344 c 128,-1,62
 35 333 35 333 35 322 c 0,63,64
 35 308 35 308 42.5 299.5 c 128,-1,65
 50 291 50 291 64 291 c 0,66,67
 77 291 77 291 82.5 301.5 c 128,-1,68
 88 312 88 312 88 323 c 0,57,58
EndSplineSet
Substitution: 0 65534 'L019' uni0E2C.alt1
Substitution: 0 65534 'L019' uni0E2C.alt1
EndChar
StartChar: uni0E2D
Encoding: 3629 3629 314
Width: 364
Flags: W
Fore
71 206 m 1,0,1
 71 218 71 218 77 228.5 c 128,-1,2
 83 239 83 239 92.5 246.5 c 128,-1,3
 102 254 102 254 113.5 258.5 c 128,-1,4
 125 263 125 263 137 263 c 0,5,6
 166 263 166 263 184.5 246 c 128,-1,7
 203 229 203 229 203 200 c 0,8,9
 203 176 203 176 185.5 156.5 c 128,-1,10
 168 137 168 137 144 137 c 0,11,12
 131 137 131 137 115 144 c 1,13,-1
 115 38 l 1,14,-1
 287 38 l 1,15,-1
 287 247 l 2,16,17
 287 303 287 303 257 326 c 128,-1,18
 227 349 227 349 178 349 c 0,19,20
 133 349 133 349 98.5 327 c 128,-1,21
 64 305 64 305 32 276 c 1,22,-1
 32 332 l 1,23,24
 62 364 62 364 99 377.5 c 128,-1,25
 136 391 136 391 179 391 c 0,26,27
 213 391 213 391 241 384 c 128,-1,28
 269 377 269 377 289.5 361.5 c 128,-1,29
 310 346 310 346 321 320.5 c 128,-1,30
 332 295 332 295 332 258 c 2,31,-1
 332 0 l 1,32,-1
 71 0 l 1,33,-1
 71 206 l 1,34,-1
 71 206 l 1,0,1
167 202 m 256,35,36
 167 213 167 213 159 220 c 128,-1,37
 151 227 151 227 140 227 c 256,38,39
 129 227 129 227 121.5 219 c 128,-1,40
 114 211 114 211 114 200 c 256,41,42
 114 189 114 189 122 181.5 c 128,-1,43
 130 174 130 174 141 174 c 256,44,45
 152 174 152 174 159.5 182.5 c 128,-1,46
 167 191 167 191 167 202 c 256,35,36
EndSplineSet
EndChar
StartChar: uni0E2E
Encoding: 3630 3630 315
Width: 364
Flags: W
Fore
352 389 m 1,0,1
 343 367 343 367 330 353.5 c 128,-1,2
 317 340 317 340 300 325 c 0,3,4
 298 323 298 323 297 322 c 128,-1,5
 296 321 296 321 294 319 c 1,6,7
 301 300 301 300 301 283 c 2,8,-1
 301 0 l 1,9,-1
 44 0 l 1,10,-1
 44 165 l 2,11,12
 44 194 44 194 62.5 214.5 c 128,-1,13
 81 235 81 235 111 235 c 0,14,15
 143 235 143 235 159.5 220.5 c 128,-1,16
 176 206 176 206 176 172 c 0,17,18
 176 140 176 140 157.5 124.5 c 128,-1,19
 139 109 139 109 108 109 c 0,20,21
 96 109 96 109 88 117 c 1,22,-1
 88 38 l 1,23,-1
 257 38 l 1,24,-1
 257 295 l 1,25,26
 239 286 239 286 225 279 c 128,-1,27
 211 272 211 272 197 267 c 128,-1,28
 183 262 183 262 167.5 259.5 c 128,-1,29
 152 257 152 257 131 257 c 0,30,31
 116 257 116 257 98 259 c 128,-1,32
 80 261 80 261 64 268 c 128,-1,33
 48 275 48 275 37.5 287 c 128,-1,34
 27 299 27 299 27 319 c 0,35,36
 27 342 27 342 41 356 c 128,-1,37
 55 370 55 370 75 377.5 c 128,-1,38
 95 385 95 385 117.5 387.5 c 128,-1,39
 140 390 140 390 157 390 c 0,40,41
 190 390 190 390 218 381.5 c 128,-1,42
 246 373 246 373 273 353 c 1,43,44
 282 364 282 364 289 370.5 c 128,-1,45
 296 377 296 377 304 389 c 1,46,-1
 352 389 l 1,47,-1
 352 389 l 1,0,1
238 331 m 1,48,49
 217 345 217 345 196.5 350.5 c 128,-1,50
 176 356 176 356 151 356 c 0,51,52
 143 356 143 356 129.5 355 c 128,-1,53
 116 354 116 354 103 350 c 128,-1,54
 90 346 90 346 80.5 339.5 c 128,-1,55
 71 333 71 333 71 321 c 0,56,57
 71 312 71 312 77.5 306.5 c 128,-1,58
 84 301 84 301 93.5 298 c 128,-1,59
 103 295 103 295 113 294 c 128,-1,60
 123 293 123 293 130 293 c 0,61,62
 162 293 162 293 187 303 c 128,-1,63
 212 313 212 313 238 331 c 1,48,49
140 173 m 0,64,65
 140 184 140 184 132.5 191 c 128,-1,66
 125 198 125 198 114 198 c 256,67,68
 103 198 103 198 94.5 191 c 128,-1,69
 86 184 86 184 86 173 c 0,70,71
 86 158 86 158 92.5 152 c 128,-1,72
 99 146 99 146 113 146 c 0,73,74
 125 146 125 146 132.5 153.5 c 128,-1,75
 140 161 140 161 140 173 c 0,64,65
EndSplineSet
EndChar
StartChar: uni0E2F
Encoding: 3631 3631 316
Width: 364
Flags: W
Fore
261 327 m 2,0,1
 245 314 245 314 228.5 301.5 c 128,-1,2
 212 289 212 289 195 278.5 c 128,-1,3
 178 268 178 268 159 261.5 c 128,-1,4
 140 255 140 255 117 255 c 0,5,6
 80 255 80 255 57 273 c 128,-1,7
 34 291 34 291 34 331 c 0,8,9
 34 357 34 357 52 373.5 c 128,-1,10
 70 390 70 390 96 390 c 0,11,12
 124 390 124 390 141.5 373 c 128,-1,13
 159 356 159 356 159 329 c 0,14,15
 159 312 159 312 150 295 c 1,16,17
 163 300 163 300 178.5 311 c 128,-1,18
 194 322 194 322 209.5 335 c 128,-1,19
 225 348 225 348 239 361 c 128,-1,20
 253 374 253 374 263 384 c 1,21,-1
 306 384 l 1,22,-1
 306 0 l 1,23,-1
 262 0 l 1,24,-1
 262 328 l 1,25,-1
 261 327 l 2,0,1
119 327 m 256,26,27
 119 337 119 337 114 344 c 128,-1,28
 109 351 109 351 98 351 c 0,29,30
 88 351 88 351 82.5 344 c 128,-1,31
 77 337 77 337 77 327 c 0,32,33
 77 318 77 318 82 309 c 128,-1,34
 87 300 87 300 98 300 c 256,35,36
 109 300 109 300 114 308.5 c 128,-1,37
 119 317 119 317 119 327 c 256,26,27
EndSplineSet
EndChar
StartChar: uni0E30
Encoding: 3632 3632 317
Width: 364
Flags: W
Fore
323 357 m 1,0,1
 310 286 310 286 244 255 c 0,2,3
 228 247 228 247 210.5 242 c 128,-1,4
 193 237 193 237 176 237 c 0,5,6
 157 237 157 237 133 241.5 c 128,-1,7
 109 246 109 246 89 256 c 128,-1,8
 69 266 69 266 55 282.5 c 128,-1,9
 41 299 41 299 41 323 c 0,10,11
 41 350 41 350 59 365.5 c 128,-1,12
 77 381 77 381 103 381 c 256,13,14
 129 381 129 381 148.5 366.5 c 128,-1,15
 168 352 168 352 168 325 c 0,16,17
 168 297 168 297 146 279 c 1,18,19
 151 277 151 277 157.5 277 c 128,-1,20
 164 277 164 277 170 277 c 0,21,22
 209 277 209 277 237 299 c 128,-1,23
 265 321 265 321 277 357 c 1,24,-1
 323 357 l 1,25,-1
 323 357 l 1,0,1
323 125 m 1,26,27
 320 109 320 109 314.5 94.5 c 128,-1,28
 309 80 309 80 299 66 c 0,29,30
 289 53 289 53 274.5 42 c 128,-1,31
 260 31 260 31 243.5 22.5 c 128,-1,32
 227 14 227 14 210 9.5 c 128,-1,33
 193 5 193 5 176 5 c 0,34,35
 157 5 157 5 133 9.5 c 128,-1,36
 109 14 109 14 89 24 c 128,-1,37
 69 34 69 34 55 50.5 c 128,-1,38
 41 67 41 67 41 91 c 0,39,40
 41 118 41 118 59 133.5 c 128,-1,41
 77 149 77 149 103 149 c 0,42,43
 127 149 127 149 147.5 134.5 c 128,-1,44
 168 120 168 120 168 94 c 0,45,46
 168 64 168 64 146 48 c 1,47,48
 151 46 151 46 157.5 45 c 128,-1,49
 164 44 164 44 170 44 c 0,50,51
 209 44 209 44 237 66.5 c 128,-1,52
 265 89 265 89 277 125 c 1,53,-1
 323 125 l 1,54,-1
 323 125 l 1,26,27
130 325 m 0,55,56
 130 348 130 348 107 348 c 0,57,58
 96 348 96 348 88.5 342.5 c 128,-1,59
 81 337 81 337 81 325 c 256,60,61
 81 313 81 313 89.5 307 c 128,-1,62
 98 301 98 301 109 301 c 256,63,64
 120 301 120 301 125 307.5 c 128,-1,65
 130 314 130 314 130 325 c 0,55,56
130 93 m 0,66,67
 130 116 130 116 107 116 c 0,68,69
 96 116 96 116 88.5 110.5 c 128,-1,70
 81 105 81 105 81 93 c 256,71,72
 81 81 81 81 89.5 75 c 128,-1,73
 98 69 98 69 109 69 c 0,74,75
 130 69 130 69 130 93 c 0,66,67
EndSplineSet
EndChar
StartChar: uni0E31
Encoding: 3633 3633 318
Width: 0
Flags: W
Fore
-127 501 m 2,0,1
 -103 501 -103 501 -81.5 510 c 128,-1,2
 -60 519 -60 519 -43.5 532 c 128,-1,3
 -27 545 -27 545 -15 561 c 128,-1,4
 -3 577 -3 577 3 592 c 1,5,-1
 63 592 l 1,6,7
 53 570 53 570 35 547 c 128,-1,8
 17 524 17 524 -6.5 505 c 128,-1,9
 -30 486 -30 486 -58 474 c 128,-1,10
 -86 462 -86 462 -117 462 c 0,11,12
 -136 462 -136 462 -159 466 c 128,-1,13
 -182 470 -182 470 -201.5 479.5 c 128,-1,14
 -221 489 -221 489 -234.5 505 c 128,-1,15
 -248 521 -248 521 -248 545 c 0,16,17
 -248 573 -248 573 -230 587.5 c 128,-1,18
 -212 602 -212 602 -186 602 c 0,19,20
 -161 602 -161 602 -140 587.5 c 128,-1,21
 -119 573 -119 573 -119 547 c 0,22,23
 -119 534 -119 534 -126 521.5 c 128,-1,24
 -133 509 -133 509 -142 501 c 1,25,-1
 -127 501 l 2,0,1
-161 545 m 0,26,27
 -161 565 -161 565 -182 565 c 0,28,29
 -191 565 -191 565 -197.5 560.5 c 128,-1,30
 -204 556 -204 556 -204 545 c 0,31,32
 -204 536 -204 536 -196.5 531 c 128,-1,33
 -189 526 -189 526 -181 526 c 0,34,35
 -161 526 -161 526 -161 545 c 0,26,27
EndSplineSet
Substitution: 0 65534 'L019' uni0E31.alt1
Substitution: 0 65534 'L019' uni0E31.alt1
EndChar
StartChar: uni0E32
Encoding: 3634 3634 319
Width: 364
Flags: W
Fore
186 354 m 0,0,1
 144 354 144 354 109.5 332.5 c 128,-1,2
 75 311 75 311 49 279 c 1,3,-1
 49 336 l 1,4,5
 78 363 78 363 111.5 378 c 128,-1,6
 145 393 145 393 184 393 c 0,7,8
 243 393 243 393 277.5 363.5 c 128,-1,9
 312 334 312 334 312 269 c 2,10,-1
 312 0 l 1,11,-1
 268 0 l 1,12,-1
 268 241 l 2,13,14
 268 261 268 261 266.5 281.5 c 128,-1,15
 265 302 265 302 257 318 c 128,-1,16
 249 334 249 334 232.5 344 c 128,-1,17
 216 354 216 354 186 354 c 0,0,1
EndSplineSet
EndChar
StartChar: uni0E33
Encoding: 3635 3635 320
Width: 364
Flags: W
Fore
134 530 m 0,0,1
 134 501 134 501 115 481.5 c 128,-1,2
 96 462 96 462 67 462 c 0,3,4
 37 462 37 462 18.5 480 c 128,-1,5
 0 498 0 498 0 529 c 0,6,7
 0 558 0 558 18.5 577 c 128,-1,8
 37 596 37 596 67 596 c 256,9,10
 97 596 97 596 115.5 578.5 c 128,-1,11
 134 561 134 561 134 530 c 0,0,1
96 530 m 0,12,13
 96 542 96 542 88 550 c 128,-1,14
 80 558 80 558 68 558 c 256,15,16
 56 558 56 558 48 547.5 c 128,-1,17
 40 537 40 537 40 526 c 0,18,19
 40 514 40 514 47 505.5 c 128,-1,20
 54 497 54 497 67 497 c 0,21,22
 83 497 83 497 89.5 506 c 128,-1,23
 96 515 96 515 96 530 c 0,12,13
201 354 m 0,24,25
 158 354 158 354 123.5 332.5 c 128,-1,26
 89 311 89 311 63 279 c 1,27,-1
 63 336 l 1,28,29
 92 363 92 363 125.5 378 c 128,-1,30
 159 393 159 393 199 393 c 0,31,32
 257 393 257 393 291.5 361 c 128,-1,33
 326 329 326 329 326 268 c 2,34,-1
 326 0 l 1,35,-1
 282 0 l 1,36,-1
 282 227 l 2,37,38
 282 250 282 250 280.5 272.5 c 128,-1,39
 279 295 279 295 271 313 c 128,-1,40
 263 331 263 331 247 342.5 c 128,-1,41
 231 354 231 354 201 354 c 0,24,25
EndSplineSet
Substitution: 0 65534 'L019' uni0E33.alt1
Substitution: 0 65534 'L019' uni0E33.alt1
EndChar
StartChar: uni0E34
Encoding: 3636 3636 321
Width: 0
Flags: W
Fore
-27 455 m 1,0,1
 -36 456 -36 456 -41 457 c 128,-1,2
 -46 458 -46 458 -58 460 c 0,3,4
 -127 474 -127 474 -190 482 c 128,-1,5
 -253 490 -253 490 -322 492 c 1,6,7
 -302 542 -302 542 -270.5 567 c 128,-1,8
 -239 592 -239 592 -189 592 c 0,9,10
 -163 592 -163 592 -139 582.5 c 128,-1,11
 -115 573 -115 573 -95 557.5 c 128,-1,12
 -75 542 -75 542 -60 522 c 128,-1,13
 -45 502 -45 502 -36 481 c 2,14,-1
 -27 455 l 1,0,1
-88 499 m 1,15,16
 -107 524 -107 524 -131.5 539.5 c 128,-1,17
 -156 555 -156 555 -188 555 c 0,18,19
 -208 555 -208 555 -223 547 c 128,-1,20
 -238 539 -238 539 -252 525 c 1,21,22
 -207 525 -207 525 -169.5 518 c 128,-1,23
 -132 511 -132 511 -88 499 c 1,15,16
EndSplineSet
Substitution: 0 65534 'L019' uni0E34.alt1
Substitution: 0 65534 'L019' uni0E34.alt1
EndChar
StartChar: uni0E35
Encoding: 3637 3637 322
Width: 0
Flags: W
Fore
-28 455 m 1,0,1
 -110 474 -110 474 -189 484 c 0,2,3
 -209 487 -209 487 -223.5 488.5 c 128,-1,4
 -238 490 -238 490 -251.5 491.5 c 128,-1,5
 -265 493 -265 493 -280 493.5 c 128,-1,6
 -295 494 -295 494 -314 495 c 1,7,8
 -300 538 -300 538 -263 566 c 128,-1,9
 -226 594 -226 594 -178 594 c 0,10,11
 -145 594 -145 594 -121.5 583 c 128,-1,12
 -98 572 -98 572 -76 553 c 1,13,-1
 -76 608 l 1,14,-1
 -28 608 l 1,15,-1
 -28 455 l 1,0,1
-62 493 m 1,16,17
 -85 519 -85 519 -116 538 c 128,-1,18
 -147 557 -147 557 -182 557 c 0,19,20
 -220 557 -220 557 -248 526 c 1,21,22
 -225 524 -225 524 -212 523 c 128,-1,23
 -199 522 -199 522 -176 519 c 0,24,25
 -145 515 -145 515 -118.5 508.5 c 128,-1,26
 -92 502 -92 502 -62 493 c 1,16,17
EndSplineSet
Substitution: 0 65534 'L019' uni0E35.alt1
Substitution: 0 65534 'L019' uni0E35.alt1
EndChar
StartChar: uni0E36
Encoding: 3638 3638 323
Width: 0
Flags: W
Fore
-15 574 m 0,0,1
 -15 527 -15 527 -60 522 c 1,2,3
 -49 508 -49 508 -42 493 c 128,-1,4
 -35 478 -35 478 -29 455 c 1,5,6
 -65 463 -65 463 -97 469.5 c 128,-1,7
 -129 476 -129 476 -162.5 481 c 128,-1,8
 -196 486 -196 486 -234 489.5 c 128,-1,9
 -272 493 -272 493 -318 496 c 1,10,11
 -304 541 -304 541 -270 568.5 c 128,-1,12
 -236 596 -236 596 -189 596 c 0,13,14
 -171 596 -171 596 -159.5 592.5 c 128,-1,15
 -148 589 -148 589 -132 581 c 1,16,17
 -130 604 -130 604 -113 613.5 c 128,-1,18
 -96 623 -96 623 -76 623 c 0,19,20
 -53 623 -53 623 -34 610 c 128,-1,21
 -15 597 -15 597 -15 574 c 0,0,1
-49 568 m 0,22,23
 -49 579 -49 579 -56 585 c 128,-1,24
 -63 591 -63 591 -73 591 c 0,25,26
 -81 591 -81 591 -88 586 c 128,-1,27
 -95 581 -95 581 -95 571 c 0,28,29
 -95 560 -95 560 -88.5 555 c 128,-1,30
 -82 550 -82 550 -72 550 c 0,31,32
 -64 550 -64 550 -56.5 554 c 128,-1,33
 -49 558 -49 558 -49 568 c 0,22,23
-88 502 m 1,34,35
 -110 525 -110 525 -133 542 c 128,-1,36
 -156 559 -156 559 -191 559 c 0,37,38
 -214 559 -214 559 -226.5 550 c 128,-1,39
 -239 541 -239 541 -248 530 c 1,40,41
 -203 527 -203 527 -167 520 c 128,-1,42
 -131 513 -131 513 -88 502 c 1,34,35
EndSplineSet
Substitution: 0 65534 'L019' uni0E36.alt1
Substitution: 0 65534 'L019' uni0E36.alt1
EndChar
StartChar: uni0E37
Encoding: 3639 3639 324
Width: 0
Flags: W
Fore
-28 455 m 1,0,1
 -67 461 -67 461 -101.5 467.5 c 128,-1,2
 -136 474 -136 474 -170 479 c 128,-1,3
 -204 484 -204 484 -239.5 487 c 128,-1,4
 -275 490 -275 490 -315 490 c 1,5,6
 -297 538 -297 538 -264 564.5 c 128,-1,7
 -231 591 -231 591 -188 591 c 0,8,9
 -179 591 -179 591 -171 590.5 c 128,-1,10
 -163 590 -163 590 -155 587 c 1,11,-1
 -155 608 l 1,12,-1
 -106 608 l 1,13,-1
 -106 571 l 1,14,15
 -98 567 -98 567 -91.5 562 c 128,-1,16
 -85 557 -85 557 -77 550 c 1,17,-1
 -77 608 l 1,18,-1
 -28 608 l 1,19,-1
 -28 455 l 1,0,1
-78 500 m 1,20,21
 -98 525 -98 525 -125.5 540 c 128,-1,22
 -153 555 -153 555 -185 555 c 0,23,24
 -205 555 -205 555 -220 546.5 c 128,-1,25
 -235 538 -235 538 -247 523 c 1,26,27
 -202 523 -202 523 -162 517 c 128,-1,28
 -122 511 -122 511 -78 500 c 1,20,21
EndSplineSet
Substitution: 0 65534 'L019' uni0E37.alt1
Substitution: 0 65534 'L019' uni0E37.alt1
EndChar
StartChar: uni0E38
Encoding: 3640 3640 325
Width: 0
Flags: W
Fore
-67 -152 m 1,0,1
 -75 -155 -75 -155 -83 -155 c 0,2,3
 -106 -155 -106 -155 -120 -141 c 128,-1,4
 -134 -127 -134 -127 -134 -104 c 0,5,6
 -134 -84 -134 -84 -120 -68.5 c 128,-1,7
 -106 -53 -106 -53 -85 -53 c 0,8,9
 -51 -53 -51 -53 -36.5 -72.5 c 128,-1,10
 -22 -92 -22 -92 -22 -123 c 2,11,-1
 -22 -208 l 1,12,-1
 -67 -208 l 1,13,-1
 -67 -152 l 1,14,-1
 -67 -152 l 1,0,1
-85 -88 m 0,15,16
 -90 -88 -90 -88 -94.5 -93 c 128,-1,17
 -99 -98 -99 -98 -99 -104 c 0,18,19
 -99 -112 -99 -112 -95 -117.5 c 128,-1,20
 -91 -123 -91 -123 -83 -123 c 256,21,22
 -75 -123 -75 -123 -69.5 -118.5 c 128,-1,23
 -64 -114 -64 -114 -64 -106 c 0,24,25
 -64 -97 -64 -97 -70 -92.5 c 128,-1,26
 -76 -88 -76 -88 -85 -88 c 0,15,16
EndSplineSet
Substitution: 0 65534 'L020' a
Substitution: 0 65534 'L019' uni0E38.alt1
Substitution: 0 65534 'L020' a
Substitution: 0 65534 'L019' uni0E38.alt1
EndChar
StartChar: uni0E39
Encoding: 3641 3641 326
Width: 0
Flags: W
Fore
-178 -147 m 2,0,1
 -198 -147 -198 -147 -213 -134.5 c 128,-1,2
 -228 -122 -228 -122 -228 -101 c 0,3,4
 -228 -84 -228 -84 -216 -68.5 c 128,-1,5
 -204 -53 -204 -53 -184 -53 c 256,6,7
 -164 -53 -164 -53 -152.5 -59.5 c 128,-1,8
 -141 -66 -141 -66 -135 -76.5 c 128,-1,9
 -129 -87 -129 -87 -127 -101 c 128,-1,10
 -125 -115 -125 -115 -125 -130 c 2,11,-1
 -125 -168 l 1,12,-1
 -74 -168 l 1,13,-1
 -74 -57 l 1,14,-1
 -30 -57 l 1,15,-1
 -30 -205 l 1,16,-1
 -170 -205 l 1,17,-1
 -170 -147 l 1,18,-1
 -178 -147 l 2,0,1
-180 -85 m 0,19,20
 -195 -85 -195 -85 -195 -101 c 256,21,22
 -195 -117 -195 -117 -179 -117 c 256,23,24
 -163 -117 -163 -117 -163 -101 c 256,25,26
 -163 -85 -163 -85 -180 -85 c 0,19,20
EndSplineSet
Substitution: 0 65534 'L020' b
Substitution: 0 65534 'L019' uni0E39.alt1
Substitution: 0 65534 'L020' b
Substitution: 0 65534 'L019' uni0E39.alt1
EndChar
StartChar: uni0E3A
Encoding: 3642 3642 327
Width: 0
Flags: W
Fore
-18 -85 m 0,0,1
 -18 -117 -18 -117 -49 -117 c 0,2,3
 -63 -117 -63 -117 -72.5 -107.5 c 128,-1,4
 -82 -98 -82 -98 -82 -83 c 0,5,6
 -82 -53 -82 -53 -50 -53 c 0,7,8
 -36 -53 -36 -53 -27 -62 c 128,-1,9
 -18 -71 -18 -71 -18 -85 c 0,0,1
EndSplineSet
Substitution: 0 65534 'L020' c
Substitution: 0 65534 'L019' uni0E3A.alt1
Substitution: 0 65534 'L020' c
Substitution: 0 65534 'L019' uni0E3A.alt1
EndChar
StartChar: uni0E3F
Encoding: 3647 3647 328
Width: 364
Flags: W
Fore
333 119 m 0,0,1
 333 88 333 88 321.5 65.5 c 128,-1,2
 310 43 310 43 290.5 28.5 c 128,-1,3
 271 14 271 14 245.5 7 c 128,-1,4
 220 0 220 0 192 0 c 1,5,-1
 192 -76 l 1,6,-1
 137 -76 l 1,7,-1
 137 0 l 1,8,-1
 30 0 l 1,9,-1
 30 427 l 1,10,-1
 137 427 l 1,11,-1
 137 477 l 1,12,-1
 192 477 l 1,13,-1
 192 427 l 1,14,15
 217 426 217 426 239 419.5 c 128,-1,16
 261 413 261 413 278 400.5 c 128,-1,17
 295 388 295 388 305 368 c 128,-1,18
 315 348 315 348 315 321 c 0,19,20
 315 285 315 285 298 260 c 128,-1,21
 281 235 281 235 243 230 c 1,22,23
 288 221 288 221 310.5 192.5 c 128,-1,24
 333 164 333 164 333 119 c 0,0,1
258 315 m 0,25,26
 258 346 258 346 239.5 361 c 128,-1,27
 221 376 221 376 192 378 c 1,28,-1
 192 251 l 1,29,30
 221 254 221 254 239.5 268.5 c 128,-1,31
 258 283 258 283 258 315 c 0,25,26
89 251 m 1,32,-1
 137 251 l 1,33,-1
 137 379 l 1,34,-1
 89 379 l 1,35,-1
 89 251 l 1,32,-1
272 126 m 0,36,37
 272 165 272 165 250.5 183.5 c 128,-1,38
 229 202 229 202 192 204 c 1,39,-1
 192 48 l 1,40,41
 230 50 230 50 251 68 c 128,-1,42
 272 86 272 86 272 126 c 0,36,37
89 48 m 1,43,-1
 137 48 l 1,44,-1
 137 204 l 1,45,-1
 89 204 l 1,46,-1
 89 48 l 1,43,-1
EndSplineSet
EndChar
StartChar: uni0E40
Encoding: 3648 3648 329
Width: 364
Flags: W
Fore
171 117 m 1,0,1
 187 131 187 131 209 131 c 0,2,3
 238 131 238 131 256.5 112 c 128,-1,4
 275 93 275 93 275 63 c 0,5,6
 275 28 275 28 255.5 9.5 c 128,-1,7
 236 -9 236 -9 201 -9 c 0,8,9
 173 -9 173 -9 150 8 c 128,-1,10
 127 25 127 25 127 55 c 2,11,-1
 127 389 l 1,12,-1
 171 389 l 1,13,-1
 171 117 l 1,0,1
237 58 m 256,14,15
 237 72 237 72 229.5 84 c 128,-1,16
 222 96 222 96 205 96 c 0,17,18
 190 96 190 96 181.5 84 c 128,-1,19
 173 72 173 72 173 58 c 0,20,21
 173 46 173 46 181 34 c 128,-1,22
 189 22 189 22 203 22 c 256,23,24
 217 22 217 22 227 33 c 128,-1,25
 237 44 237 44 237 58 c 256,14,15
EndSplineSet
EndChar
StartChar: uni0E41
Encoding: 3649 3649 330
Width: 364
Flags: W
Fore
258 117 m 1,0,1
 274 131 274 131 295 131 c 0,2,3
 325 131 325 131 342.5 112 c 128,-1,4
 360 93 360 93 360 63 c 0,5,6
 360 28 360 28 341.5 9.5 c 128,-1,7
 323 -9 323 -9 288 -9 c 0,8,9
 260 -9 260 -9 237 8.5 c 128,-1,10
 214 26 214 26 214 55 c 2,11,-1
 214 389 l 1,12,-1
 258 389 l 1,13,-1
 258 117 l 1,0,1
81 114 m 1,14,15
 99 129 99 129 118 129 c 0,16,17
 148 129 148 129 166 109.5 c 128,-1,18
 184 90 184 90 184 61 c 0,19,20
 184 24 184 24 163 7.5 c 128,-1,21
 142 -9 142 -9 107 -9 c 0,22,23
 81 -9 81 -9 59 8.5 c 128,-1,24
 37 26 37 26 37 53 c 2,25,-1
 37 386 l 1,26,-1
 81 386 l 1,27,-1
 81 114 l 1,14,15
322 58 m 256,28,29
 322 72 322 72 315.5 84 c 128,-1,30
 309 96 309 96 292 96 c 0,31,32
 278 96 278 96 269.5 84 c 128,-1,33
 261 72 261 72 261 58 c 0,34,35
 261 46 261 46 268.5 34 c 128,-1,36
 276 22 276 22 289 22 c 0,37,38
 304 22 304 22 313 33 c 128,-1,39
 322 44 322 44 322 58 c 256,28,29
145 56 m 0,40,41
 145 71 145 71 138.5 82.5 c 128,-1,42
 132 94 132 94 115 94 c 0,43,44
 101 94 101 94 92 82.5 c 128,-1,45
 83 71 83 71 83 57 c 0,46,47
 83 45 83 45 91.5 33 c 128,-1,48
 100 21 100 21 113 21 c 0,49,50
 127 21 127 21 136 31.5 c 128,-1,51
 145 42 145 42 145 56 c 0,40,41
EndSplineSet
EndChar
StartChar: uni0E42
Encoding: 3650 3650 331
Width: 364
Flags: W
Fore
331 63 m 0,0,1
 331 29 331 29 310 10 c 128,-1,2
 289 -9 289 -9 256 -9 c 0,3,4
 216 -9 216 -9 199 12.5 c 128,-1,5
 182 34 182 34 182 73 c 0,6,7
 182 168 182 168 182.5 260 c 128,-1,8
 183 352 183 352 183 448 c 0,9,10
 183 471 183 471 164 483.5 c 128,-1,11
 145 496 145 496 120 502 c 128,-1,12
 95 508 95 508 70 510 c 128,-1,13
 45 512 45 512 33 514 c 1,14,15
 33 538 33 538 42 558 c 128,-1,16
 51 578 51 578 67 592.5 c 128,-1,17
 83 607 83 607 103.5 614.5 c 128,-1,18
 124 622 124 622 148 622 c 0,19,20
 175 622 175 622 200.5 614.5 c 128,-1,21
 226 607 226 607 253 607 c 0,22,23
 268 607 268 607 282.5 609.5 c 128,-1,24
 297 612 297 612 309 620 c 1,25,-1
 309 569 l 1,26,27
 299 563 299 563 289.5 562 c 128,-1,28
 280 561 280 561 269 561 c 0,29,30
 255 561 255 561 240.5 565 c 128,-1,31
 226 569 226 569 211.5 573.5 c 128,-1,32
 197 578 197 578 182.5 581.5 c 128,-1,33
 168 585 168 585 154 585 c 0,34,35
 134 585 134 585 113 575 c 128,-1,36
 92 565 92 565 85 545 c 1,37,38
 90 544 90 544 97 543 c 128,-1,39
 104 542 104 542 109 540 c 1,40,41
 133 535 133 535 154.5 529 c 128,-1,42
 176 523 176 523 191.5 513.5 c 128,-1,43
 207 504 207 504 216.5 487.5 c 128,-1,44
 226 471 226 471 226 445 c 2,45,-1
 226 124 l 1,46,47
 234 127 234 127 242.5 129.5 c 128,-1,48
 251 132 251 132 260 132 c 0,49,50
 289 132 289 132 310 112.5 c 128,-1,51
 331 93 331 93 331 63 c 0,0,1
291 60 m 256,52,53
 291 72 291 72 281.5 81.5 c 128,-1,54
 272 91 272 91 260 91 c 0,55,56
 246 91 246 91 238 82.5 c 128,-1,57
 230 74 230 74 230 60 c 0,58,59
 230 48 230 48 237.5 37 c 128,-1,60
 245 26 245 26 258 26 c 256,61,62
 271 26 271 26 281 37 c 128,-1,63
 291 48 291 48 291 60 c 256,52,53
EndSplineSet
EndChar
StartChar: uni0E43
Encoding: 3651 3651 332
Width: 364
Flags: W
Fore
322 65 m 0,0,1
 322 30 322 30 306 10.5 c 128,-1,2
 290 -9 290 -9 254 -9 c 256,3,4
 218 -9 218 -9 196.5 11 c 128,-1,5
 175 31 175 31 175 69 c 2,6,-1
 175 445 l 2,7,8
 175 465 175 465 181.5 480.5 c 128,-1,9
 188 496 188 496 196.5 510 c 128,-1,10
 205 524 205 524 211.5 537 c 128,-1,11
 218 550 218 550 218 564 c 0,12,13
 218 576 218 576 210.5 584.5 c 128,-1,14
 203 593 203 593 192 598.5 c 128,-1,15
 181 604 181 604 168.5 606.5 c 128,-1,16
 156 609 156 609 146 609 c 0,17,18
 129 609 129 609 113.5 604.5 c 128,-1,19
 98 600 98 600 90 583 c 1,20,21
 99 588 99 588 104 589 c 128,-1,22
 109 590 109 590 119 590 c 0,23,24
 137 590 137 590 150 575.5 c 128,-1,25
 163 561 163 561 163 544 c 0,26,27
 163 520 163 520 144 506 c 128,-1,28
 125 492 125 492 104 492 c 0,29,30
 75 492 75 492 58.5 514.5 c 128,-1,31
 42 537 42 537 42 563 c 0,32,33
 42 583 42 583 51.5 597.5 c 128,-1,34
 61 612 61 612 76 622.5 c 128,-1,35
 91 633 91 633 109 638 c 128,-1,36
 127 643 127 643 144 643 c 256,37,38
 161 643 161 643 181.5 639 c 128,-1,39
 202 635 202 635 220 626.5 c 128,-1,40
 238 618 238 618 250.5 603.5 c 128,-1,41
 263 589 263 589 263 568 c 0,42,43
 263 551 263 551 256 536 c 128,-1,44
 249 521 249 521 241 506 c 128,-1,45
 233 491 233 491 226 475 c 128,-1,46
 219 459 219 459 219 439 c 2,47,-1
 219 126 l 1,48,49
 227 129 227 129 235 131.5 c 128,-1,50
 243 134 243 134 251 134 c 0,51,52
 281 134 281 134 301.5 114.5 c 128,-1,53
 322 95 322 95 322 65 c 0,0,1
128 542 m 0,54,55
 128 550 128 550 122.5 556.5 c 128,-1,56
 117 563 117 563 109 563 c 0,57,58
 87 563 87 563 87 541 c 0,59,60
 87 533 87 533 92.5 526.5 c 128,-1,61
 98 520 98 520 106 520 c 0,62,63
 116 520 116 520 122 526.5 c 128,-1,64
 128 533 128 533 128 542 c 0,54,55
282 58 m 0,65,66
 282 71 282 71 274.5 82 c 128,-1,67
 267 93 267 93 253 93 c 0,68,69
 237 93 237 93 229 83 c 128,-1,70
 221 73 221 73 221 59 c 256,71,72
 221 45 221 45 230 35 c 128,-1,73
 239 25 239 25 253 25 c 0,74,75
 265 25 265 25 273.5 36 c 128,-1,76
 282 47 282 47 282 58 c 0,65,66
EndSplineSet
EndChar
StartChar: uni0E44
Encoding: 3652 3652 333
Width: 364
Flags: W
Fore
319 69 m 0,0,1
 319 34 319 34 303 12.5 c 128,-1,2
 287 -9 287 -9 250 -9 c 0,3,4
 211 -9 211 -9 194 15 c 128,-1,5
 177 39 177 39 177 76 c 2,6,-1
 177 545 l 1,7,-1
 127 460 l 1,8,-1
 79 460 l 1,9,-1
 45 634 l 1,10,-1
 86 634 l 1,11,-1
 112 514 l 1,12,-1
 180 632 l 1,13,-1
 221 632 l 1,14,-1
 221 125 l 1,15,16
 237 133 237 133 255 133 c 0,17,18
 283 133 283 133 301 115 c 128,-1,19
 319 97 319 97 319 69 c 0,0,1
280 57 m 0,20,21
 280 70 280 70 273.5 80.5 c 128,-1,22
 267 91 267 91 253 91 c 0,23,24
 236 91 236 91 229 81 c 128,-1,25
 222 71 222 71 222 56 c 0,26,27
 222 44 222 44 231.5 34.5 c 128,-1,28
 241 25 241 25 253 25 c 0,29,30
 264 25 264 25 272 35.5 c 128,-1,31
 280 46 280 46 280 57 c 0,20,21
EndSplineSet
EndChar
StartChar: uni0E45
Encoding: 3653 3653 334
Width: 364
Flags: W
Fore
186 353 m 0,0,1
 144 353 144 353 109.5 331.5 c 128,-1,2
 75 310 75 310 49 278 c 1,3,-1
 49 336 l 1,4,5
 78 363 78 363 111.5 378 c 128,-1,6
 145 393 145 393 184 393 c 0,7,8
 243 393 243 393 277.5 363.5 c 128,-1,9
 312 334 312 334 312 273 c 2,10,-1
 312 -145 l 1,11,-1
 268 -145 l 1,12,-1
 268 230 l 2,13,14
 268 253 268 253 266.5 275 c 128,-1,15
 265 297 265 297 257 314.5 c 128,-1,16
 249 332 249 332 232.5 342.5 c 128,-1,17
 216 353 216 353 186 353 c 0,0,1
EndSplineSet
EndChar
